<svg width="1084" height="302" viewBox="0 0 1084 302" fill="none" xmlns="http://www.w3.org/2000/svg">
<path fill-rule="evenodd" clip-rule="evenodd" d="M0 20C0 8.95431 8.9543 0 20 0H1064C1075.05 0 1084 8.9543 1084 20V282C1084 293.046 1075.05 302 1064 302H201.24C208.385 275.279 205.847 245.256 191.995 218.928C165.499 168.565 107.635 150.79 62.7531 179.225C23.6166 204.021 7.27446 255.766 21.3004 302H20C8.95432 302 0 293.046 0 282V20ZM117.804 281.386L108.645 302H100.104L101.722 276.657L62.4761 255.66L106.031 259.009L125.165 215.942L122.113 263.738L161.359 284.735L117.804 281.386ZM52.9245 137.356C52.9245 137.356 50.1164 150.633 50.6906 159.195C51.1733 166.392 54.8617 177.863 54.8617 177.863L65.1544 171.342C65.1544 171.342 58.2206 162.1 55.7893 155.076C53.5145 148.505 52.9245 137.356 52.9245 137.356ZM43.0071 131.886C45.6982 133.409 49.92 135.736 49.92 135.736C49.92 135.736 45.3588 139.462 41.9782 140.768C36.7447 142.79 33.0044 143.7 27.7344 141.563C22.5167 139.447 17.2133 130.855 17.2133 130.855C17.2133 130.855 26.267 124.668 32.4574 125.769C35.3789 126.288 37.1854 127.687 39.1919 129.242C40.3219 130.118 41.5154 131.042 43.0071 131.886ZM56.0193 133.691C56.0193 133.691 56.2212 123.365 56.0135 116.753C55.9106 113.474 55.4384 110.746 54.9882 108.144C54.292 104.121 53.6484 100.402 54.504 95.4192C56.1684 85.7272 59.2156 80.2792 65.524 73.2797C70.7274 67.5064 81.566 62.2244 81.566 62.2244C81.566 62.2244 88.0796 80.2566 86.6903 91.9679C85.3146 103.564 82.0168 110.217 75.0007 118.99C69.0139 126.475 56.0193 133.691 56.0193 133.691Z" fill="#172A48"/>
</svg>
