<svg width="34" height="33" viewBox="0 0 34 33" fill="none" xmlns="http://www.w3.org/2000/svg">
<path d="M20.2013 31.267H14.1342C8.41443 31.267 5.5538 31.267 3.77766 29.4893C2 27.7132 2 24.8526 2 19.1328V16.0993C2 10.3795 2 7.5189 3.77766 5.74276C5.5538 3.9651 8.41443 3.9651 14.1342 3.9651H20.2013C25.921 3.9651 28.7816 3.9651 30.5578 5.74276C32.3354 7.5189 32.3354 10.3795 32.3354 16.0993V19.1328C32.3354 24.8526 32.3354 27.7132 30.5578 29.4893C29.5673 30.4813 28.2402 30.9197 26.2684 31.1123M9.58386 3.9651V1.68994M24.7516 3.9651V1.68994M31.5771 11.549H15.2718M2 11.549H7.87749" stroke="white" stroke-width="3" stroke-linecap="round"/>
<path d="M26.2684 23.683C26.2684 24.0853 26.1086 24.4711 25.8242 24.7555C25.5397 25.04 25.1539 25.1998 24.7516 25.1998C24.3494 25.1998 23.9636 25.04 23.6791 24.7555C23.3947 24.4711 23.2349 24.0853 23.2349 23.683C23.2349 23.2807 23.3947 22.8949 23.6791 22.6105C23.9636 22.326 24.3494 22.1662 24.7516 22.1662C25.1539 22.1662 25.5397 22.326 25.8242 22.6105C26.1086 22.8949 26.2684 23.2807 26.2684 23.683ZM26.2684 17.6159C26.2684 18.0182 26.1086 18.404 25.8242 18.6884C25.5397 18.9729 25.1539 19.1327 24.7516 19.1327C24.3494 19.1327 23.9636 18.9729 23.6791 18.6884C23.3947 18.404 23.2349 18.0182 23.2349 17.6159C23.2349 17.2136 23.3947 16.8278 23.6791 16.5434C23.9636 16.2589 24.3494 16.0991 24.7516 16.0991C25.1539 16.0991 25.5397 16.2589 25.8242 16.5434C26.1086 16.8278 26.2684 17.2136 26.2684 17.6159ZM18.6845 23.683C18.6845 24.0853 18.5247 24.4711 18.2403 24.7555C17.9558 25.04 17.57 25.1998 17.1678 25.1998C16.7655 25.1998 16.3797 25.04 16.0953 24.7555C15.8108 24.4711 15.651 24.0853 15.651 23.683C15.651 23.2807 15.8108 22.8949 16.0953 22.6105C16.3797 22.326 16.7655 22.1662 17.1678 22.1662C17.57 22.1662 17.9558 22.326 18.2403 22.6105C18.5247 22.8949 18.6845 23.2807 18.6845 23.683ZM18.6845 17.6159C18.6845 18.0182 18.5247 18.404 18.2403 18.6884C17.9558 18.9729 17.57 19.1327 17.1678 19.1327C16.7655 19.1327 16.3797 18.9729 16.0953 18.6884C15.8108 18.404 15.651 18.0182 15.651 17.6159C15.651 17.2136 15.8108 16.8278 16.0953 16.5434C16.3797 16.2589 16.7655 16.0991 17.1678 16.0991C17.57 16.0991 17.9558 16.2589 18.2403 16.5434C18.5247 16.8278 18.6845 17.2136 18.6845 17.6159ZM11.1007 23.683C11.1007 24.0853 10.9409 24.4711 10.6564 24.7555C10.372 25.04 9.98618 25.1998 9.58391 25.1998C9.18164 25.1998 8.79584 25.04 8.51139 24.7555C8.22694 24.4711 8.06714 24.0853 8.06714 23.683C8.06714 23.2807 8.22694 22.8949 8.51139 22.6105C8.79584 22.326 9.18164 22.1662 9.58391 22.1662C9.98618 22.1662 10.372 22.326 10.6564 22.6105C10.9409 22.8949 11.1007 23.2807 11.1007 23.683ZM11.1007 17.6159C11.1007 18.0182 10.9409 18.404 10.6564 18.6884C10.372 18.9729 9.98618 19.1327 9.58391 19.1327C9.18164 19.1327 8.79584 18.9729 8.51139 18.6884C8.22694 18.404 8.06714 18.0182 8.06714 17.6159C8.06714 17.2136 8.22694 16.8278 8.51139 16.5434C8.79584 16.2589 9.18164 16.0991 9.58391 16.0991C9.98618 16.0991 10.372 16.2589 10.6564 16.5434C10.9409 16.8278 11.1007 17.2136 11.1007 17.6159Z" fill="white"/>
</svg>
