<svg width="38" height="38" viewBox="0 0 38 38" fill="none" xmlns="http://www.w3.org/2000/svg">
<path d="M19.0001 3.1665C27.7448 3.1665 34.8334 10.2551 34.8334 18.9998C34.8334 27.7446 27.7448 34.8332 19.0001 34.8332C10.2553 34.8332 3.16675 27.7446 3.16675 18.9998C3.16675 10.2551 10.2553 3.1665 19.0001 3.1665ZM19.0001 9.49984C18.5802 9.49984 18.1774 9.66665 17.8805 9.96358C17.5836 10.2605 17.4167 10.6632 17.4167 11.0832V18.9998C17.4168 19.4197 17.5837 19.8224 17.8807 20.1193L22.6307 24.8693C22.9293 25.1577 23.3292 25.3173 23.7444 25.3137C24.1595 25.31 24.5566 25.1435 24.8502 24.85C25.1438 24.5564 25.3103 24.1593 25.3139 23.7441C25.3175 23.329 25.1579 22.929 24.8695 22.6304L20.5834 18.3443V11.0832C20.5834 10.6632 20.4166 10.2605 20.1197 9.96358C19.8227 9.66665 19.42 9.49984 19.0001 9.49984Z" fill="white"/>
</svg>
