<svg width="124" height="110" viewBox="0 0 124 110" fill="none" xmlns="http://www.w3.org/2000/svg">
<path d="M86.7808 78.9684C92.2433 75.8049 91.5355 63.6149 85.2048 51.7218C82.4892 46.6009 79.1503 42.454 75.8113 39.555C71.8188 42.6423 66.9824 44.3165 62.0104 44.3326C57.0309 44.3212 52.1861 42.6467 48.1873 39.555C44.8484 42.454 41.5183 46.6055 38.7938 51.7218C32.4587 63.6103 31.7598 75.8049 37.2356 78.9684C39.6753 80.4156 42.2485 79.3302 44.9018 76.6677C44.4051 79.5362 44.1562 82.4454 44.1583 85.3602C44.1583 98.9882 49.2335 110 55.4795 110C59.2458 110 61.1112 105.988 62.006 99.851C62.8964 105.946 64.7662 110 68.5058 110C74.7251 110 79.8403 98.9835 79.8403 85.3602C79.8403 82.2988 79.5643 79.3766 79.0924 76.6723C81.7635 79.3395 84.3278 80.4434 86.7764 78.9777L86.7808 78.9684ZM62.0015 39.6941C64.5274 39.7334 67.0355 39.2489 69.38 38.2688C71.7244 37.2886 73.8584 35.8324 75.6576 33.9849C77.4568 32.1374 78.8854 29.9355 79.8602 27.5073C80.835 25.0792 81.3366 22.4732 81.3357 19.8412C81.3348 17.2092 80.8315 14.6036 79.855 12.1762C78.8786 9.74873 77.4485 7.54787 75.6481 5.70168C73.8476 3.85549 71.7127 2.40085 69.3676 1.42241C67.0225 0.44397 64.514 -0.0387215 61.9882 0.00242578C56.9869 0.0838992 52.2171 2.21157 48.7086 5.92601C45.2001 9.64045 43.2346 14.6436 43.2363 19.8551C43.2381 25.0667 45.207 30.0684 48.718 33.7803C52.229 37.4921 57.0002 39.6163 62.0015 39.6941ZM100.261 52.283C104.329 52.1592 108.191 50.3883 111.027 47.3463C113.862 44.3044 115.448 40.2308 115.448 35.9903C115.448 31.7498 113.862 27.6762 111.027 24.6343C108.191 21.5923 104.329 19.8214 100.261 19.6975C96.1127 19.6981 92.1344 21.4158 89.2014 24.4726C86.2685 27.5294 84.6211 31.6749 84.6217 35.9972C84.6222 40.3196 86.2708 44.4646 89.2046 47.5206C92.1384 50.5765 96.1172 52.2929 100.266 52.2923L100.261 52.283ZM119.315 62.1631C117.08 57.9513 114.347 54.5466 111.605 52.1671C108.324 54.6995 104.353 56.0729 100.27 56.0866C96.9044 56.0866 93.7703 55.1265 91.0279 53.5354C93.2361 58.6053 94.6028 63.7402 94.8566 68.3323C95.275 75.3643 93.1648 80.5779 88.9445 83.0132C88.0399 83.531 87.0565 83.8825 86.0374 84.0522C85.7836 85.8705 85.61 87.763 85.61 89.7576C85.61 100.95 89.7725 109.991 94.9055 109.991C97.9952 109.991 99.5355 106.697 100.266 101.66C100.991 106.67 102.527 109.991 105.608 109.991C110.705 109.991 114.912 100.946 114.912 89.7668C114.912 87.2481 114.676 84.85 114.289 82.6235C116.479 84.8175 118.59 85.7221 120.602 84.516C125.085 81.9185 124.506 71.9086 119.311 62.1584L119.315 62.1631ZM23.7419 52.283C26.8338 52.2812 29.8558 51.3242 32.4258 49.5331C34.9959 47.742 36.9985 45.1971 38.1805 42.2203C39.3625 39.2434 39.6709 35.9682 39.0666 32.8088C38.4623 29.6494 36.9725 26.7476 34.7855 24.4703C32.5986 22.1929 29.8126 20.6423 26.78 20.0145C23.7473 19.3867 20.6041 19.7098 17.7477 20.9431C14.8912 22.1764 12.4499 24.2643 10.7323 26.9431C9.01467 29.6218 8.09791 32.7711 8.09791 35.9926C8.09909 40.3152 9.74767 44.4604 12.6812 47.5169C15.6148 50.5734 19.5932 52.2911 23.7419 52.2923V52.283ZM35.0275 82.9992C27.94 78.8942 27.2901 66.6531 32.9974 53.5262C30.1763 55.1949 26.9903 56.0783 23.7463 56.0913C19.4903 56.0913 15.5905 54.6069 12.394 52.1671C9.65608 54.542 6.92706 57.9467 4.6833 62.1538C-0.512066 71.9132 -1.08191 81.9231 3.40561 84.5114C5.40896 85.7081 7.52362 84.8129 9.7006 82.6282C9.30073 84.9833 9.09963 87.3705 9.09959 89.7622C9.09959 100.95 13.2621 109.986 18.3952 109.986C21.4848 109.986 23.0251 106.693 23.7553 101.66C24.4898 106.67 26.0257 109.991 29.0975 109.991C34.2039 109.991 38.402 100.946 38.402 89.7668C38.402 87.7584 38.2239 85.8612 37.9702 84.0429C36.9398 83.8737 35.9456 83.5189 35.0319 82.9946L35.0275 82.9992Z" fill="#757DD6"/>
</svg>
