<svg width="23" height="24" viewBox="0 0 23 24" fill="none" xmlns="http://www.w3.org/2000/svg">
<ellipse cx="11.5" cy="11.5348" rx="11.5" ry="11.5348" fill="url(#paint0_linear_256_362)"/>
<path d="M6.60611 5.03491L6 5.69108L7.06774 7.69008L7.76017 7.58014L11.9868 12.1564L11.6263 12.5312C11.4416 12.7311 11.4416 13.0339 11.6263 13.2338L11.8137 13.4372C11.9983 13.6371 12.2808 13.6371 12.4193 13.4372L12.9677 14.0304C12.9216 14.3303 12.9677 14.6866 13.1986 14.9365L15.6941 17.6226C16.2019 18.1723 17.0328 18.1723 17.5406 17.6226C18.1407 17.0229 18.1352 16.1264 17.6274 15.5766L15.1461 12.8745C14.9153 12.6246 14.5862 12.5247 14.3092 12.6246L13.7031 12.0314C13.8416 11.8315 13.8416 11.5257 13.7031 11.3752L13.53 11.1883C13.488 11.141 13.4377 11.1033 13.3819 11.0775C13.3261 11.0518 13.2661 11.0385 13.2055 11.0385C13.1449 11.0385 13.0848 11.0518 13.0291 11.0775C12.9733 11.1033 12.9229 11.141 12.881 11.1883L12.5781 11.5162L8.35151 6.94046L8.45214 6.19083L6.60611 5.03491ZM15.6078 5.0504C14.697 4.96845 13.4894 5.62212 12.9244 6.19033C12.2291 6.94296 12.3427 7.92697 12.8953 8.87699L11.9148 9.93896L12.6072 10.782C12.9765 10.4322 13.5212 10.4322 13.8905 10.782L14.0784 10.9849L14.1218 11.0319L14.5257 10.5946C15.3603 11.1259 16.2291 11.2023 16.8915 10.4852C17.5378 9.83551 18.2386 8.23331 17.9154 7.28379L16.6173 8.73606C16.4327 8.93596 16.1529 8.93596 15.9683 8.73606L14.6264 7.28379C14.5826 7.23836 14.5478 7.18381 14.524 7.12344C14.5002 7.06306 14.4879 6.9981 14.4879 6.93246C14.4879 6.86682 14.5002 6.80186 14.524 6.74149C14.5478 6.68111 14.5826 6.62657 14.6264 6.58114L15.9688 5.12887C15.8534 5.08489 15.7379 5.0624 15.6078 5.0504ZM10.5299 11.2818L8.85606 13.0934C8.6762 13.0501 8.49236 13.0292 8.30812 13.0309C7.01557 13.0309 6 14.1304 6 15.5297C6 16.929 7.01557 18.0284 8.30812 18.0284C9.60066 18.0284 10.6162 16.929 10.6162 15.5297C10.6162 15.2733 10.5788 15.0269 10.5151 14.7955L11.4961 13.7336L11.3521 13.5307C10.9828 13.1309 10.9855 12.5252 11.3087 12.1249L10.5299 11.2818ZM14.1075 13.5621C14.1652 13.5621 14.2197 13.5741 14.2658 13.6246L16.9926 16.5761C17.085 16.6761 17.085 16.835 16.9926 16.935C16.9003 17.0349 16.7526 17.0349 16.6603 16.935L13.9344 13.9834C13.8421 13.8835 13.8421 13.7246 13.9344 13.6246C13.9805 13.5746 14.0498 13.5621 14.1075 13.5621ZM8.62571 14.2328L9.50557 15.1858L9.18797 16.4817L7.99098 16.8255L7.11067 15.8725L7.42826 14.5766L8.62571 14.2328Z" fill="white"/>
<defs>
<linearGradient id="paint0_linear_256_362" x1="11.5" y1="0" x2="11.5" y2="23.0697" gradientUnits="userSpaceOnUse">
<stop stop-color="#B3DDEC"/>
<stop offset="1" stop-color="#7993F3"/>
</linearGradient>
</defs>
</svg>
