<svg width="23" height="22" viewBox="0 0 23 22" fill="none" xmlns="http://www.w3.org/2000/svg">
<ellipse cx="11.5" cy="11" rx="11.5" ry="11" fill="url(#paint0_linear_250_898)"/>
<path d="M10.9915 5.10111C10.7469 5.20215 10.5282 5.42153 10.0901 5.85896C9.65208 6.29772 9.43271 6.51643 9.33234 6.76041C9.2655 6.92175 9.2311 7.09467 9.2311 7.2693C9.2311 7.44394 9.2655 7.61686 9.33234 7.7782C9.43271 8.02284 9.65141 8.24155 10.0901 8.67965C10.5275 9.11774 10.7469 9.33712 10.9915 9.4375C11.3172 9.57231 11.683 9.57231 12.0086 9.4375C12.2532 9.33712 12.4719 9.11841 12.91 8.67965C13.3487 8.24155 13.5668 8.02284 13.6678 7.7782C13.8026 7.45256 13.8026 7.08672 13.6678 6.76108C13.5668 6.51643 13.3487 6.29772 12.91 5.85963C12.4719 5.42087 12.2532 5.20215 12.0086 5.10111C11.683 4.9663 11.3172 4.9663 10.9915 5.10111ZM6.76044 9.3318C6.51648 9.43285 6.29711 9.65156 5.85971 10.0897C5.42098 10.5284 5.20228 10.7471 5.10124 10.9911C5.0344 11.1524 5 11.3254 5 11.5C5 11.6746 5.0344 11.8476 5.10124 12.0089C5.20228 12.2535 5.42164 12.4722 5.85905 12.9103C6.29778 13.3484 6.51648 13.5672 6.76044 13.6682C6.92177 13.735 7.09468 13.7694 7.2693 13.7694C7.44393 13.7694 7.61684 13.735 7.77816 13.6682C8.02279 13.5672 8.24149 13.3484 8.67956 12.9103C9.11829 12.4722 9.33633 12.2535 9.43737 12.0089C9.57217 11.6833 9.57217 11.3174 9.43737 10.9918C9.33633 10.7471 9.11829 10.5278 8.67956 10.0897C8.24149 9.65156 8.02279 9.43285 7.77816 9.3318C7.45254 9.19699 7.08606 9.19699 6.76044 9.3318ZM14.3206 10.0897C13.8825 10.5284 13.6638 10.7471 13.5628 10.9911C13.4959 11.1524 13.4615 11.3254 13.4615 11.5C13.4615 11.6746 13.4959 11.8476 13.5628 12.0089C13.6638 12.2535 13.8825 12.4722 14.3206 12.9103C14.7586 13.3484 14.978 13.5672 15.222 13.6682C15.5476 13.803 15.9134 13.803 16.239 13.6682C16.4837 13.5672 16.703 13.3484 17.1411 12.9103C17.5792 12.4722 17.7972 12.2535 17.8989 12.0089C18.0337 11.6833 18.0337 11.3174 17.8989 10.9918C17.7972 10.7471 17.5792 10.5278 17.1411 10.0897C16.7024 9.65156 16.4837 9.43285 16.2397 9.3318C16.0784 9.26496 15.9055 9.23056 15.7308 9.23056C15.5562 9.23056 15.3833 9.26496 15.222 9.3318C14.978 9.43285 14.7586 9.65156 14.3206 10.0897ZM10.9915 13.5625C10.7469 13.6635 10.5282 13.8829 10.0901 14.3204C9.65208 14.7591 9.43271 14.9778 9.33234 15.2225C9.19754 15.5481 9.19754 15.9139 9.33234 16.2396C9.43271 16.4842 9.65141 16.7029 10.0901 17.141C10.5275 17.5791 10.7469 17.7985 10.9915 17.8989C11.3172 18.0337 11.683 18.0337 12.0086 17.8989C12.2532 17.7985 12.4719 17.5798 12.91 17.141C13.3487 16.7029 13.5668 16.4842 13.6678 16.2396C13.8027 15.9138 13.8027 15.5482 13.6678 15.2225C13.5668 14.9778 13.3487 14.7584 12.91 14.321C12.4719 13.8823 12.2532 13.6635 12.0086 13.5625C11.683 13.4277 11.3172 13.4277 10.9915 13.5625Z" stroke="white" stroke-linecap="round" stroke-linejoin="round"/>
<defs>
<linearGradient id="paint0_linear_250_898" x1="11.5" y1="0" x2="11.5" y2="22" gradientUnits="userSpaceOnUse">
<stop stop-color="#EABCD5"/>
<stop offset="1" stop-color="#E67BB5"/>
</linearGradient>
</defs>
</svg>
