<svg width="16" height="23" viewBox="0 0 16 23" fill="none" xmlns="http://www.w3.org/2000/svg">
<path fill-rule="evenodd" clip-rule="evenodd" d="M7.65315 22.4471C11.8799 22.4471 15.3063 18.9434 15.3063 14.6213C15.3063 10.2993 11.8799 6.79553 7.65315 6.79553C3.42643 6.79553 0 10.2993 0 14.6213C0 18.9434 3.42643 22.4471 7.65315 22.4471ZM8.70513 14.6558L10.6968 11.7039L7.74498 13.6956L4.7931 11.7039L6.78482 14.6558L4.7931 17.6077L7.74498 15.616L10.6968 17.6077L8.70513 14.6558Z" fill="#1E3D6C"/>
<path d="M7.54537 5.01436C7.82299 4.43984 8.51468 3.69983 8.51468 3.69983C8.51468 3.69983 8.14207 4.44146 8.05854 4.9572C7.96926 5.50843 8.11556 6.38604 8.11556 6.38604H7.14624C7.14624 6.38604 7.312 5.49729 7.54537 5.01436Z" fill="#1E3D6C"/>
<path d="M8.01763 2.94351C8.15111 3.15127 8.36282 3.47321 8.36282 3.47321C8.36282 3.47321 7.90221 3.52703 7.6149 3.47321C7.17014 3.3899 6.87213 3.29598 6.57932 2.94351C6.28943 2.59454 6.23413 1.82526 6.23413 1.82526C6.23413 1.82526 7.1035 1.79627 7.49984 2.11953C7.79222 2.35801 7.81225 2.62383 8.01763 2.94351Z" fill="#1E3D6C"/>
<path d="M9.49838 2.49985C9.26737 2.93384 8.86938 3.59023 8.86938 3.59023C8.86938 3.59023 10.0553 3.65574 10.7564 3.41807C11.5779 3.13953 12.058 2.84582 12.5861 2.15552C13.1195 1.45839 13.3295 0.0321521 13.3295 0.0321521C13.3295 0.0321521 12.3677 -0.0698642 11.7856 0.0895405C11.0799 0.282799 10.6623 0.509198 10.1845 1.06514C9.78013 1.53579 9.79016 1.95168 9.49838 2.49985Z" fill="#1E3D6C"/>
</svg>
