<svg width="22" height="22" viewBox="0 0 22 22" fill="none" xmlns="http://www.w3.org/2000/svg">
<circle cx="11" cy="11" r="11" fill="url(#paint0_linear_328_1046)"/>
<path d="M12.5258 6.79777C12.5508 6.53574 12.9694 6.51558 13.2881 6.62241C13.3069 6.62846 13.8338 6.81793 13.6839 6.92879C13.1027 6.77963 12.5091 7.29564 12.5258 6.79777ZM8.33917 6.93685C8.97862 6.77358 9.63056 7.33998 9.61182 6.79374C9.58474 6.50752 9.12442 6.48535 8.7745 6.60024C8.75367 6.60629 8.17671 6.81188 8.33917 6.93685ZM12.6549 9.06537C12.4716 9.06537 12.3217 9.2105 12.3217 9.38787C12.3217 9.56525 12.4716 9.71038 12.6549 9.71038C12.8382 9.71038 12.9882 9.56525 12.9882 9.38787C12.9882 9.2105 12.8382 9.06537 12.6549 9.06537ZM9.32855 9.06537C9.14525 9.06537 8.99528 9.2105 8.99528 9.38787C8.99528 9.56525 9.14525 9.71038 9.32855 9.71038C9.51184 9.71038 9.66181 9.56525 9.66181 9.38787C9.66181 9.2105 9.51184 9.06537 9.32855 9.06537ZM15.9625 12.3549C15.7563 12.8387 15.1148 12.5766 14.6316 12.3307C14.3504 13.7235 13.4214 14.5761 12.0009 14.8341C12.0071 14.8523 11.9592 14.8321 12.5008 14.8543C13.2006 14.8825 13.8297 14.7918 14.5295 14.693C14.1171 14.4149 14.2921 13.9452 14.3254 13.9251C14.3546 13.9069 14.6316 13.9594 14.7753 14.1569C14.9544 13.9049 15.3668 13.8586 15.4043 13.8828C15.4377 13.9049 15.5418 14.304 15.2606 14.5802C15.3585 14.562 15.4314 14.5479 15.4647 14.5378C15.5189 14.5217 15.8334 14.7656 15.5293 14.8059C15.2314 14.8523 15.0586 14.9087 14.5483 15.0236C13.5922 15.2393 12.7591 15.2615 12.0967 15.2816L12.1175 15.5154C12.1967 15.8803 11.6301 16.0052 11.5427 15.6404C11.5593 16.0012 10.9782 16.0798 10.9511 15.6202L10.9407 15.7271C10.9261 16.0979 10.3492 16.0879 10.3512 15.715C10.195 15.9871 9.76595 15.852 9.80136 15.5436L9.82636 15.2937C9.06194 15.3118 8.58287 15.3562 8.53913 15.3562C8.10381 15.3562 8.10381 14.7192 8.53913 14.7192C8.58912 14.7192 9.11609 14.7455 9.85552 14.7757C8.58287 14.4633 7.69556 13.6671 7.46228 12.3932C6.94156 12.6512 6.26462 12.9334 6.04175 12.4093C5.82305 11.8973 6.48957 11.5507 7.43312 10.9298C7.4477 10.7968 7.46645 10.6618 7.48936 10.5307C7.18942 10.1357 7.24774 9.79906 7.15401 9.31329C6.80409 9.36167 6.67078 9.12987 6.66245 8.84768C6.6687 8.70054 6.70619 8.54735 6.71244 8.53727C6.73535 8.50099 6.92281 8.49696 6.97697 8.48487C7.10194 7.84591 8.03091 7.81567 8.87031 7.78947C9.28064 7.35006 9.81178 6.95298 10.5554 6.81591C10.2367 6.42488 10.4845 6.01167 10.5054 6.00159C10.5408 5.98547 10.9469 6.08827 11.0532 6.46922C11.1615 6.29185 11.4343 6.23944 11.4614 6.25355C11.4843 6.26564 11.5947 6.5559 11.3594 6.7756C12.1988 6.84615 12.8632 7.27346 13.3589 7.79753C14.1109 7.82777 14.8544 7.91645 14.9648 8.48285C15.0211 8.49494 15.2065 8.49897 15.2294 8.53526C15.2356 8.54533 15.2731 8.69852 15.2794 8.84567C15.2689 9.12584 15.1377 9.35764 14.7878 9.31128C14.7211 9.65999 14.7316 9.97443 14.6066 10.2727C14.6566 10.5086 14.6899 10.7525 14.7066 11.0064C15.4772 11.5184 16.1708 11.8631 15.9625 12.3549ZM10.3221 9.06335C10.3408 8.17647 9.53267 8.21275 8.68493 8.25105C8.23295 8.27121 7.87469 8.28935 7.73722 8.53123C7.49977 8.95249 7.86011 10.4038 8.22045 10.5711C8.42457 10.6658 9.74929 10.7303 10.018 10.4279C10.1888 10.2385 10.3304 9.43222 10.3221 9.06335ZM11.4052 10.2385C11.3156 9.98853 11.2802 9.63177 11.0865 9.57936C11.0448 9.56928 10.899 9.56928 10.8574 9.57936C10.6491 9.6358 10.6324 10.0248 10.5033 10.3292C10.8241 10.3292 10.9053 10.5247 10.9969 10.5247C11.0865 10.5247 11.1282 10.2969 11.4052 10.2385ZM14.2317 8.53123C14.0942 8.28733 13.7151 8.27121 13.2631 8.25105C12.4258 8.21275 11.6343 8.17446 11.653 9.06335C11.6426 9.43222 11.7572 10.2385 11.928 10.43C12.1988 10.7303 13.5235 10.6678 13.7255 10.5731C14.0546 10.4199 14.4858 8.98273 14.2317 8.53123Z" fill="white"/>
<defs>
<linearGradient id="paint0_linear_328_1046" x1="11" y1="0" x2="11" y2="22" gradientUnits="userSpaceOnUse">
<stop stop-color="#FFAD6C"/>
<stop offset="1" stop-color="#FA8A4B"/>
</linearGradient>
</defs>
</svg>
