<svg width="114" height="114" viewBox="0 0 114 114" fill="none" xmlns="http://www.w3.org/2000/svg">
<g clip-path="url(#clip0_246_2)">
<rect x="-13" y="-15" width="146" height="146" fill="#285977"/>
<path d="M18.6371 61.3724C20.5703 48.3256 27.5204 38.6754 38.7994 32.1386C47.0615 27.3511 55.966 25.2044 65.5197 27.0141C73.5764 28.6068 80.8287 32.9511 86.0344 39.303C91.2402 45.6549 94.0754 53.6192 94.0546 61.8318C94.116 71.2734 90.4988 80.3679 83.9696 87.1882C83.6061 87.5806 82.8487 87.9444 83.6605 88.6153C81.5991 92.0384 78.4333 93.6886 74.6 94.2926C68.0072 95.1712 61.3283 95.1917 54.7302 94.3537C50.3267 93.8646 45.957 93.1077 41.6456 92.0871C36.3946 91.0596 31.3451 89.187 26.6939 86.5423C25.429 85.877 24.3864 84.8559 23.6949 83.605C22.7266 81.9573 21.7472 80.3159 20.7966 78.6591C20.4158 78.0951 20.175 77.4484 20.0942 76.7726C19.5431 74.8697 19.1456 72.9255 18.9054 70.959C18.8385 70.3237 18.4765 69.5993 19.2298 69.0883C19.8404 69.6366 20.5553 70.0561 21.3318 70.3217C22.1084 70.5872 22.9305 70.6934 23.749 70.6337C23.9776 70.6336 24.205 70.667 24.424 70.7328C31.1958 72.29 38.0941 73.1389 44.9329 74.3004C52.7224 75.6237 60.5099 76.9786 68.3096 78.2446C68.9194 78.4027 69.5668 78.3183 70.1156 78.0091C70.6645 77.6999 71.0722 77.19 71.2531 76.5865C72.7054 73.4422 73.4219 70.0081 73.3484 66.5454C73.2748 63.0826 72.413 59.6821 70.8284 56.6023C67.1149 48.8529 60.6864 44.1665 52.5581 42.1282C39.4495 38.8423 25.7224 45.2744 21.1148 57.5168C20.5965 59.2017 20.1885 60.9186 19.8935 62.6566C19.8727 63.4024 19.5664 64.1118 19.0378 64.6383C18.2222 64.3854 18.5545 63.7604 18.6088 63.2495C18.7323 62.0925 19.2703 61.0437 19.4313 59.986C19.0262 60.2839 19.6246 61.312 18.6371 61.3724Z" fill="#679A71"/>
<path d="M23.3526 84.4363C30.3685 90.5065 39.1207 92.0764 47.798 93.7143C55.8675 95.3416 64.1362 95.7427 72.3253 94.904C76.2915 94.4572 80.101 93.5999 82.4349 89.8469C82.6444 89.5098 82.9784 89.4733 83.3202 89.4496C84.7607 90.8146 85.0068 91.9645 84.1476 93.6375C83.8941 94.1315 83.4368 94.5453 83.9488 95.1199C83.7744 96.2784 84.0363 97.4604 84.6838 98.4368C85.7684 100.256 85.6294 100.818 83.9537 102.273C83.7507 102.43 83.4961 102.506 83.2399 102.486C83.0092 102.383 82.8052 102.229 82.6435 102.034C81.8277 101.2 80.8431 101.523 79.9135 101.68C74.9459 102.625 70.1254 104.224 65.578 106.436C64.3186 107.094 62.9772 107.582 61.5892 107.887C60.4733 108.107 59.3471 108.271 58.2147 108.377C53.5293 108.788 48.8193 108.836 44.1265 108.522C43.5593 108.563 42.9919 108.444 42.4893 108.178C42.3943 108.078 42.3267 107.955 42.293 107.822C42.2593 107.688 42.2606 107.548 42.297 107.415C43.0782 105.855 44.0797 104.407 44.1508 102.539C44.289 98.881 41.973 95.6491 38.8164 95.2614C37.0506 95.0705 35.2766 95.5384 33.8346 96.5752C32.3926 97.612 31.3842 99.1448 31.0029 100.879C30.644 102.43 31.0089 103.927 30.9451 105.449C30.8786 105.618 30.7541 105.759 30.5937 105.846C27.7183 105.704 25.3712 104.223 22.9825 102.845C22.2598 102.341 21.6746 101.664 21.2802 100.876C21.1751 100.093 20.887 99.346 20.4391 98.6952C19.9912 98.0445 19.3963 97.5085 18.7025 97.1307C17.3802 95.1447 17.6331 93.0693 19.4335 91.7605C20.4484 91.0558 21.2985 90.1394 21.9252 89.0745C22.5518 88.0096 22.9402 86.8216 23.0635 85.5922C23.1344 85.2009 23.231 84.8148 23.3526 84.4363Z" fill="#1F4A29"/>
<path d="M86.0252 95.8748C90.4866 96.7756 93.7817 98.9935 95.511 103.458C97.0131 107.335 96.9854 111.243 96.4931 115.213C95.3718 124.251 94.8924 133.323 94.6524 142.414C94.0925 142.976 93.6589 143.651 93.3805 144.393C93.0061 145.399 92.3381 146.269 91.4631 146.89C90.5881 147.512 89.5465 147.856 88.4735 147.879C87.3708 147.85 87.3894 147.038 87.3441 146.32C87.2787 144.271 87.4206 142.221 87.7675 140.2C89.2206 129.877 88.3465 119.654 86.708 109.449C86.5916 108.718 86.4197 107.996 86.1938 107.291C85.6335 105.555 85.4332 104.035 86.9781 102.494C88.2126 101.261 87.5721 99.6275 86.8545 98.1868C86.4897 97.4559 85.7085 96.8588 86.0252 95.8748Z" fill="#3A8B2E"/>
<path d="M-1.73209 144.884C-1.47113 144.014 -1.50545 143.083 -1.82969 142.234C-2.32181 140.775 -2.43091 139.213 -2.14655 137.698C-0.541885 127.105 3.52639 117.035 9.73111 108.3C11.4966 105.767 13.1025 103.023 15.7576 101.214C16.1433 101.909 15.806 102.562 15.5933 103.185C13.1475 110.346 11.369 117.7 9.36167 124.986C7.97381 130.27 7.0607 135.668 6.63323 141.114C6.41104 143.551 5.74823 145.926 5.71724 148.387C5.73812 148.529 5.72966 148.674 5.69237 148.814C5.65507 148.953 5.58973 149.083 5.50035 149.196C5.41097 149.309 5.29945 149.402 5.17263 149.47C5.0458 149.539 4.90636 149.58 4.76285 149.593C3.40468 149.323 2.12101 148.762 0.999915 147.949C-0.121182 147.137 -1.05317 146.091 -1.73209 144.884Z" fill="#679A71"/>
<path d="M4.33985 149.19C5.63447 149.526 5.20536 148.444 5.26148 147.95C6.07287 140.8 6.7117 133.613 8.44603 126.617C9.77901 121.244 11.238 115.901 12.8231 110.588C13.7552 107.446 14.7027 104.316 15.7582 101.212L16.0937 100.969C17.154 100.651 17.4285 101.616 17.9875 102.122C20.3293 106.628 21.1386 111.555 21.8122 116.502C21.9656 117.401 22.0186 118.313 21.9703 119.224C21.5373 120.777 21.1863 122.353 20.9187 123.943C20.8538 124.611 20.606 125.249 20.2026 125.785C19.9392 125.94 19.6412 126.025 19.3361 126.034C19.0309 126.042 18.7285 125.974 18.4568 125.835C18.2863 125.756 18.1334 125.643 18.0073 125.503C17.8397 124.49 18.0219 123.449 18.5241 122.553C19.5599 119.787 19.0595 117.093 18.4217 114.016C16.8459 117.57 15.6101 121.265 14.7308 125.052C14.0358 125.895 13.5538 126.893 13.3256 127.961C12.5793 129.886 11.7055 131.776 11.718 133.905C11.8371 134.122 11.875 134.374 11.8251 134.617C11.1402 135.383 11.2909 136.433 10.9155 137.306C10.7318 137.494 10.5047 137.629 10.3251 137.822C9.92397 141.087 9.18009 144.295 8.82709 147.56C8.85068 148.1 8.72966 148.636 8.47655 149.113C8.22345 149.591 7.84745 149.992 7.38745 150.275C6.69201 150.443 5.9628 150.405 5.28853 150.166C4.83703 149.972 4.2538 149.905 4.33985 149.19Z" fill="#54765E"/>
<path d="M86.0159 95.898C86.4163 96.9679 87.2835 97.7605 87.6812 98.853C88.4676 101.004 88.2266 102.335 86.4755 103.823C86.2613 103.95 86.1003 104.151 86.022 104.387C85.9437 104.624 85.9534 104.88 86.0493 105.11C87.6431 109.996 87.8863 115.11 88.5544 120.151C89.177 126.106 89.1633 132.111 88.5135 138.063C88.3051 140.645 87.9459 143.226 87.768 145.813C87.6433 147.617 87.7753 147.736 89.4244 147.252C91.2731 146.705 93.0168 146.102 93.0845 143.674C93.1097 142.832 93.7872 142.428 94.6429 142.435L94.9205 142.851C94.9305 143.982 94.7027 145.096 94.6936 146.229C94.6852 146.77 94.5382 147.3 94.2668 147.768C93.9953 148.236 93.6084 148.626 93.143 148.902C92.475 149.403 91.6401 149.419 90.886 149.684C89.1585 149.929 87.4894 150.819 85.6764 150.168C85.1042 149.307 84.8554 148.271 84.9742 147.245C84.9888 142.404 85.3895 137.584 85.7232 132.762C86.218 124.114 85.4954 115.439 83.5764 106.992C83.4917 106.653 83.4512 106.305 83.4559 105.955C83.8941 104.897 83.2206 103.772 83.6441 102.711L84.0361 102.445C86.3393 101.219 86.4764 100.772 85.0015 98.7022C84.2518 97.6508 84.0205 96.6805 85.02 95.6747L86.0159 95.898Z" fill="#346D30"/>
<path d="M78.342 11.2279C76.9516 14.6846 74.5977 17.6691 71.5601 19.8265C68.8664 21.5314 65.9778 22.9067 62.9561 23.9227C62.6303 24.1007 62.2551 24.1672 61.8879 24.112C61.5207 24.0567 61.1817 23.8827 60.9227 23.6167C60.664 23.3453 60.5068 22.9928 60.4779 22.619C60.4489 22.2451 60.5499 21.8727 60.7638 21.5647C63.0843 17.2902 66.6508 13.8232 70.9891 11.6244C72.7904 10.6473 74.6893 9.86186 76.6545 9.28101C77.9359 8.9122 78.6649 9.64674 78.342 11.2279Z" fill="#3A8B2D"/>
<path d="M58.2003 22.6667C57.9437 23.9424 57.1311 24.3389 55.9349 23.6582C54.4382 22.8165 53.1687 21.6233 52.236 20.1814C49.9762 16.5937 48.8331 12.4155 48.9518 8.17702C48.9352 7.80431 49.0323 7.43536 49.2302 7.11909C49.4281 6.80283 49.7174 6.55419 50.0599 6.40615C50.7552 6.07338 51.1827 6.59556 51.7096 6.95188C56.323 10.0712 58.6942 19.5411 58.2003 22.6667Z" fill="#3B8B2E"/>
<path d="M18.3478 62.0882C19.1076 61.6866 18.6365 60.6851 19.2607 60.1759C19.3979 61.9451 18.2398 63.5383 18.7502 65.3073C19.1601 65.9798 19.3925 66.7453 19.4257 67.5322C19.4589 68.319 19.2917 69.1014 18.9398 69.8059C18.5834 71.7025 19.1272 73.5066 19.4681 75.3322C19.6008 76.0448 20.0297 76.7132 19.7986 77.4826C17.9362 72.5757 17.4349 67.2566 18.3478 62.0882Z" fill="#6B9E76"/>
<path d="M17.8033 101.972C17.2068 101.61 17.0522 100.735 16.2307 100.633C16.8597 99.5063 17.6772 98.4959 18.6477 97.6456C19.2218 97.8529 19.7203 98.2281 20.0784 98.7225C20.4365 99.2168 20.6375 99.8075 20.6554 100.418C19.8771 101.25 18.6932 101.34 17.8033 101.972Z" fill="#355D2A"/>
<path d="M84.9591 95.4063C84.7361 95.9433 84.6671 96.5319 84.76 97.1059C84.8529 97.6799 85.104 98.2167 85.4851 98.6559C87.0425 100.541 86.5348 101.554 83.9754 102.179C85.7628 100.566 85.7313 100.582 84.5233 98.4043C83.9656 97.3981 83.1976 96.3307 84.3304 95.19L84.9591 95.4063Z" fill="#24452E"/>
<path d="M20.5465 100.431C20.0684 99.4036 19.4288 98.4595 18.6521 97.6345C18.6183 97.5292 18.6106 97.4173 18.6296 97.3084C19.479 97.4446 20.2452 97.8977 20.7737 98.5763C21.3023 99.255 21.554 100.109 21.478 100.966C20.9198 101.218 20.6741 100.927 20.5465 100.431Z" fill="#22482B"/>
<path d="M19.0392 69.5602L18.8518 65.0561C19.4353 60.8623 20.3431 56.7736 22.7803 53.1918C25.115 49.5908 28.3064 46.6252 32.0687 44.5605C35.8309 42.4958 40.0465 41.3964 44.338 41.3609C55.157 40.9866 63.8628 45.3409 69.726 54.483C74.3861 61.7498 74.9389 69.5887 71.3877 77.5987C71.2953 77.9095 71.1417 78.1987 70.9361 78.4495C70.7304 78.7002 70.4769 78.9074 70.1902 79.0589C69.9035 79.2105 69.5894 79.3033 69.2664 79.3319C68.9434 79.3606 68.6179 79.3245 68.309 79.2258C61.7115 78.0195 55.1072 76.8353 48.4828 75.7864C40.1771 74.4701 31.8704 73.1535 23.6024 71.6131C22.8811 71.4791 22.1355 71.4745 21.4011 71.4129C20.8565 71.4145 20.3272 71.2325 19.8987 70.8964C19.4701 70.5603 19.1673 70.0896 19.0392 69.5602Z" fill="#1F4A29"/>
<path d="M82.3681 56.9559C83.9813 56.4094 85.6264 56.785 87.2266 56.9354C88.5632 57.0548 88.9549 58.0899 88.463 59.3343C88.0588 60.3884 87.6021 61.4216 87.0946 62.4301C86.7138 63.1671 86.9538 63.3687 87.6624 63.5795C89.9198 64.2521 90.1754 64.858 89.276 66.9882C88.4645 68.9112 87.6693 70.8419 86.8668 72.7696C86.7682 72.9121 86.5839 73.1148 86.4829 73.0578C85.1123 72.2884 83.6073 72.7006 82.1698 72.5426C82.0017 72.4955 81.8394 72.4299 81.6858 72.347C81.3579 72.2048 81.0723 71.9804 80.8566 71.6954C80.6408 71.4104 80.5024 71.0745 80.4545 70.7203C80.4685 69.5914 81.2258 68.7552 81.6298 67.7795C82.3361 66.0739 82.2256 65.7229 80.6018 64.9849C80.2373 64.8193 79.86 64.6852 79.8218 64.206C80.3325 63.7026 80.8016 64.1834 81.3131 64.2067C81.0436 64.199 80.7789 64.1325 80.5378 64.0118C80.2967 63.8911 80.0849 63.7191 79.9172 63.5079C79.8205 63.2737 79.7865 63.0183 79.8186 62.767C79.8539 62.5163 79.9283 62.2727 80.0391 62.045C80.3875 61.4071 80.7643 60.7839 81.0916 60.1341C81.3354 59.6486 81.5499 59.149 81.7339 58.6378C82.0836 58.1298 81.9961 57.4549 82.3681 56.9559Z" fill="#1F4A29"/>
<path d="M82.3453 74.7004C80.8215 75.3108 79.1539 75.4681 77.5429 75.1534C75.7479 74.8391 74.993 73.6109 75.2472 71.81C75.3887 71.0271 75.6623 70.274 76.0564 69.5829C76.5664 68.5875 77.011 67.6605 76.2062 66.5826C75.8369 66.0872 76.0791 65.4451 76.2691 64.932C76.9546 62.712 78.0407 60.6362 79.4738 58.8075C80.0615 59.6165 79.4768 60.2949 79.1984 60.9838C78.8441 61.8609 78.308 62.6538 77.9392 63.524C77.6523 64.0898 77.2844 64.64 77.6241 65.3155C77.7036 65.464 77.8166 65.592 77.9541 65.6893C80.1209 66.8344 80.1209 66.8344 79.0523 69.1324C78.9352 69.3849 78.8371 69.6462 78.7159 69.8982C77.2615 73.231 77.2634 73.2264 80.7102 73.9395C81.0213 73.9424 81.3281 74.0118 81.6101 74.1431C81.8921 74.2743 82.1427 74.4643 82.3453 74.7004Z" fill="#54765D"/>
<path d="M77.531 63.6159C77.8172 61.8559 79.3228 60.5854 79.4772 58.7722C80.2229 57.8342 80.6038 56.3336 82.3363 56.9625C82.481 57.5947 82.7432 58.2593 81.8827 58.6192C80.8868 59.7936 80.0734 61.1113 79.4698 62.5279C79.1087 63.0247 78.9527 63.6413 79.0339 64.25C79.1222 64.4383 79.2544 64.6027 79.4194 64.7293C79.5514 64.8031 79.6815 64.8816 79.8079 64.9531C80.3881 65.2307 81.1392 65.2031 81.4736 65.9023C81.2513 67.8047 80.4155 69.583 79.0925 70.9682C78.725 70.8822 78.8933 70.5404 78.7883 70.3276C78.753 70.5031 78.8108 70.6937 78.7141 70.8584C78.5499 71.1393 78.3489 71.2631 78.0741 70.9795C78.0466 70.5257 78.1739 70.0759 78.4353 69.7039C78.5246 69.3787 78.5885 69.0443 78.7051 68.7344C79.0865 67.7183 80.8953 66.2499 77.887 66.3546C77.7737 66.3395 77.6647 66.3013 77.5667 66.2425C77.4687 66.1836 77.3838 66.1053 77.3171 66.0124C77.2505 65.9196 77.2036 65.814 77.1793 65.7023C77.1549 65.5906 77.1537 65.4751 77.1757 65.363C77.0677 64.7566 77.1948 64.1319 77.531 63.6159Z" fill="#234A2E"/>
<path d="M78.4201 69.8271L78.1593 71.1907C78.4366 71.5347 78.4941 72.0411 78.9511 72.2527C79.6811 72.8074 80.5911 73.0713 81.5046 72.9932C81.9949 72.9756 82.0456 72.7221 82.0079 72.3456C83.6334 72.3239 85.3095 71.8967 86.8202 72.8931C86.7829 73.2304 86.6697 73.5549 86.4891 73.8422C86.3085 74.1295 86.0652 74.3721 85.7774 74.5519C85.4896 74.7318 85.1649 74.844 84.8275 74.8804C84.4901 74.9168 84.1489 74.8762 83.8294 74.7618C83.3313 74.7142 82.8296 74.7209 82.333 74.7817C81.2727 74.6165 80.2207 74.4039 79.1503 74.2983C77.2765 74.115 76.7136 73.2954 77.5186 71.6071C77.8 71.0122 77.7958 70.2458 78.4201 69.8271Z" fill="#254630"/>
<path d="M61.9037 107.735C65.3653 106.346 68.8093 104.917 72.2926 103.581C75.1541 102.488 78.1355 101.74 81.174 101.352C81.9233 101.252 82.9555 100.886 83.1777 102.202C83.2898 102.752 82.8123 102.823 82.5012 103.001C80.803 103.976 80.7908 104.009 81.8587 105.787C81.0292 106.962 79.656 107.064 78.4463 107.42C71.1002 109.483 64.1391 112.728 57.8363 117.028C55.4209 118.734 53.1713 120.664 51.1174 122.791C50.7251 123.193 50.4314 123.712 49.8199 123.848C48.9 123.952 47.9719 123.742 47.186 123.253C46.6656 121.802 47.8589 120.886 48.3398 119.773C49.0677 118.512 49.8703 117.296 50.743 116.131C50.9245 115.751 51.1646 115.401 51.4545 115.096C52.2762 114.247 53.1275 113.429 54.0082 112.641C56.5611 110.879 59.2066 109.264 61.9037 107.735Z" fill="#345B2A"/>
<path d="M30.8648 105.546C29.1865 100.09 32.4644 95.2253 37.9765 94.9911C41.524 94.8411 44.8877 98.3227 44.7363 102.018C44.7823 103.029 44.6197 104.039 44.2586 104.985C43.8975 105.931 43.3456 106.792 42.6373 107.515C41.1187 108.73 39.2052 109.342 37.2634 109.234C35.3215 109.126 33.4877 108.306 32.1131 106.93C31.6475 106.516 31.2289 106.051 30.8648 105.546Z" fill="#3A8B2D"/>
<path d="M23.011 102.662C25.4229 104.112 28.0242 105.22 30.7405 105.955C31.513 105.943 31.7381 106.633 32.1178 107.084C33.0366 108.371 34.4021 109.269 35.9475 109.603C37.493 109.937 39.1074 109.683 40.4757 108.89C41.1159 108.582 41.6628 107.975 42.4891 108.21C47.4791 108.612 52.4934 108.611 57.4832 108.207C57.8183 108.201 58.1534 108.216 58.4867 108.251C58.0947 109.696 56.5871 109.896 55.6827 110.773C55.0041 111.152 54.2622 111.405 53.4932 111.518C50.609 111.72 47.7117 111.626 44.8466 111.238C43.4013 110.961 41.9101 111.047 40.5057 111.486C39.432 111.867 38.29 112.017 37.1542 111.927C36.8035 111.898 36.4712 111.758 36.2044 111.528C35.7174 111.177 35.2994 110.6 34.5738 111.098C34.3276 111.293 34.1423 111.554 34.0401 111.851C33.9378 112.147 33.9228 112.467 33.9968 112.772C34.0607 113.794 34.3301 114.793 34.7891 115.709C35.248 116.625 35.887 117.439 36.6678 118.102C36.7107 118.173 36.7364 118.254 36.7428 118.337C36.7492 118.42 36.7362 118.504 36.7047 118.581C35.2906 119.412 34.2563 119.174 33.3565 117.71C32.5298 116.228 31.9816 114.607 31.7391 112.928C31.754 112.47 31.9369 112.035 32.2529 111.704C32.6137 111.137 32.8173 110.553 32.2994 109.987C31.7814 109.422 31.1631 109.663 30.5631 109.88C29.6117 110.267 28.7635 110.87 28.0859 111.641C27.669 112.073 27.364 112.708 26.604 112.64C24.8844 110.618 25.0609 109.767 27.6731 107.944C26.1072 107.345 24.6408 106.69 23.1875 106.003C22.7299 105.318 22.4667 104.522 22.4261 103.699C22.3415 103.262 22.2025 102.651 23.011 102.662Z" fill="#54765E"/>
<path d="M22.8507 102.667C22.1809 103.858 23.1529 104.855 23.2372 105.957C23.4769 106.115 23.644 106.362 23.7021 106.643C24.4135 110.598 24.934 114.566 24.0533 118.571C23.4448 119.058 22.8202 118.815 22.196 118.612L21.8412 118.545C21.5363 116.547 21.2656 114.545 20.9188 112.555C20.3848 108.92 19.3233 105.383 17.7677 102.055C18.2381 100.749 19.5344 100.926 20.5083 100.525L21.4394 101.061L22.8507 102.667Z" fill="#366228"/>
<path d="M42.5082 108.195C41.4134 108.878 40.2483 109.441 39.033 109.875C37.6783 110.29 36.2245 110.248 34.8961 109.755C33.5676 109.262 32.4384 108.345 31.6827 107.146C31.3949 106.732 31.0699 106.343 30.7662 105.945L30.8482 105.606C31.6795 105.662 32.0907 106.345 32.5969 106.841C34.8192 109.018 37.4024 109.287 40.2311 108.383C41.0325 108.126 41.829 107.842 42.6253 107.577L42.5082 108.195Z" fill="#336E31"/>
<path d="M55.7616 110.447L58.6351 108.222L61.8525 107.731C62.1187 108.244 61.6427 108.25 61.3906 108.407L54.2057 112.896C53.3107 112.498 53.9641 112.069 54.2426 111.775C54.7013 111.283 55.3167 110.955 55.7616 110.447Z" fill="#608F6A"/>
<path d="M81.927 105.674C80.7215 105.601 80.8789 104.494 80.6867 103.811C80.517 103.203 81.302 103.033 81.8036 102.814C82.3051 102.595 82.7894 102.333 83.2814 102.089L83.5587 102.5C83.7223 103.537 84.4372 104.562 83.635 105.624C83.0775 106.065 82.5151 106.298 81.927 105.674Z" fill="#33542C"/>
<path d="M18.2069 125.306C17.0524 125.394 15.8915 125.27 14.7816 124.94C14.6509 124.767 14.5676 124.564 14.5398 124.349C14.5121 124.135 14.5408 123.917 14.6233 123.716C15.5486 120.47 16.6652 117.281 17.9672 114.167C18.1923 113.728 18.4423 113.303 18.7161 112.892C20.1866 116.936 20.0036 121.396 18.2069 125.306Z" fill="#669A72"/>
<path d="M67.907 165.313L67.7411 165.275L67.5728 165.246C64.4507 160.846 64.7189 155.879 65.145 150.876C65.3891 148.011 65.5734 145.139 65.785 142.271C65.6739 141.054 66.2851 139.853 65.8608 138.635C65.826 138.085 65.9149 137.535 66.1211 137.024C66.4772 136.429 66.6374 135.737 66.5792 135.047C66.5847 134.859 66.6106 134.674 66.6565 134.492C67.3049 132.141 67.7613 129.741 68.0212 127.316C68.428 125.027 69.0915 122.791 69.9991 120.65C71.0329 117.646 71.8536 114.574 73.0905 111.64C73.2946 111.228 73.5334 110.834 73.8045 110.463C74.6906 109.661 75.796 109.142 76.9789 108.973C79.3107 108.385 81.5244 107.455 83.8264 106.792C85.55 113.68 86.3753 120.763 86.2818 127.863C86.1479 134.423 85.6449 140.974 85.3245 147.531C85.2728 148.501 85.4571 149.469 85.8616 150.352C85.9304 150.525 85.9696 150.708 85.9775 150.893C85.9371 154.454 85.4528 157.996 84.5358 161.437C84.4928 161.619 84.3912 161.781 84.2465 161.899C83.7621 164.091 81.9188 165.218 80.503 166.68C78.5136 166.172 76.4692 166.56 74.4525 166.295C72.7145 166.211 70.9984 165.871 69.359 165.288C69.1394 165.154 68.8864 165.086 68.6294 165.09C68.3724 165.095 68.1219 165.172 67.907 165.313Z" fill="#679A71"/>
<path d="M73.4398 111.166C72.2074 114.982 71.168 118.876 69.6862 122.591C68.4426 125.704 68.3863 128.994 67.6128 132.163C67.4366 133.11 67.1404 134.03 66.7315 134.902C66.1442 134.983 65.5465 134.938 64.9774 134.772C64.4084 134.606 63.881 134.321 63.4296 133.937L53.7114 131.995C54.1952 131.081 54.9911 131.497 55.6485 131.605C57.6647 131.938 59.6637 132.374 61.6724 132.752C62.4932 132.907 63.141 132.806 63.3452 131.829C64.5363 126.115 64.9625 120.276 66.3578 114.781C66.0524 114.418 65.8794 114.398 65.7275 114.472C61.145 116.73 56.4881 118.865 52.732 122.465C52.1477 123.092 51.4161 123.563 50.6036 123.836C50.5108 123.851 50.4157 123.844 50.326 123.816C50.2362 123.787 50.1545 123.738 50.0872 123.672C51.7308 121.006 54.2585 119.221 56.6813 117.418C62.975 112.864 70.0202 109.452 77.4953 107.337C78.9534 106.899 80.377 106.344 81.816 105.847L83.5244 105.796L83.7157 106.54C81.3704 108.408 78.3237 108.407 75.7017 109.558C75.1349 109.808 74.5402 109.996 73.9586 110.213C72.2832 111.116 70.4381 111.617 68.9493 112.339C70.3275 112.008 71.6881 110.899 73.3891 110.768C73.4235 110.765 73.4695 110.836 73.4991 110.88C73.5596 110.97 73.5355 111.067 73.4398 111.166Z" fill="#54765E"/>
<path d="M63.2468 75.8292C55.1747 74.1856 47.0256 73.0503 38.9185 71.6374C37.075 71.3154 35.2183 71.0657 33.3675 70.7827C31.7948 70.6271 30.2346 70.3635 28.6979 69.9941C27.7189 69.8358 27.4195 69.154 27.4826 68.2638C27.5759 67.2493 27.7502 66.2439 28.0039 65.2571C28.7011 62.2849 29.4257 59.3194 30.3802 56.4177C30.5639 55.7018 30.913 55.039 31.3994 54.4826C32.1684 53.8819 32.9049 54.352 33.6565 54.55C36.1388 55.2024 38.6247 55.9048 41.129 54.6344C41.2795 54.5537 41.4446 54.5035 41.6146 54.4867C41.7846 54.4698 41.9562 54.4866 42.1197 54.5362C42.2832 54.5857 42.4353 54.667 42.5674 54.7753C42.6994 54.8837 42.8089 55.017 42.8894 55.1677C43.3328 55.7621 43.9028 56.2504 44.5583 56.5973C45.2137 56.9442 45.9381 57.141 46.679 57.1733C49.0446 57.4101 51.4168 57.5697 53.7958 57.6522C54.2185 57.7065 54.648 57.6677 55.0542 57.5385C55.4603 57.4094 55.8333 57.193 56.1471 56.9046C56.775 56.3276 57.2707 55.6217 57.6001 54.8352C57.821 54.3205 58.0387 53.6642 58.7303 53.7571C59.402 53.8483 59.4379 54.5682 59.5947 55.0878C59.9531 56.2669 59.9536 57.5764 60.8858 58.5419C61.9021 59.7076 63.3694 59.6985 64.7116 60.0176C65.7285 60.258 66.8568 60.2577 67.5279 61.2795C67.84 61.9548 67.9793 62.6971 67.9333 63.4396C68.1633 67.0775 67.9522 70.73 67.3047 74.3172C67.2617 75.0037 66.9902 75.656 66.5334 76.1702C65.4053 76.3702 64.3719 75.6604 63.2468 75.8292Z" fill="#F8CCAD"/>
<path d="M33.9192 46.7321C42.7766 41.7979 55.3556 43.458 63.1425 50.586C63.519 50.9301 63.9145 51.2538 64.3 51.5864C64.5077 51.7245 64.6831 51.9058 64.8144 52.1178C65.209 53.4022 65.939 54.5557 66.3147 55.8388C66.4606 56.3292 67.0249 57.2496 65.724 57.2395C64.3146 56.147 63.5434 54.5002 62.2477 53.2972C56.0793 47.5878 48.7848 45.5519 40.5455 46.4444C38.6717 46.6483 36.8774 47.2133 35.0366 47.5622C34.8518 47.5715 34.6666 47.553 34.4872 47.5074C34.1503 47.3561 33.7639 47.2421 33.9192 46.7321Z" fill="#669A72"/>
<path d="M66.1964 57.2956C66.5218 56.3485 65.9455 55.6368 65.5969 54.8445C65.0953 54.0312 64.7964 53.1093 64.7255 52.1563C65.9257 52.2314 66.3496 53.2752 66.9308 54.0364C69.0503 56.774 70.4109 60.0219 70.8756 63.4528C70.8685 64.6338 70.9922 65.812 71.2444 66.9657C71.4133 69.559 71.1223 72.1617 70.3849 74.6536C69.7107 77.0484 68.9882 77.3098 66.6876 76.1915C67.7675 71.3213 68.0402 66.3067 67.4948 61.3481C67.3394 61.0225 67.2075 60.6863 67.1 60.3419C66.9797 59.7038 66.746 59.0925 66.4099 58.5369C66.2391 58.1401 65.8523 57.7789 66.1964 57.2956Z" fill="#54765E"/>
<path d="M31.7148 54.4601C29.7679 58.9583 28.9168 63.745 27.9898 68.514C27.8168 69.404 28.0505 69.8587 29.0356 69.9913C30.4859 70.1869 31.9168 70.532 33.3561 70.8137C32.4375 71.2321 31.5847 70.7322 30.7202 70.5868C28.7799 70.2612 26.8556 69.8397 24.9215 69.4562C24.5245 67.9757 24.5715 66.4112 25.0566 64.9572C26.0856 61.1505 26.8708 57.2636 28.6769 53.6824C29.4435 52.1586 30.3396 50.7389 31.2016 49.2861C32.0234 48.4748 32.5417 47.1625 34.0805 47.521C34.4111 48.5713 33.5846 49.1994 33.1266 49.9193C32.7932 50.3757 32.5598 50.8972 32.4415 51.4498C32.3232 52.0025 32.3227 52.5738 32.4401 53.1267C32.4276 53.3892 32.3559 53.6456 32.2303 53.8765C32.1047 54.1074 31.9284 54.3069 31.7148 54.4601Z" fill="#32542E"/>
<path d="M31.6426 49.1687C31.137 50.922 29.8144 52.2255 29.1165 53.9129C27.9641 56.7829 26.9744 59.7156 26.152 62.697C25.5045 64.9484 25.4787 67.2493 24.9219 69.479L22.5329 68.9851C21.8712 66.6357 21.8683 64.1496 22.5244 61.7987C23.4912 57.3978 25.8182 53.4127 29.1758 50.4079C29.8512 49.8039 30.5233 48.984 31.6426 49.1687Z" fill="#356329"/>
<path d="M31.6516 49.1465C27.6953 51.4081 25.521 55.0519 23.7852 59.0972C22.4141 62.2933 22.6899 65.6469 22.5356 68.9625C21.5014 68.9168 21.6092 68.0867 21.5895 67.4575C21.3644 63.8699 22.0656 60.2848 23.6258 57.0464C25.186 53.808 27.5526 51.0252 30.4985 48.9653C31.544 48.1927 32.3285 46.8811 33.8652 46.8656C33.9145 46.9902 33.9976 47.0986 34.1051 47.1787C34.2126 47.2587 34.3403 47.3071 34.4738 47.3186C34.496 47.6188 34.3564 47.7026 34.0894 47.5947C32.9745 47.6393 32.3709 48.4847 31.6516 49.1465Z" fill="#659971"/>
<path d="M70.8831 63.4073C70.109 60.5176 68.9067 57.76 67.316 55.2263C66.5588 54.1057 65.694 53.0616 64.7338 52.109L64.497 51.6779C64.7412 51.4807 65.0296 51.3456 65.3374 51.2841C65.6452 51.2226 65.9633 51.2366 66.2645 51.3249C66.5657 51.4133 66.8411 51.5732 67.067 51.7912C67.2928 52.0091 67.4626 52.2785 67.5616 52.5764C69.2606 56.0033 70.8271 59.475 70.8831 63.4073Z" fill="#24442E"/>
<path d="M66.6759 76.2925C69.513 76.7851 69.0191 77.3082 70.1873 73.9363C70.8753 71.7109 71.227 69.3953 71.2309 67.066C71.9498 70.3321 71.1409 73.4792 70.3252 76.5794C70.0378 77.6723 69.2194 78.5636 67.8213 77.2751C66.6532 76.1992 64.9171 76.4253 63.4664 75.961C64.5652 75.7827 65.597 76.2535 66.6759 76.2925Z" fill="#25452F"/>
<path d="M82.0174 72.2879L82.839 72.8517C81.1417 73.7612 79.7204 73.5417 78.6685 72.2453C78.5932 72.1532 78.5399 72.0452 78.5126 71.9294C78.4853 71.8137 78.4846 71.6933 78.5107 71.5772C78.5368 71.4612 78.589 71.3526 78.6632 71.2597C78.7375 71.1669 78.8319 71.0921 78.9393 71.0411C79.7438 69.3169 80.9135 67.7564 81.2081 65.81C80.6969 65.2735 79.9009 65.5591 79.3404 65.1633L79.0524 64.9391C78.8992 63.9755 78.4778 62.8723 80.1292 62.8159L80.0479 63.5002C80.0977 63.608 80.1165 63.7275 80.1021 63.8454C80.0876 63.9632 80.0405 64.0747 79.9661 64.1672C80.2039 64.2946 80.451 64.4042 80.7051 64.4949C82.6419 65.0401 83.0188 65.8772 82.1544 67.7282C81.6572 68.7935 81.1651 69.862 80.6706 70.9284C80.3781 71.9405 81.184 71.9987 81.796 72.2244C81.8029 72.2461 81.815 72.2659 81.8313 72.2818C81.8477 72.2977 81.8677 72.3093 81.8896 72.3156C81.9115 72.3219 81.9347 72.3227 81.957 72.3179C81.9793 72.313 82 72.3027 82.0174 72.2879Z" fill="#E7EAE8"/>
<path d="M80.1342 62.7575C79.0456 63.0974 79.2829 64.109 79.0583 64.8865L78.7116 64.5566C78.6198 63.8604 78.7726 63.154 79.1438 62.558C79.7573 61.2851 80.3591 60.0064 80.9904 58.7429C81.1993 58.3247 81.5791 58.6205 81.8831 58.6182C81.9237 59.2088 81.7358 59.7924 81.3583 60.2483C80.8659 60.7785 80.508 61.4191 80.3145 62.1163C80.2549 62.3296 80.1948 62.5433 80.1342 62.7575Z" fill="#B9BABC"/>
<path d="M81.7851 72.2803C80.9008 72.2854 79.6125 72.6472 80.6559 70.9829L81.7851 72.2803Z" fill="#1B4422"/>
<path d="M80.314 62.1226C80.0572 61.2552 80.8589 60.8005 81.0971 60.1255C81.1018 60.1113 81.2032 60.1166 81.2477 60.1346C81.2913 60.1679 81.3285 60.2089 81.3574 60.2555C81.1883 60.9621 80.8272 61.6083 80.314 62.1226Z" fill="#CACECC"/>
<path d="M79.9636 64.1489C79.7646 63.8992 79.8896 63.6886 80.0445 63.4816L81.6081 64.3096L81.5714 64.462L79.9636 64.1489Z" fill="#1A4422"/>
<path d="M77.5021 63.6635L77.1453 65.4089C76.9687 65.128 76.9072 64.7898 76.9737 64.4646C77.0401 64.1395 77.2294 63.8526 77.5021 63.6635Z" fill="#294833"/>
<path d="M78.9136 71.0933L78.6428 72.2975C77.4165 72.3963 78.2631 71.5768 78.1457 71.1842C78.5881 71.0556 78.5218 70.5629 78.9147 70.1349L78.9136 71.0933Z" fill="#1C4623"/>
<path d="M79.3321 65.1645C79.948 65.3993 80.7109 65.2222 81.1999 65.8112C80.5737 65.6046 79.8163 65.7786 79.3321 65.1645Z" fill="#2B5637"/>
<path d="M79.1264 62.593L78.698 64.5931C78.5202 64.2632 78.4657 63.8807 78.5442 63.5142C78.6227 63.1478 78.8291 62.8212 79.1264 62.593Z" fill="#294833"/>
<path d="M49.8116 123.919L50.1606 123.987C50.749 123.922 50.7505 124.396 50.8786 124.759C50.8509 125.306 50.6308 125.639 50.0488 125.35C49.8061 125.218 49.5334 125.15 49.257 125.154C48.9806 125.158 48.7098 125.233 48.4708 125.372C48.1443 125.503 47.8381 125.681 47.5613 125.898C47.0656 126.793 46.7549 127.778 46.6477 128.795C45.4291 135.014 44.2297 141.237 42.997 147.454C42.8252 148.32 42.8274 149.286 41.9923 149.89C36.4833 149.455 31.1524 147.991 25.7256 147.085C23.8136 146.767 22.002 146.12 20.14 145.646C18.9709 145.35 19.3628 144.588 19.4936 143.906C20.8217 137.037 22.1577 130.171 23.5018 123.308C23.5778 122.917 23.6557 122.527 23.7194 122.134C23.7648 121.854 23.826 121.451 23.5297 121.376C22.1276 121.015 22.5274 119.796 22.2746 118.889C22.8528 118.427 23.4377 118.859 24.0197 118.876C24.2898 118.718 24.5912 118.619 24.9029 118.588C25.2147 118.557 25.5296 118.594 25.8258 118.696C32.4518 119.989 39.0975 121.18 45.6953 122.615C46.1406 122.71 46.5391 122.957 46.8232 123.313L49.8116 123.919Z" fill="#1F4A29"/>
<path d="M50.9094 124.664L50.3768 123.804C54.8651 119.316 60.4733 116.567 66.0123 113.714C66.7155 113.351 66.9661 113.545 66.845 114.304C66.8275 114.416 66.8101 114.529 66.7839 114.639C65.4592 120.344 64.8498 126.175 63.8027 131.929C63.544 133.352 63.0208 133.678 61.659 133.343C59.5626 132.827 57.4236 132.481 55.2984 132.087C54.7578 131.986 54.2028 131.7 53.648 132.061C53.5382 132.045 53.4273 132.033 53.3177 132.014C50.5511 131.533 50.5534 131.533 50.7123 128.804C50.6961 128.638 50.6547 128.476 50.5896 128.323C50.6657 127.779 50.7446 127.233 50.8262 126.686C50.2268 125.983 51.2077 125.349 50.9094 124.664Z" fill="#679A71"/>
<path d="M51.6285 115.309L51.0929 116.207C49.7656 117.654 48.5953 119.236 47.6017 120.929C47.4006 121.321 47.1934 121.94 46.488 121.612C46.3709 121.322 46.3273 121.007 46.3609 120.696C46.3945 120.385 46.5044 120.088 46.6808 119.829C47.8058 117.544 49.3922 115.516 51.3399 113.874C52.7789 114.079 51.4987 114.84 51.6285 115.309Z" fill="#54765D"/>
<path d="M51.6642 115.25C51.0665 114.81 52.1997 114.287 51.5953 113.848C51.6973 112.405 53.0838 112.032 53.8598 111.153L55.7326 110.476C55.6855 111.594 54.0141 111.681 54.1749 112.93L51.6642 115.25Z" fill="#597F62"/>
<path d="M41.5867 100.807C41.404 101.103 41.1578 101.356 40.8659 101.545C40.574 101.735 40.2437 101.858 39.8986 101.905C38.59 102.231 38.1592 102.916 38.5716 104.22C38.7516 104.789 38.9479 105.64 38.1748 105.83C37.3118 106.041 37.3492 105.115 37.1662 104.559C37.0782 104.294 37.0385 104.01 36.9743 103.713C36.2885 103.528 36.0071 104.179 35.5291 104.401C35.09 104.605 34.6514 105.119 34.201 104.507C33.7768 103.931 34.3267 103.592 34.6411 103.214C34.6754 103.169 34.7168 103.13 34.7637 103.098C36.0972 102.28 36.6819 101.303 35.6118 99.8349C35.5347 99.7478 35.4783 99.6444 35.4467 99.5324C35.4152 99.4204 35.4093 99.3027 35.4296 99.1882C35.4499 99.0736 35.4957 98.9651 35.5638 98.8707C35.6318 98.7763 35.7203 98.6985 35.8226 98.6431C35.8983 98.6006 35.9822 98.5746 36.0687 98.567C36.1552 98.5593 36.2423 98.5702 36.3243 98.5988C36.4062 98.6275 36.4812 98.6732 36.5441 98.7331C36.6071 98.7929 36.6565 98.8654 36.6893 98.9458C37.3229 101.043 38.7813 100.991 40.4735 100.524C40.7516 100.45 41.1107 100.677 41.5867 100.807Z" fill="#FAFCFA"/>
<path d="M53.7282 111.19C53.477 112.511 51.9577 112.767 51.4665 113.886C50.0198 115.759 48.265 117.392 47.1946 119.556C46.8395 120.197 46.597 120.895 46.4777 121.619L45.8397 122.853L24.0879 118.638C24.249 115.541 24.1658 112.437 23.8391 109.353C23.6656 108.237 23.5349 107.116 23.3841 105.997C24.2465 105.55 24.6834 106.414 25.3283 106.636C26.4418 107.017 27.5475 107.425 28.3507 107.714C27.5477 108.276 26.8039 108.919 26.1306 109.632C25.2876 110.682 26.407 111.577 26.6722 112.538C26.6788 114.924 27.2417 115.215 29.4944 114.042C30.2787 113.633 30.8823 112.86 31.8643 112.842C32.7216 113.988 32.6512 115.454 33.2117 116.715C34.0731 118.659 35.0689 119.174 36.6758 118.33C37.1544 117.501 37.4322 116.572 37.4871 115.617C37.542 114.661 37.3725 113.706 36.992 112.828C36.8553 112.475 36.6164 112.113 36.9188 111.72C41.8459 110.008 46.8838 111.201 51.8777 111.187C52.4944 111.185 53.1117 111.189 53.7282 111.19Z" fill="#679A71"/>
<path d="M31.8529 112.846C30.9699 113.742 29.8851 114.413 28.6893 114.804C27.9336 115.003 27.1204 115.742 26.3387 114.869C25.557 113.995 26.3908 113.296 26.663 112.542C27.8583 111.476 28.7662 110.091 30.4001 109.512C31.3154 109.188 32.1025 108.876 32.7843 109.807C33.4525 110.719 32.9837 111.494 32.4209 112.233C32.2422 112.447 32.0526 112.652 31.8529 112.846Z" fill="#3A8B2D"/>
<path d="M36.9378 111.74C37.7637 113.203 38.092 114.896 37.8733 116.562C37.8997 116.947 37.7989 117.33 37.5863 117.652C37.3737 117.975 37.0611 118.218 36.6967 118.345L36.7137 118.26C35.371 116.765 34.5429 114.878 34.3512 112.877C34.2615 111.327 34.9182 110.865 36.3685 111.285L36.9378 111.74Z" fill="#3A8B2D"/>
<path d="M36.3652 111.283C35.109 110.991 34.6632 111.667 34.7276 112.765C34.8559 114.18 35.3475 115.538 36.1549 116.707C36.5041 117.149 36.6977 117.693 36.7057 118.256C34.206 117.156 33.8988 114.875 33.5766 112.555C33.472 112.172 33.5097 111.764 33.683 111.407C33.8562 111.05 34.1531 110.768 34.5185 110.613C35.3878 110.173 35.9017 110.641 36.3652 111.283Z" fill="#336E31"/>
<path d="M81.8814 117.073C81.4729 118.02 81.4581 119.469 79.8411 118.749C78.7112 118.246 77.8678 115.948 78.4169 114.925C78.5528 114.671 78.7299 114.417 79.0606 114.514C79.4365 114.625 79.5383 114.973 79.5762 115.312C79.6616 116.107 79.4682 116.994 80.4014 117.68C80.5178 117.362 80.5786 117.169 80.6589 116.984C80.9468 116.319 80.5818 115.023 82.0297 115.441C82.9097 115.697 83.9104 117.711 83.5666 118.412C83.2986 118.96 82.971 118.853 82.708 118.401C82.4678 117.984 82.4181 117.44 81.8814 117.073Z" fill="#F7FAF8"/>
<path d="M73.4715 111.087C72.3672 110.641 71.6548 111.624 70.7297 111.832C70.0319 111.987 69.4438 112.516 68.6334 112.362C70.32 111.399 72.1208 110.651 73.9936 110.136C73.914 110.504 73.9007 110.911 73.4715 111.087Z" fill="#597F62"/>
<path d="M34.1217 47.515L34.5061 47.2389C34.6109 47.2661 34.7152 47.2953 34.8191 47.3265C35.7594 48.4053 35.0716 49.3257 34.5207 50.2647C33.5152 51.9767 33.5903 52.0976 35.5527 52.5421C37.8203 53.0506 39.8569 52.9459 41.3107 50.7863C41.6427 50.3172 42.0942 49.9455 42.6182 49.7097C42.9253 49.5243 43.2796 49.4321 43.6381 49.4443C43.9966 49.4565 44.3438 49.5725 44.6376 49.7782C44.9314 49.9839 45.1591 50.2706 45.2931 50.6033C45.4271 50.936 45.4617 51.3004 45.3925 51.6524C45.1493 54.0348 45.2058 54.1406 47.514 54.5005C49.4322 54.7579 51.3647 54.8946 53.3 54.9098C53.8155 54.9248 54.325 54.7965 54.7718 54.539C55.2186 54.2815 55.5851 53.9051 55.8306 53.4516C56.629 52.2254 57.6726 51.3776 59.2318 51.6829C59.9084 51.8313 60.5181 52.1967 60.968 52.7235C61.4178 53.2502 61.6834 53.9095 61.7241 54.601C61.7955 55.3755 62.143 56.0984 62.7033 56.6378C63.2635 57.1773 63.9991 57.4972 64.7757 57.5391C65.4065 57.5968 65.9972 57.8737 66.4452 58.3215C66.7021 58.5532 66.8987 58.8439 67.0182 59.1686C67.1377 59.4933 67.1764 59.8421 67.131 60.1851C64.7944 60.3564 62.4616 59.8058 60.4482 58.6078C58.9969 57.3603 59.783 55.2998 58.6666 53.8478C57.8785 54.8722 57.7769 56.3411 56.5842 57.0693C56.0073 57.4445 55.3162 57.6031 54.6334 57.5171C51.3949 56.9637 48.1059 56.7382 44.8785 56.1094C43.4028 55.8216 42.867 54.8653 43.0419 53.0204C42.6493 53.7791 42.0113 54.3824 41.2319 54.732C40.6148 55.036 39.9095 55.1101 39.2427 54.9411C37.4006 54.6153 35.5629 54.2654 33.737 53.8621C33.4537 53.8385 33.1787 53.7551 32.93 53.6174C32.6812 53.4798 32.4645 53.2909 32.2941 53.0634C31.3744 52.0511 31.9231 51.0961 32.444 50.1806C32.9649 49.2651 33.561 48.3983 34.1217 47.515Z" fill="#713427"/>
<path d="M55.8224 72.4197C54.783 72.2391 53.8562 71.6571 53.2421 70.7992C52.628 69.9413 52.3759 68.8764 52.5402 67.8342C52.7403 66.0869 52.8991 64.3457 54.096 62.9396C54.5313 62.3043 55.1449 61.8121 55.8596 61.525C56.5742 61.2379 57.3579 61.1688 58.1117 61.3265C58.8373 61.4824 59.5016 61.8464 60.0234 62.3741C60.5453 62.9018 60.9019 63.5702 61.0497 64.2974C61.3679 65.4442 61.4146 66.6493 61.1861 67.8173C60.9576 68.9852 60.4601 70.0839 59.7332 71.0262C59.3153 71.6454 58.7104 72.1147 58.0067 72.3654C57.3031 72.6161 56.5377 72.6351 55.8224 72.4197Z" fill="#FEFEFE"/>
<path d="M41.4998 64.8081C41.3704 65.4752 41.3067 65.868 41.2151 66.2548C40.7245 68.3312 39.2905 69.6835 37.7125 69.5852C35.1745 69.4227 33.5861 67.9806 33.5076 65.5934C33.3842 63.529 34.0308 61.4922 35.3222 59.8769C35.7337 59.2869 36.3126 58.8337 36.9841 58.5758C37.6556 58.3179 38.3889 58.267 39.0896 58.4298C40.7723 58.8939 41.4471 60.2883 41.6759 61.8842C41.8474 62.8592 41.7871 63.8608 41.4998 64.8081Z" fill="#FEFEFD"/>
<path d="M44.6278 70.3278C42.4523 69.9784 42.0735 69.3703 42.9434 67.4093C43.7005 65.7037 44.5202 64.0245 45.3387 62.3459C45.645 61.7212 46.0558 61.1289 46.9031 61.33C47.2412 61.4095 47.5403 61.6058 47.7476 61.8844C47.9549 62.1629 48.0572 62.5057 48.0364 62.8524C48.1014 64.8876 48.1305 66.9227 48.1237 68.9576C48.1368 69.1731 48.1027 69.3888 48.0239 69.5898C47.945 69.7908 47.8233 69.9721 47.6672 70.1212C47.511 70.2702 47.3242 70.3835 47.1198 70.4529C46.9154 70.5224 46.6984 70.5464 46.4837 70.5233C45.8613 70.5019 45.2411 70.4365 44.6278 70.3278Z" fill="#CF6A43"/>
<path d="M41.523 54.5854L43.7273 51.5933C43.4843 55.3983 43.482 55.4039 47.0849 55.9978C50.2471 56.6246 53.4526 57.0089 56.6734 57.1474C56.4244 57.4979 56.0846 57.7738 55.6905 57.9454C55.2963 58.1171 54.8628 58.1779 54.4367 58.1215C51.729 57.9787 49.0164 57.8481 46.3224 57.5621C45.52 57.557 44.7347 57.3296 44.0538 56.905C43.3729 56.4805 42.8231 55.8754 42.4654 55.1571C42.2054 54.5807 41.8254 54.8726 41.4671 54.9587C41.3737 54.8605 41.3504 54.7713 41.3972 54.691C41.4488 54.6115 41.4914 54.5727 41.523 54.5854Z" fill="#AC9481"/>
<path d="M41.407 54.5709L41.3477 54.9525C38.6128 56.7056 35.884 55.6247 33.1612 54.9269C32.6725 54.8017 32.2024 54.6064 31.7237 54.4432C31.9033 54.0059 32.0833 53.57 32.264 53.1353C34.6999 53.6277 37.1377 54.1154 39.5721 54.6169C40.1761 54.7725 40.8115 54.7565 41.407 54.5709Z" fill="#AB927F"/>
<path d="M60.6272 58.7093L67.3091 60.2862C67.4262 60.4358 67.5024 60.6133 67.5301 60.8013C67.5578 60.9894 67.536 61.1813 67.4669 61.3584C66.2004 60.5156 64.682 60.6085 63.2845 60.2315C62.7598 60.1776 62.2522 60.0143 61.7945 59.7521C61.3368 59.4899 60.9391 59.1347 60.6272 58.7093Z" fill="#A9907E"/>
<path d="M66.4523 58.3039L63.9451 57.8118C63.293 57.7284 62.6884 57.4262 62.2303 56.9547C61.7721 56.4832 61.4875 55.8702 61.4228 55.2159C61.3635 54.3606 61.0623 53.5398 60.5542 52.8492C59.4875 51.632 57.5016 51.5339 56.7588 52.9853C55.6109 55.2287 53.8636 55.6746 51.7106 55.3548C49.9754 55.0981 48.212 55.2236 46.4876 54.7933C44.6506 54.3348 44.1554 53.7561 44.8153 51.9919C45.1658 51.0549 45.0838 50.4491 44.3003 49.9697C43.556 49.5137 42.8916 49.874 42.3027 50.376C42.1707 50.4841 42.0563 50.6122 41.9638 50.7556C40.1075 53.7805 37.386 53.5438 34.4895 52.7952C33.2702 52.4816 32.8483 52.0523 33.6148 50.8359C34.2831 49.7718 35.3327 48.7862 34.8296 47.3005C45.8494 44.0909 55.6638 45.856 63.8157 54.3708C64.5928 55.2691 65.3206 56.2091 65.9957 57.1864L66.4523 58.3039Z" fill="#92301F"/>
<path d="M53.8555 66.8849C54.1153 65.4682 54.8182 64.1705 55.863 63.179C56.057 62.945 56.3086 62.7654 56.5929 62.6579C56.8773 62.5503 57.1847 62.5184 57.4851 62.5654C57.7854 62.6124 58.0684 62.7366 58.3064 62.9259C58.5443 63.1151 58.729 63.3629 58.8423 63.645C59.3626 64.4622 59.6588 65.4019 59.7011 66.3697C59.7434 67.3375 59.5304 68.2994 59.0834 69.1588C58.4952 70.265 57.6918 71.2282 56.2976 70.9259C55.6185 70.8012 55.0039 70.4443 54.5591 69.9163C54.1142 69.3884 53.8668 68.7221 53.8592 68.0318C53.8381 67.6498 53.8369 67.267 53.8555 66.8849Z" fill="#3B8B2E"/>
<path d="M39.6362 65.8035C39.0908 67.3002 38.0438 68.0657 36.4827 67.5676C34.9216 67.0696 34.8119 65.7342 35.0282 64.3419C35.1733 62.9736 35.7729 61.6935 36.7312 60.7061C37.0359 60.362 37.4362 60.1164 37.881 60.0005C38.3257 59.8846 38.7949 59.9037 39.2288 60.0553C39.6343 60.2022 39.971 60.4942 40.1736 60.8749C40.3762 61.2556 40.4304 61.6979 40.3257 62.1163C40.039 63.3357 39.9034 64.5816 39.6362 65.8035Z" fill="#3B8B2E"/>
<path d="M39.6525 65.8111C39.5061 65.1826 39.492 64.5306 39.611 63.8963C39.7301 63.2621 39.9797 62.6595 40.344 62.1269C40.534 63.3978 40.2904 64.6956 39.6525 65.8111Z" fill="#378729"/>
<path d="M40.8143 46.676L44.6151 46.4008L44.6747 46.7872L40.8861 47.1256L40.8143 46.676Z" fill="#903024"/>
</g>
<defs>
<clipPath id="clip0_246_2">
<rect width="114" height="114" fill="white"/>
</clipPath>
</defs>
</svg>
