<svg width="50" height="49" viewBox="0 0 50 49" fill="none" xmlns="http://www.w3.org/2000/svg">
<ellipse cx="25" cy="24.5" rx="25" ry="24.5" fill="url(#paint0_linear_57_68)"/>
<path fill-rule="evenodd" clip-rule="evenodd" d="M24.7026 38.6655C30.6135 38.6655 35.4052 33.8314 35.4052 27.8682C35.4052 21.9049 30.6135 17.0708 24.7026 17.0708C18.7917 17.0708 14 21.9049 14 27.8682C14 33.8314 18.7917 38.6655 24.7026 38.6655ZM26.174 27.9156L28.9593 23.8429L24.8312 26.5909L20.7032 23.8429L23.4885 27.9156L20.7032 31.9884L24.8312 29.2404L28.9593 31.9884L26.174 27.9156Z" fill="white"/>
<path d="M24.7871 14.623C25.1983 13.7675 26.223 12.6655 26.223 12.6655C26.223 12.6655 25.671 13.7699 25.5472 14.5379C25.415 15.3587 25.6317 16.6655 25.6317 16.6655H24.1958C24.1958 16.6655 24.4414 15.3421 24.7871 14.623Z" fill="white"/>
<path d="M24.8808 11.6725C25.0079 12.0452 25.2095 12.6226 25.2095 12.6226C25.2095 12.6226 24.7709 12.7192 24.4973 12.6226C24.0737 12.4732 23.7899 12.3047 23.5111 11.6725C23.235 11.0466 23.1824 9.66673 23.1824 9.66673C23.1824 9.66673 24.0103 9.61473 24.3877 10.1946C24.6662 10.6223 24.6852 11.0991 24.8808 11.6725Z" fill="white"/>
<path d="M27.0808 11.139C26.7658 11.742 26.2231 12.654 26.2231 12.654C26.2231 12.654 27.8402 12.7451 28.7961 12.4148C29.9163 12.0278 30.571 11.6197 31.2911 10.6606C32.0183 9.69191 32.3046 7.7102 32.3046 7.7102C32.3046 7.7102 30.9932 7.56845 30.1995 7.78994C29.2373 8.05847 28.6678 8.37304 28.0164 9.14551C27.465 9.79946 27.4787 10.3773 27.0808 11.139Z" fill="white"/>
<defs>
<linearGradient id="paint0_linear_57_68" x1="25" y1="0" x2="25" y2="49" gradientUnits="userSpaceOnUse">
<stop stop-color="#FCE483"/>
<stop offset="1" stop-color="#FFA653"/>
</linearGradient>
</defs>
</svg>
