<svg width="130" height="59" viewBox="0 0 130 59" fill="none" xmlns="http://www.w3.org/2000/svg">
<path d="M9.23263 31.4758C6.04525 31.4758 3.22156 30.707 0.761564 29.1684C-0.166865 28.4919 -0.228986 27.7636 0.574071 26.9846C1.47765 26.1226 2.48176 26.0718 3.58525 26.8305C5.44324 27.8559 7.35092 28.3691 9.30831 28.3691C10.9652 28.3691 12.2574 28.071 13.1858 27.4766C14.0894 26.9025 14.5412 26.1327 14.5412 25.1691C14.5412 24.2462 14.1278 23.5078 13.2987 22.954C12.7973 22.6051 11.7683 22.1436 10.2119 21.5696C10.1622 21.5492 10.1238 21.5391 10.0989 21.5391L6.25872 20.1851C2.49418 18.8929 0.611345 16.9141 0.611345 14.2476C0.611345 12.4626 1.47087 10.9757 3.18994 9.78595C4.91013 8.59624 7.08663 8.00183 9.72282 8.00183C12.3827 8.00183 14.7546 8.65806 16.8385 9.97053C17.6913 10.5455 17.7545 11.2018 17.026 11.9402C16.223 12.7395 15.3194 12.8216 14.3153 12.1857C12.8854 11.4685 11.3538 11.1095 9.72282 11.1095C8.29178 11.1095 7.15553 11.3707 6.3152 11.894C5.47487 12.4164 5.05357 13.1299 5.05357 14.0316C5.05357 14.8937 5.51779 15.6108 6.44734 16.1858C7.02451 16.5338 8.05346 16.9547 9.5342 17.4466L13.3371 18.7702C15.1443 19.4061 16.4997 20.1546 17.4033 21.0158C18.4571 22.0412 18.9845 23.3333 18.9845 24.8922C18.9845 26.7585 18.1182 28.3073 16.3867 29.5376C14.5536 30.8297 12.1693 31.4758 9.23263 31.4758Z" fill="white"/>
<path d="M26.2798 30.6064C24.8206 30.6064 24.0916 30.0358 24.0916 28.8939V10.5838C24.0916 9.44178 24.8206 8.87124 26.2798 8.87124C27.7389 8.87124 28.4691 9.44178 28.4691 10.5838V28.8939C28.4691 30.0358 27.7389 30.6064 26.2798 30.6064Z" fill="white"/>
<path d="M43.7715 30.6064C42.3326 30.6064 41.6136 30.0358 41.6136 28.8939V11.7355H35.3623C34.1712 11.7355 33.5762 11.2536 33.5762 10.2887C33.5762 9.34343 34.1712 8.87124 35.3623 8.87124H52.2186C53.4097 8.87124 54.0047 9.34343 54.0047 10.2887C54.0047 11.2536 53.4097 11.7355 52.2186 11.7355H45.9304V28.8939C45.9304 30.0358 45.2104 30.6064 43.7715 30.6064Z" fill="white"/>
<path d="M68.0992 31.4758C64.628 31.4758 61.8002 30.4605 59.6156 28.43C57.3339 26.297 56.1936 23.4256 56.1936 19.8159C56.1936 16.2264 57.358 13.3348 59.6888 11.1399C61.9454 9.04755 64.8104 8.00183 68.2805 8.00183C70.6835 8.00183 72.868 8.66821 74.834 10.0019C75.5626 10.576 75.5626 11.2221 74.834 11.9402C74.0334 12.7395 73.1476 12.8013 72.1766 12.1248C71.0363 11.4473 69.7616 11.1095 68.3537 11.1095C66.0239 11.1095 64.142 11.8783 62.71 13.4169C61.254 14.9758 60.5255 17.0673 60.5255 19.6931C60.5255 22.3799 61.218 24.4972 62.6008 26.0459C63.9847 27.5947 65.8655 28.3691 68.2445 28.3691C69.9189 28.3691 71.412 27.938 72.7227 27.0769C73.6937 26.3385 74.5916 26.3791 75.4173 27.1997C76.0967 27.8762 76.0475 28.5435 75.2709 29.1998C73.2809 30.7171 70.8899 31.4758 68.0992 31.4758Z" fill="white"/>
<path d="M110.804 30.6064C109.418 30.6064 108.724 30.0651 108.724 28.9825V10.613C108.724 10.062 108.989 9.62873 109.519 9.31422C109.998 9.01831 110.629 8.87124 111.41 8.87124C112.62 8.87124 113.478 9.21586 113.982 9.90425L122.457 21.629L125.37 26.236H125.558C125.533 25.9604 125.483 25.5272 125.407 24.9363C125.131 22.2589 124.991 20.2797 124.991 19.0004V10.4952C124.991 9.41254 125.684 8.87124 127.072 8.87124C128.459 8.87124 129.153 9.41254 129.153 10.4952V28.8637C129.153 29.4157 128.888 29.848 128.358 30.1634C127.879 30.4585 127.248 30.6064 126.466 30.6064C125.257 30.6064 124.399 30.2618 123.895 29.5725L115.42 17.7893L112.507 13.2417H112.318C112.343 13.5571 112.393 14.0293 112.469 14.6592C112.746 17.2187 112.886 19.1182 112.886 20.3586V28.9825C112.886 30.0651 112.192 30.6064 110.804 30.6064Z" fill="white"/>
<path d="M7.41793 56.9818C5.26026 56.9818 3.50192 56.4079 2.14361 55.26C0.724856 54.0542 0.0151367 52.431 0.0151367 50.3904C0.0151367 48.3613 0.739804 46.7266 2.18844 45.4858C3.59225 44.303 5.37299 43.7118 7.53135 43.7118C9.02549 43.7118 10.3838 44.0885 11.6063 44.8425C12.0593 45.167 12.0593 45.5323 11.6063 45.9382C11.1085 46.39 10.5577 46.425 9.95389 46.0426C9.24418 45.6596 8.45228 45.4686 7.57685 45.4686C6.12753 45.4686 4.95803 45.9032 4.06766 46.773C3.16235 47.6543 2.70935 48.8366 2.70935 50.321C2.70935 51.8398 3.13925 53.0368 3.99974 53.9123C4.86023 54.7878 6.02974 55.2256 7.50894 55.2256C8.55009 55.2256 9.47849 54.9819 10.2935 54.4951C10.8972 54.0777 11.4555 54.1006 11.9683 54.5645C12.3914 54.9469 12.3608 55.3242 11.8779 55.6952C10.6405 56.5529 9.15385 56.9818 7.41793 56.9818Z" fill="white"/>
<path d="M14.5751 56.9814C13.4405 56.9814 13.0519 56.5791 13.4085 55.774L18.3908 44.6169C18.5206 44.3406 18.7393 44.1216 19.047 43.9594C19.3554 43.7972 19.7033 43.7161 20.0926 43.7161H20.7729C21.1616 43.7161 21.5145 43.7972 21.8302 43.9594C22.1459 44.1216 22.361 44.3406 22.474 44.6169L27.4323 55.7199C27.8049 56.5607 27.4002 56.9814 26.2175 56.9814C25.4074 56.9814 24.8883 56.6932 24.6615 56.1163L23.4949 53.1964H17.273L16.0823 56.1525C15.8715 56.7051 15.3692 56.9814 14.5751 56.9814ZM17.9292 51.5565H22.8146L22.1095 49.7721C21.7697 48.9789 21.2994 47.759 20.7 46.1131C20.5702 45.7768 20.4732 45.5243 20.4083 45.3561H20.3114C19.8739 46.6776 19.3226 48.15 18.6584 49.7721L17.9292 51.5565Z" fill="white"/>
<path d="M30.7735 56.9814C29.9958 56.9814 29.6069 56.6689 29.6069 56.0444V44.8873C29.6069 44.5391 29.7415 44.2568 30.0106 44.0405C30.2797 43.8242 30.6316 43.7161 31.0648 43.7161H31.4463C31.7901 43.7161 32.1036 43.794 32.3882 43.9502C32.6721 44.1065 32.8665 44.3168 32.9708 44.5812L35.6175 50.421C35.7521 50.7329 35.9465 51.2136 36.2001 51.8625C36.4248 52.4156 36.5964 52.8298 36.7162 53.1061H36.8285C36.9476 52.8179 37.1198 52.3913 37.3438 51.8268C37.5834 51.2017 37.7704 50.7329 37.9049 50.421L40.5059 44.5812C40.6108 44.3168 40.8053 44.1065 41.0892 43.9502C41.3731 43.794 41.6873 43.7161 42.0311 43.7161H43.2199C43.4291 43.7161 43.5933 43.7642 43.713 43.8599C43.8328 43.9562 43.8926 44.0887 43.8926 44.2568V56.0081C43.8926 56.657 43.489 56.9814 42.6817 56.9814C41.8743 56.9814 41.4707 56.657 41.4707 56.0081V50.421C41.4707 49.6877 41.5749 48.4019 41.7842 46.5635C41.7996 46.4554 41.807 46.3716 41.807 46.3115H41.7169L40.3942 49.3752L37.7926 55.0889C37.6284 55.4977 37.2692 55.7016 36.7162 55.7016H36.6489C36.1557 55.7016 35.8267 55.5156 35.6619 55.143L33.0159 49.3752L31.7154 46.3115H31.6253C31.6407 46.4797 31.6703 46.7501 31.7154 47.1226C31.8648 48.6966 31.9394 49.7959 31.9394 50.421V56.0444C31.9394 56.6689 31.5506 56.9814 30.7735 56.9814Z" fill="white"/>
<path d="M49.2658 56.9814C48.4046 56.9814 47.9744 56.6332 47.9744 55.9362V44.8873C47.9744 44.5391 48.108 44.2568 48.3752 44.0405C48.6425 43.8242 48.9912 43.7161 49.4222 43.7161H52.9405C57.113 43.7161 59.1989 45.0495 59.1989 47.7174C59.1989 49.1108 58.6196 50.1803 57.4617 50.9254C56.378 51.6105 54.9008 51.9528 53.0301 51.9528H50.558V55.9362C50.558 56.6332 50.1271 56.9814 49.2658 56.9814ZM50.558 50.2766H52.7849C54.1064 50.2766 55.0825 50.0695 55.7133 49.6548C56.3446 49.24 56.66 48.5944 56.66 47.7174C56.66 46.876 56.3259 46.2694 55.6578 45.8968C55.0344 45.5605 54.047 45.3923 52.696 45.3923H50.558V50.2766Z" fill="white"/>
<path d="M71.2996 58.0018C70.7157 58.0018 70.4233 57.7704 70.4233 57.3082V57.2469C70.4233 56.8386 70.7157 56.4302 71.2996 56.0224C73.878 54.1716 75.7767 52.5663 76.9971 51.2059C78.2685 49.7635 78.905 48.471 78.905 47.3286C78.905 46.4849 78.6296 45.8182 78.0798 45.3284C77.5129 44.8251 76.7132 44.5735 75.6823 44.5735C74.7202 44.5735 73.7744 44.8931 72.8463 45.5322C72.2454 46.0086 71.6522 46.022 71.0676 45.5733C70.5347 45.1514 70.561 44.7161 71.1449 44.2673C72.6058 43.2198 74.2384 42.6957 76.0435 42.6957C77.7789 42.6957 79.1671 43.1071 80.2066 43.9306C81.246 44.7535 81.7665 45.8451 81.7665 47.2061C81.7665 48.5665 81.113 50.0359 79.8067 51.6143C78.69 52.9612 77.0311 54.471 74.8316 56.1449C75.9832 56.0494 77.0141 56.0016 77.9251 56.0016H81.4053C82.2475 56.0016 82.6682 56.3353 82.6682 57.002C82.6682 57.6688 82.2475 58.0018 81.4053 58.0018H71.2996Z" fill="white"/>
<path d="M92.3617 58.0018C90.3001 58.0018 88.6924 57.3603 87.5412 56.076C86.3331 54.7388 85.7295 52.8129 85.7295 50.2985C85.7295 47.7979 86.3331 45.892 87.5412 44.5812C88.674 43.324 90.2809 42.6957 92.3617 42.6957C94.4242 42.6957 96.0311 43.324 97.1831 44.5812C98.3904 45.9052 98.9948 47.8112 98.9948 50.2985C98.9948 52.8262 98.3904 54.752 97.1831 56.076C96.0495 57.3603 94.4426 58.0018 92.3617 58.0018ZM92.3617 56.1765C94.7402 56.1765 95.9291 54.217 95.9291 50.2985C95.9291 46.4469 94.7402 44.521 92.3617 44.521C89.9841 44.521 88.7952 46.4469 88.7952 50.2985C88.7952 52.3585 89.1296 53.8697 89.7985 54.8326C90.4113 55.7287 91.2657 56.1765 92.3617 56.1765Z" fill="white"/>
<path d="M101.985 58.0018C101.352 58.0018 101.035 57.7704 101.035 57.3082V57.2469C101.035 56.8386 101.352 56.4302 101.985 56.0224C104.778 54.1716 106.835 52.5663 108.157 51.2059C109.534 49.7635 110.224 48.471 110.224 47.3286C110.224 46.4849 109.926 45.8182 109.33 45.3284C108.716 44.8251 107.849 44.5735 106.733 44.5735C105.69 44.5735 104.666 44.8931 103.66 45.5322C103.009 46.0086 102.367 46.022 101.733 45.5733C101.156 45.1514 101.185 44.7161 101.817 44.2673C103.4 43.2198 105.168 42.6957 107.124 42.6957C109.004 42.6957 110.508 43.1071 111.634 43.9306C112.76 44.7535 113.324 45.8451 113.324 47.2061C113.324 48.5665 112.616 50.0359 111.201 51.6143C109.991 52.9612 108.194 54.471 105.811 56.1449C107.059 56.0494 108.175 56.0016 109.162 56.0016H112.933C113.845 56.0016 114.301 56.3353 114.301 57.002C114.301 57.6688 113.845 58.0018 112.933 58.0018H101.985Z" fill="white"/>
<path d="M123.246 58.0018C121.004 58.0018 119.151 57.4939 117.686 56.4774C117.254 56.1428 117.254 55.7552 117.686 55.3141C118.203 54.7658 118.789 54.7123 119.444 55.1534C120.513 55.7956 121.694 56.1163 122.986 56.1163C124.073 56.1163 124.948 55.8955 125.612 55.4543C126.275 55.0132 126.607 54.418 126.607 53.6687C126.607 52.9333 126.331 52.3586 125.779 51.9439C125.176 51.4757 124.202 51.1748 122.858 51.0412C122.426 51.0141 122.021 50.9208 121.642 50.7601C121.194 50.5729 120.969 50.3521 120.969 50.0981C120.969 49.8441 121.185 49.6233 121.616 49.4361C121.978 49.2754 122.366 49.1821 122.78 49.1551C124.9 48.8608 125.961 48.0321 125.961 46.6677C125.961 46.0123 125.698 45.4942 125.172 45.1132C124.646 44.7317 123.935 44.5349 123.038 44.521C122.038 44.5349 121.116 44.7822 120.271 45.2637C119.582 45.7048 118.97 45.6783 118.436 45.183C117.935 44.7154 117.996 44.2869 118.616 43.8994C120.047 43.0971 121.556 42.6957 123.142 42.6957C124.883 42.6957 126.28 43.0231 127.331 43.6785C128.417 44.3609 128.96 45.3034 128.96 46.507C128.96 47.3364 128.668 48.0519 128.081 48.6537C127.512 49.2423 126.71 49.6835 125.676 49.9777V50.0782C126.831 50.3051 127.762 50.7264 128.469 51.3421C129.228 52.0107 129.607 52.8195 129.607 53.7692C129.607 55.0529 128.986 56.0898 127.745 56.8788C126.538 57.6275 125.038 58.0018 123.246 58.0018Z" fill="white"/>
<path d="M90.8307 31.4758C87.2497 31.4758 84.3572 30.4199 82.1543 28.3072C79.9254 26.1539 78.811 23.277 78.811 19.6774C78.811 16.0778 79.9254 13.2222 82.1543 11.1095C84.3324 9.03741 87.2249 8.00183 90.8307 8.00183C94.4365 8.00183 97.3279 9.03741 99.5071 11.1095C101.761 13.2222 102.888 16.0723 102.888 19.6617C102.888 23.2512 101.761 26.1327 99.5071 28.3072C97.3279 30.4199 94.4365 31.4758 90.8307 31.4758ZM96.7994 24.6126L92.7012 19.7393L96.7994 14.8651L90.8487 18.2173L84.8992 14.8651L88.9906 19.7393L84.8992 24.6126L90.8487 21.2557L96.7994 24.6126Z" fill="white"/>
<path d="M94.1792 1.1282C94.87 0.651638 95.6555 0.315583 96.4872 0.140747C97.319 -0.0340889 98.1793 -0.0439998 99.0151 0.111625C99.0151 0.111625 98.574 3.13006 96.3684 4.73051C94.1629 6.33096 91.0151 5.96603 91.0151 5.96603C91.5048 5.2269 91.9555 4.46483 92.3657 3.68266C92.785 2.93196 93.3678 1.72771 94.1792 1.1282Z" fill="white"/>
<path d="M88.83 3.56748C88.5708 3.32921 88.2761 3.16086 87.9641 3.07274C87.652 2.98461 87.3291 2.97856 87.0151 3.05497C87.1264 3.94698 87.4773 4.76214 88.0078 5.36126C88.6005 5.85733 89.31 6.07589 90.0151 5.97961C90.0151 5.97961 89.7615 5.48382 89.5035 4.86546C89.3522 4.37788 89.1229 3.93581 88.83 3.56748Z" fill="white"/>
</svg>
