<svg width="24" height="24" viewBox="0 0 24 24" fill="none" xmlns="http://www.w3.org/2000/svg">
  <g id="Pin">
    <path id="Vector"
      d="M23.4146 6.19002L17.6546 0.430016C17.5165 0.292799 17.3526 0.184186 17.1725 0.110398C16.9923 0.0366113 16.7993 -0.000899139 16.6046 1.63626e-05C16.3563 0.00101536 16.112 0.0636699 15.8938 0.182356C15.6757 0.301042 15.4904 0.472045 15.3546 0.680016L11.2546 7.13002C9.39734 6.68436 7.4399 6.96706 5.78462 7.92002C5.58906 8.03381 5.42241 8.19122 5.29764 8.37996C5.17288 8.56871 5.09337 8.78372 5.06531 9.00823C5.03724 9.23274 5.06138 9.4607 5.13585 9.67435C5.21031 9.888 5.33309 10.0816 5.49462 10.24L13.5946 18.34C13.7552 18.501 13.9503 18.6233 14.1651 18.6978C14.3799 18.7723 14.6089 18.797 14.8346 18.77C15.0573 18.739 15.2704 18.6593 15.4588 18.5366C15.6472 18.4139 15.8063 18.2512 15.9246 18.06C16.879 16.4054 17.1652 14.4487 16.7246 12.59L23.1646 8.49002C23.3523 8.37096 23.5107 8.21117 23.6282 8.02251C23.7457 7.83384 23.8192 7.62113 23.8432 7.40019C23.8672 7.17924 23.8411 6.95572 23.7669 6.74621C23.6928 6.53671 23.5723 6.34661 23.4146 6.19002ZM17.2146 3.35002L15.0946 6.68002C15.061 6.73899 15.0157 6.79049 14.9615 6.83138C14.9073 6.87227 14.8454 6.90171 14.7794 6.91788C14.7135 6.93405 14.6449 6.93663 14.578 6.92545C14.511 6.91427 14.447 6.88957 14.3899 6.85286C14.3328 6.81615 14.2838 6.76819 14.2458 6.71192C14.2079 6.65564 14.1817 6.59222 14.1691 6.52552C14.1564 6.45882 14.1575 6.39024 14.1722 6.32397C14.1869 6.25769 14.2149 6.1951 14.2546 6.14002L16.3746 2.81002C16.4083 2.75105 16.4535 2.69955 16.5077 2.65865C16.5619 2.61776 16.6239 2.58833 16.6898 2.57215C16.7557 2.55598 16.8243 2.55341 16.8912 2.56458C16.9582 2.57576 17.0222 2.60046 17.0793 2.63717C17.1364 2.67388 17.1854 2.72184 17.2234 2.77812C17.2614 2.8344 17.2875 2.89782 17.3002 2.96451C17.3128 3.03121 17.3118 3.09979 17.2971 3.16607C17.2823 3.23234 17.2543 3.29493 17.2146 3.35002Z"
      fill="#1E3D6C" />
    <path id="Vector_2"
      d="M6.37459 15.35L0.434593 21.29C0.156113 21.5725 0 21.9533 0 22.35C0 22.7467 0.156113 23.1275 0.434593 23.41C0.720043 23.6868 1.10201 23.8415 1.49959 23.8415C1.89717 23.8415 2.27914 23.6868 2.56459 23.41L8.50459 17.47C8.64379 17.3302 8.75409 17.1643 8.82917 16.9818C8.90425 16.7993 8.94266 16.6038 8.94219 16.4065C8.94173 16.2092 8.9024 16.0139 8.82646 15.8317C8.75052 15.6496 8.63945 15.4842 8.49959 15.345C8.35973 15.2058 8.19383 15.0955 8.01135 15.0204C7.82887 14.9454 7.63338 14.9069 7.43606 14.9074C7.23873 14.9079 7.04343 14.9472 6.86131 15.0231C6.67918 15.0991 6.51379 15.2102 6.37459 15.35Z"
      fill="#1E3D6C" />
  </g>
</svg>