<svg width="103" height="37" viewBox="0 0 103 37" fill="none" xmlns="http://www.w3.org/2000/svg">
<g filter="url(#filter0_d_243_291)">
<mask id="path-1-outside-1_243_291" maskUnits="userSpaceOnUse" x="2" y="-2" width="99" height="33" fill="black">
<rect fill="white" x="2" y="-2" width="99" height="33"/>
<path d="M6.1 1.7H31.87V4.61H6.1V1.7ZM14.38 19.85C17.65 23.54 24.58 25.19 33.31 25.52C32.62 26.3 31.78 27.77 31.33 28.7C22.24 28.1 15.49 25.94 11.38 20.93L14.38 19.85ZM24.64 18.47H25.36L25.99 18.29L28.24 19.7C24.13 25.76 15.28 27.89 6.13 28.7C5.86 27.86 5.32 26.6 4.78 25.85C13.18 25.37 21.52 23.51 24.64 18.92V18.47ZM14.59 16.31L18.13 17.03C15.64 20 12.25 22.22 7.18 23.9C6.73 23.09 5.77 21.89 5.08 21.38C9.79 20.15 12.91 18.29 14.59 16.31ZM16.9 3.29L21.13 3.2C20.68 4.76 20.08 6.14 19.66 7.13L16.3 6.95C16.54 5.81 16.81 4.37 16.9 3.29ZM12.22 10.97V12.11H25.69V10.97H12.22ZM12.22 14.15V15.32H25.69V14.15H12.22ZM12.22 7.79V8.93H25.69V7.79H12.22ZM8.74 5.78H29.32V17.36H8.74V5.78ZM14.83 18.47H25.93V20.9H12.4L14.83 18.47ZM51.88 4.07C49.36 7.58 44.83 11.6 39.94 14.42C39.49 13.58 38.44 12.26 37.63 11.51C42.73 8.84 47.62 4.19 49.87 0.499999H53.56C56.8 5.06 61.72 9.08 66.43 11.18C65.53 12.08 64.69 13.31 64.03 14.39C59.5 11.81 54.49 7.55 51.88 4.07ZM45.7 9.38H58.24V12.65H45.7V9.38ZM40.75 15.23H60.85V18.5H40.75V15.23ZM58.84 15.23H62.56V22.97C62.56 24.65 62.17 25.64 60.91 26.18C59.65 26.72 57.91 26.78 55.63 26.78C55.45 25.73 54.91 24.23 54.4 23.27C55.87 23.36 57.73 23.33 58.18 23.33C58.69 23.33 58.84 23.24 58.84 22.88V15.23ZM47.83 16.01H51.64V28.7H47.83V16.01ZM83.23 18.71L87.25 19.19C86.68 20.54 86.11 21.77 85.72 22.64L82.54 22.07C82.81 21.02 83.11 19.7 83.23 18.71ZM80.11 16.37V17.81H89.56V16.37H80.11ZM76.78 14.15H93.13V20H76.78V14.15ZM74.68 21.35H96.01V28.7H92.44V23.84H78.07V28.7H74.68V21.35ZM76.78 25.49H93.94V28.01H76.78V25.49ZM72.1 10.25H97.96V16.1H94.33V12.98H75.55V16.1H72.1V10.25ZM82.12 1.82L85 2.75C84.04 3.92 83.08 5.06 82.33 5.81L80.26 4.97C80.92 4.07 81.7 2.72 82.12 1.82ZM76.78 7.01L78.85 5.06C80.41 5.9 82.63 7.19 83.77 8.03L81.61 10.22C80.53 9.35 78.37 7.97 76.78 7.01ZM77.14 0.529999H80.26C79.99 5.99 78.94 9.08 72.85 10.76C72.58 9.98 71.77 8.81 71.14 8.24C76.3 7.01 76.93 4.85 77.14 0.529999ZM73.75 1.73L76.03 2.54C75.55 4.01 74.83 5.54 73.57 6.47L71.38 5.15C72.49 4.37 73.33 2.99 73.75 1.73ZM95.44 1.76L98.53 2.78C97.48 3.95 96.46 5.15 95.68 5.93L93.49 5.06C94.18 4.1 95.02 2.72 95.44 1.76ZM89.77 7.13L91.78 4.97C93.79 5.93 96.76 7.43 98.29 8.42L96.16 10.88C94.75 9.86 91.84 8.24 89.77 7.13ZM90.01 0.529999H93.25C93.01 5.99 91.99 9.05 85.72 10.61C85.48 9.83 84.67 8.6 84.01 7.97C89.26 6.83 89.83 4.82 90.01 0.529999ZM86.56 1.76L88.87 2.6C88.36 4.07 87.64 5.51 86.41 6.5L84.19 5.12C85.3 4.34 86.14 2.99 86.56 1.76Z"/>
</mask>
<path d="M6.1 1.7V-0.300002C4.99543 -0.300002 4.1 0.595429 4.1 1.7H6.1ZM31.87 1.7H33.87C33.87 0.595429 32.9746 -0.300002 31.87 -0.300002V1.7ZM31.87 4.61V6.61C32.9746 6.61 33.87 5.71457 33.87 4.61H31.87ZM6.1 4.61H4.1C4.1 5.71457 4.99543 6.61 6.1 6.61V4.61ZM14.38 19.85L15.8768 18.5235C15.334 17.911 14.4727 17.691 13.7026 17.9682L14.38 19.85ZM33.31 25.52L34.808 26.8451C35.3202 26.2661 35.4528 25.4438 35.1487 24.7331C34.8445 24.0224 34.158 23.5506 33.3855 23.5214L33.31 25.52ZM31.33 28.7L31.1983 30.6957C32.0112 30.7493 32.7755 30.3045 33.1303 29.5711L31.33 28.7ZM11.38 20.93L10.7026 19.0482C10.0911 19.2683 9.62476 19.7718 9.45198 20.3983C9.27921 21.0247 9.42157 21.6961 9.83374 22.1985L11.38 20.93ZM24.64 18.47V16.47C23.5354 16.47 22.64 17.3654 22.64 18.47H24.64ZM25.36 18.47V20.47C25.5458 20.47 25.7308 20.4441 25.9094 20.393L25.36 18.47ZM25.99 18.29L27.052 16.5953C26.5715 16.2942 25.9858 16.2112 25.4406 16.367L25.99 18.29ZM28.24 19.7L29.8952 20.8226C30.2 20.3732 30.309 19.8193 30.1971 19.2879C30.0852 18.7566 29.7621 18.2936 29.302 18.0053L28.24 19.7ZM6.13 28.7L4.22594 29.312C4.51187 30.2016 5.37562 30.7746 6.30636 30.6922L6.13 28.7ZM4.78 25.85L4.6659 23.8533C3.93705 23.8949 3.2888 24.3304 2.97465 24.9894C2.6605 25.6484 2.73037 26.4262 3.15693 27.0186L4.78 25.85ZM24.64 18.92L26.2941 20.0443C26.5195 19.7127 26.64 19.321 26.64 18.92H24.64ZM14.59 16.31L14.9886 14.3501C14.274 14.2048 13.5368 14.4599 13.065 15.016L14.59 16.31ZM18.13 17.03L19.6626 18.3149C20.1156 17.7746 20.2506 17.0357 20.018 16.3702C19.7854 15.7046 19.2195 15.2107 18.5286 15.0701L18.13 17.03ZM7.18 23.9L5.43169 24.8713C5.89843 25.7114 6.89677 26.1008 7.80908 25.7985L7.18 23.9ZM5.08 21.38L4.57465 19.4449C3.82936 19.6395 3.26207 20.2449 3.11619 21.0012C2.97031 21.7576 3.27177 22.5305 3.89122 22.9884L5.08 21.38ZM16.9 3.29L16.8575 1.29045C15.8338 1.31223 14.9919 2.10357 14.9069 3.12391L16.9 3.29ZM21.13 3.2L23.0516 3.75432C23.2279 3.14327 23.1031 2.48481 22.7153 1.9807C22.3276 1.47659 21.7233 1.18692 21.0875 1.20045L21.13 3.2ZM19.66 7.13L19.553 9.12714C20.3936 9.17217 21.1724 8.68604 21.5012 7.9111L19.66 7.13ZM16.3 6.95L14.3429 6.53798C14.2226 7.10945 14.3581 7.70496 14.7138 8.16814C15.0695 8.63132 15.6098 8.91589 16.193 8.94713L16.3 6.95ZM12.22 10.97V8.97C11.1154 8.97 10.22 9.86543 10.22 10.97H12.22ZM12.22 12.11H10.22C10.22 13.2146 11.1154 14.11 12.22 14.11V12.11ZM25.69 12.11V14.11C26.7946 14.11 27.69 13.2146 27.69 12.11H25.69ZM25.69 10.97H27.69C27.69 9.86543 26.7946 8.97 25.69 8.97V10.97ZM12.22 14.15V12.15C11.1154 12.15 10.22 13.0454 10.22 14.15H12.22ZM12.22 15.32H10.22C10.22 16.4246 11.1154 17.32 12.22 17.32V15.32ZM25.69 15.32V17.32C26.7946 17.32 27.69 16.4246 27.69 15.32H25.69ZM25.69 14.15H27.69C27.69 13.0454 26.7946 12.15 25.69 12.15V14.15ZM12.22 7.79V5.79C11.1154 5.79 10.22 6.68543 10.22 7.79H12.22ZM12.22 8.93H10.22C10.22 10.0346 11.1154 10.93 12.22 10.93V8.93ZM25.69 8.93V10.93C26.7946 10.93 27.69 10.0346 27.69 8.93H25.69ZM25.69 7.79H27.69C27.69 6.68543 26.7946 5.79 25.69 5.79V7.79ZM8.74 5.78V3.78C7.63543 3.78 6.74 4.67543 6.74 5.78H8.74ZM29.32 5.78H31.32C31.32 4.67543 30.4246 3.78 29.32 3.78V5.78ZM29.32 17.36V19.36C30.4246 19.36 31.32 18.4646 31.32 17.36H29.32ZM8.74 17.36H6.74C6.74 18.4646 7.63543 19.36 8.74 19.36V17.36ZM14.83 18.47V16.47C14.2996 16.47 13.7909 16.6807 13.4158 17.0558L14.83 18.47ZM25.93 18.47H27.93C27.93 17.3654 27.0346 16.47 25.93 16.47V18.47ZM25.93 20.9V22.9C27.0346 22.9 27.93 22.0046 27.93 20.9H25.93ZM12.4 20.9L10.9858 19.4858C10.4138 20.0578 10.2427 20.918 10.5522 21.6654C10.8618 22.4127 11.5911 22.9 12.4 22.9V20.9ZM6.1 3.7H31.87V-0.300002H6.1V3.7ZM29.87 1.7V4.61H33.87V1.7H29.87ZM31.87 2.61H6.1V6.61H31.87V2.61ZM8.1 4.61V1.7H4.1V4.61H8.1ZM12.8832 21.1765C14.8738 23.4228 17.8353 24.902 21.2528 25.8694C24.6928 26.8431 28.7797 27.3502 33.2345 27.5186L33.3855 23.5214C29.1103 23.3598 25.3672 22.8769 22.3422 22.0206C19.2947 21.158 17.1562 19.9672 15.8768 18.5235L12.8832 21.1765ZM31.812 24.1949C30.9371 25.1838 30.002 26.8527 29.5297 27.8289L33.1303 29.5711C33.558 28.6873 34.3029 27.4162 34.808 26.8451L31.812 24.1949ZM31.4617 26.7043C22.5327 26.115 16.4971 24.0143 12.9263 19.6615L9.83374 22.1985C14.4829 27.8657 21.9473 30.085 31.1983 30.6957L31.4617 26.7043ZM12.0574 22.8118L15.0574 21.7318L13.7026 17.9682L10.7026 19.0482L12.0574 22.8118ZM24.64 20.47H25.36V16.47H24.64V20.47ZM25.9094 20.393L26.5394 20.213L25.4406 16.367L24.8106 16.547L25.9094 20.393ZM24.928 19.9847L27.178 21.3947L29.302 18.0053L27.052 16.5953L24.928 19.9847ZM26.5848 18.5774C24.851 21.1338 22.0378 22.9783 18.3984 24.2867C14.7599 25.5947 10.4529 26.3095 5.95364 26.7078L6.30636 30.6922C10.9571 30.2805 15.6501 29.5253 19.7516 28.0508C23.8522 26.5767 27.519 24.3262 29.8952 20.8226L26.5848 18.5774ZM8.03406 28.088C7.73369 27.1535 7.11615 25.6718 6.40307 24.6814L3.15693 27.0186C3.52385 27.5282 3.98631 28.5665 4.22594 29.312L8.03406 28.088ZM4.8941 27.8467C9.18359 27.6016 13.5464 27.001 17.2852 25.8356C20.9722 24.6864 24.3571 22.8939 26.2941 20.0443L22.9859 17.7957C21.8029 19.5361 19.4578 20.9686 16.0948 22.0169C12.7836 23.049 8.77641 23.6184 4.6659 23.8533L4.8941 27.8467ZM26.64 18.92V18.47H22.64V18.92H26.64ZM14.1914 18.2699L17.7314 18.9899L18.5286 15.0701L14.9886 14.3501L14.1914 18.2699ZM16.5974 15.7451C14.3989 18.3674 11.3563 20.4092 6.55092 22.0015L7.80908 25.7985C13.1437 24.0308 16.8811 21.6326 19.6626 18.3149L16.5974 15.7451ZM8.92831 22.9287C8.6289 22.3898 8.20021 21.7865 7.76458 21.257C7.34189 20.7431 6.80776 20.17 6.26878 19.7716L3.89122 22.9884C4.04224 23.1 4.33311 23.3819 4.67542 23.798C5.00479 24.1985 5.2811 24.6002 5.43169 24.8713L8.92831 22.9287ZM5.58535 23.3151C10.5171 22.0272 14.0717 20.0122 16.115 17.604L13.065 15.016C11.7483 16.5678 9.06293 18.2728 4.57465 19.4449L5.58535 23.3151ZM16.9425 5.28955L21.1725 5.19955L21.0875 1.20045L16.8575 1.29045L16.9425 5.28955ZM19.2084 2.64568C18.7975 4.06985 18.2476 5.33818 17.8188 6.3489L21.5012 7.9111C21.9124 6.94182 22.5625 5.45015 23.0516 3.75432L19.2084 2.64568ZM19.767 5.13286L16.407 4.95286L16.193 8.94713L19.553 9.12714L19.767 5.13286ZM18.2571 7.36202C18.4987 6.21442 18.792 4.66973 18.8931 3.45609L14.9069 3.12391C14.828 4.07027 14.5813 5.40558 14.3429 6.53798L18.2571 7.36202ZM10.22 10.97V12.11H14.22V10.97H10.22ZM12.22 14.11H25.69V10.11H12.22V14.11ZM27.69 12.11V10.97H23.69V12.11H27.69ZM25.69 8.97H12.22V12.97H25.69V8.97ZM10.22 14.15V15.32H14.22V14.15H10.22ZM12.22 17.32H25.69V13.32H12.22V17.32ZM27.69 15.32V14.15H23.69V15.32H27.69ZM25.69 12.15H12.22V16.15H25.69V12.15ZM10.22 7.79V8.93H14.22V7.79H10.22ZM12.22 10.93H25.69V6.93H12.22V10.93ZM27.69 8.93V7.79H23.69V8.93H27.69ZM25.69 5.79H12.22V9.79H25.69V5.79ZM8.74 7.78H29.32V3.78H8.74V7.78ZM27.32 5.78V17.36H31.32V5.78H27.32ZM29.32 15.36H8.74V19.36H29.32V15.36ZM10.74 17.36V5.78H6.74V17.36H10.74ZM14.83 20.47H25.93V16.47H14.83V20.47ZM23.93 18.47V20.9H27.93V18.47H23.93ZM25.93 18.9H12.4V22.9H25.93V18.9ZM13.8142 22.3142L16.2442 19.8842L13.4158 17.0558L10.9858 19.4858L13.8142 22.3142ZM51.88 4.07L53.48 2.87C53.0979 2.36052 52.496 2.06348 51.8592 2.07011C51.2224 2.07674 50.6268 2.38626 50.2554 2.90359L51.88 4.07ZM39.94 14.42L38.177 15.3644C38.4326 15.8416 38.8707 16.1947 39.3912 16.3432C39.9118 16.4918 40.4702 16.423 40.9391 16.1525L39.94 14.42ZM37.63 11.51L36.7024 9.73813C36.1266 10.0396 35.7332 10.6019 35.6475 11.2461C35.5617 11.8903 35.7943 12.536 36.2712 12.9775L37.63 11.51ZM49.87 0.499999V-1.5C49.1726 -1.5 48.5255 -1.13668 48.1624 -0.541216L49.87 0.499999ZM53.56 0.499999L55.1904 -0.658415C54.8152 -1.18638 54.2077 -1.5 53.56 -1.5V0.499999ZM66.43 11.18L67.8442 12.5942C68.3099 12.1286 68.5164 11.4636 68.3966 10.816C68.2768 10.1685 67.8459 9.6215 67.2444 9.35334L66.43 11.18ZM64.03 14.39L63.0402 16.1279C63.9792 16.6627 65.1731 16.3549 65.7366 15.4329L64.03 14.39ZM45.7 9.38V7.38C44.5954 7.38 43.7 8.27543 43.7 9.38H45.7ZM58.24 9.38H60.24C60.24 8.27543 59.3446 7.38 58.24 7.38V9.38ZM58.24 12.65V14.65C59.3446 14.65 60.24 13.7546 60.24 12.65H58.24ZM45.7 12.65H43.7C43.7 13.7546 44.5954 14.65 45.7 14.65V12.65ZM40.75 15.23V13.23C39.6454 13.23 38.75 14.1254 38.75 15.23H40.75ZM60.85 15.23H62.85C62.85 14.1254 61.9546 13.23 60.85 13.23V15.23ZM60.85 18.5V20.5C61.9546 20.5 62.85 19.6046 62.85 18.5H60.85ZM40.75 18.5H38.75C38.75 19.6046 39.6454 20.5 40.75 20.5V18.5ZM58.84 15.23V13.23C57.7354 13.23 56.84 14.1254 56.84 15.23H58.84ZM62.56 15.23H64.56C64.56 14.1254 63.6646 13.23 62.56 13.23V15.23ZM55.63 26.78L53.6588 27.1179C53.8234 28.0781 54.6558 28.78 55.63 28.78V26.78ZM54.4 23.27L54.5222 21.2737C53.7998 21.2295 53.1098 21.579 52.7182 22.1877C52.3265 22.7963 52.2942 23.5691 52.6338 24.2083L54.4 23.27ZM47.83 16.01V14.01C46.7254 14.01 45.83 14.9054 45.83 16.01H47.83ZM51.64 16.01H53.64C53.64 14.9054 52.7446 14.01 51.64 14.01V16.01ZM51.64 28.7V30.7C52.7446 30.7 53.64 29.8046 53.64 28.7H51.64ZM47.83 28.7H45.83C45.83 29.8046 46.7254 30.7 47.83 30.7V28.7ZM50.2554 2.90359C47.929 6.14391 43.6293 9.98369 38.9409 12.6875L40.9391 16.1525C46.0307 13.2163 50.791 9.01609 53.5046 5.23641L50.2554 2.90359ZM41.703 13.4756C41.1317 12.4092 39.9339 10.9175 38.9888 10.0425L36.2712 12.9775C36.9461 13.6025 37.8483 14.7508 38.177 15.3644L41.703 13.4756ZM38.5576 13.2819C43.9486 10.4595 49.1216 5.56912 51.5776 1.54121L48.1624 -0.541216C46.1184 2.81088 41.5114 7.22047 36.7024 9.73813L38.5576 13.2819ZM49.87 2.5H53.56V-1.5H49.87V2.5ZM51.9296 1.65841C55.3699 6.50026 60.5678 10.7561 65.6156 13.0067L67.2444 9.35334C62.8722 7.40394 58.2301 3.61974 55.1904 -0.658415L51.9296 1.65841ZM65.0158 9.76579C63.9452 10.8363 63.0068 12.2289 62.3234 13.3471L65.7366 15.4329C66.3732 14.3911 67.1148 13.3237 67.8442 12.5942L65.0158 9.76579ZM65.0198 12.6521C60.6829 10.1821 55.8971 6.09284 53.48 2.87L50.28 5.27C53.0829 9.00715 58.3171 13.4379 63.0402 16.1279L65.0198 12.6521ZM45.7 11.38H58.24V7.38H45.7V11.38ZM56.24 9.38V12.65H60.24V9.38H56.24ZM58.24 10.65H45.7V14.65H58.24V10.65ZM47.7 12.65V9.38H43.7V12.65H47.7ZM40.75 17.23H60.85V13.23H40.75V17.23ZM58.85 15.23V18.5H62.85V15.23H58.85ZM60.85 16.5H40.75V20.5H60.85V16.5ZM42.75 18.5V15.23H38.75V18.5H42.75ZM58.84 17.23H62.56V13.23H58.84V17.23ZM60.56 15.23V22.97H64.56V15.23H60.56ZM60.56 22.97C60.56 23.696 60.4681 24.006 60.4085 24.1287C60.3868 24.1734 60.3697 24.1927 60.3515 24.2093C60.329 24.2298 60.2668 24.2797 60.1222 24.3417L61.6978 28.0183C62.7101 27.5845 63.5146 26.8891 64.0065 25.8763C64.4569 24.949 64.56 23.924 64.56 22.97H60.56ZM60.1222 24.3417C59.3106 24.6895 58.0128 24.78 55.63 24.78V28.78C57.8072 28.78 59.9894 28.7505 61.6978 28.0183L60.1222 24.3417ZM57.6012 26.4421C57.3806 25.1552 56.7623 23.4536 56.1662 22.3317L52.6338 24.2083C53.0577 25.0064 53.5194 26.3048 53.6588 27.1179L57.6012 26.4421ZM54.2778 25.2663C55.828 25.3612 57.7844 25.33 58.18 25.33V21.33C57.6756 21.33 55.912 21.3588 54.5222 21.2737L54.2778 25.2663ZM58.18 25.33C58.3507 25.33 58.5798 25.3236 58.8218 25.284C59.0594 25.245 59.4341 25.1551 59.8107 24.9041C60.763 24.2692 60.84 23.2726 60.84 22.88H56.84C56.84 22.856 56.8387 22.6605 56.9347 22.4032C57.0503 22.0932 57.2709 21.7899 57.5919 21.5759C57.8671 21.3924 58.1088 21.3475 58.1747 21.3367C58.2452 21.3251 58.2643 21.33 58.18 21.33V25.33ZM60.84 22.88V15.23H56.84V22.88H60.84ZM47.83 18.01H51.64V14.01H47.83V18.01ZM49.64 16.01V28.7H53.64V16.01H49.64ZM51.64 26.7H47.83V30.7H51.64V26.7ZM49.83 28.7V16.01H45.83V28.7H49.83ZM83.23 18.71L83.4671 16.7241C82.3717 16.5933 81.3773 17.3742 81.2445 18.4693L83.23 18.71ZM87.25 19.19L89.0925 19.9679C89.3369 19.389 89.2951 18.7289 88.9794 18.1855C88.6638 17.6421 88.1111 17.2786 87.4871 17.2041L87.25 19.19ZM85.72 22.64L85.3671 24.6086C86.2712 24.7707 87.1693 24.2962 87.545 23.4581L85.72 22.64ZM82.54 22.07L80.603 21.5719C80.4645 22.1106 80.5566 22.6827 80.8571 23.1507C81.1577 23.6188 81.6396 23.9405 82.1871 24.0386L82.54 22.07ZM80.11 16.37V14.37C79.0054 14.37 78.11 15.2654 78.11 16.37H80.11ZM80.11 17.81H78.11C78.11 18.9146 79.0054 19.81 80.11 19.81V17.81ZM89.56 17.81V19.81C90.6646 19.81 91.56 18.9146 91.56 17.81H89.56ZM89.56 16.37H91.56C91.56 15.2654 90.6646 14.37 89.56 14.37V16.37ZM76.78 14.15V12.15C75.6754 12.15 74.78 13.0454 74.78 14.15H76.78ZM93.13 14.15H95.13C95.13 13.0454 94.2346 12.15 93.13 12.15V14.15ZM93.13 20V22C94.2346 22 95.13 21.1046 95.13 20H93.13ZM76.78 20H74.78C74.78 21.1046 75.6754 22 76.78 22V20ZM74.68 21.35V19.35C73.5754 19.35 72.68 20.2454 72.68 21.35H74.68ZM96.01 21.35H98.01C98.01 20.2454 97.1146 19.35 96.01 19.35V21.35ZM96.01 28.7V30.7C97.1146 30.7 98.01 29.8046 98.01 28.7H96.01ZM92.44 28.7H90.44C90.44 29.8046 91.3354 30.7 92.44 30.7V28.7ZM92.44 23.84H94.44C94.44 22.7354 93.5446 21.84 92.44 21.84V23.84ZM78.07 23.84V21.84C76.9654 21.84 76.07 22.7354 76.07 23.84H78.07ZM78.07 28.7V30.7C79.1746 30.7 80.07 29.8046 80.07 28.7H78.07ZM74.68 28.7H72.68C72.68 29.8046 73.5754 30.7 74.68 30.7V28.7ZM76.78 25.49V23.49C75.6754 23.49 74.78 24.3854 74.78 25.49H76.78ZM93.94 25.49H95.94C95.94 24.3854 95.0446 23.49 93.94 23.49V25.49ZM93.94 28.01V30.01C95.0446 30.01 95.94 29.1146 95.94 28.01H93.94ZM76.78 28.01H74.78C74.78 29.1146 75.6754 30.01 76.78 30.01V28.01ZM72.1 10.25V8.25C70.9954 8.25 70.1 9.14543 70.1 10.25H72.1ZM97.96 10.25H99.96C99.96 9.14543 99.0646 8.25 97.96 8.25V10.25ZM97.96 16.1V18.1C99.0646 18.1 99.96 17.2046 99.96 16.1H97.96ZM94.33 16.1H92.33C92.33 17.2046 93.2254 18.1 94.33 18.1V16.1ZM94.33 12.98H96.33C96.33 11.8754 95.4346 10.98 94.33 10.98V12.98ZM75.55 12.98V10.98C74.4454 10.98 73.55 11.8754 73.55 12.98H75.55ZM75.55 16.1V18.1C76.6546 18.1 77.55 17.2046 77.55 16.1H75.55ZM72.1 16.1H70.1C70.1 17.2046 70.9954 18.1 72.1 18.1V16.1ZM82.12 1.82L82.7346 -0.0832318C81.7747 -0.393199 80.7342 0.0601578 80.3076 0.974228L82.12 1.82ZM85 2.75L86.5461 4.01863C86.9658 3.50715 87.1054 2.82122 86.919 2.18641C86.7325 1.5516 86.2442 1.05008 85.6146 0.846769L85 2.75ZM82.33 5.81L81.578 7.66322C82.3227 7.96542 83.1759 7.7925 83.7442 7.22421L82.33 5.81ZM80.26 4.97L78.6472 3.78727C78.2825 4.28456 78.1676 4.92226 78.3358 5.51555C78.5041 6.10883 78.9366 6.59135 79.508 6.82322L80.26 4.97ZM76.78 7.01L75.4086 5.55422C74.9534 5.98304 74.725 6.60011 74.7913 7.22197C74.8575 7.84383 75.2109 8.39889 75.7463 8.72213L76.78 7.01ZM78.85 5.06L79.7982 3.29906C79.0399 2.89077 78.1055 3.0137 77.4786 3.60422L78.85 5.06ZM83.77 8.03L85.1939 9.43443C85.6015 9.02125 85.8094 8.45143 85.7638 7.87289C85.7182 7.29435 85.4236 6.76414 84.9564 6.41989L83.77 8.03ZM81.61 10.22L80.3553 11.7775C81.1551 12.4217 82.3128 12.3556 83.0339 11.6244L81.61 10.22ZM77.14 0.529999V-1.47C76.0732 -1.47 75.1942 -0.63267 75.1424 0.432891L77.14 0.529999ZM80.26 0.529999L82.2576 0.628779C82.2846 0.0818716 82.0862 -0.452207 81.7087 -0.848848C81.3312 -1.24549 80.8076 -1.47 80.26 -1.47V0.529999ZM72.85 10.76L70.96 11.4142C71.3051 12.411 72.365 12.9685 73.3819 12.688L72.85 10.76ZM71.14 8.24L70.6762 6.29451C69.9541 6.46665 69.3867 7.02463 69.2025 7.7438C69.0183 8.46297 69.2477 9.225 69.7982 9.72307L71.14 8.24ZM73.75 1.73L74.4195 -0.154604C73.9133 -0.33445 73.356 -0.303071 72.8732 -0.0675362C72.3903 0.167999 72.0225 0.587883 71.8526 1.09754L73.75 1.73ZM76.03 2.54L77.9312 3.1608C78.2678 2.12985 77.7215 1.01845 76.6995 0.655394L76.03 2.54ZM73.57 6.47L72.5376 8.18291C73.2305 8.60056 74.1068 8.5596 74.7577 8.07915L73.57 6.47ZM71.38 5.15L70.2301 3.51361C69.6769 3.90237 69.3575 4.54434 69.3812 5.22009C69.4049 5.89584 69.7685 6.51386 70.3476 6.86291L71.38 5.15ZM95.44 1.76L96.0669 -0.139203C95.0868 -0.462748 94.0214 0.0127307 93.6077 0.958362L95.44 1.76ZM98.53 2.78L100.018 4.11582C100.469 3.61345 100.636 2.91756 100.463 2.26529C100.289 1.61302 99.7979 1.09238 99.1569 0.880796L98.53 2.78ZM95.68 5.93L94.9416 7.7887C95.6836 8.08345 96.5297 7.90872 97.0942 7.34421L95.68 5.93ZM93.49 5.06L91.866 3.89273C91.5065 4.39285 91.3975 5.03069 91.5705 5.62179C91.7435 6.21289 92.1792 6.69132 92.7516 6.9187L93.49 5.06ZM89.77 7.13L88.3059 5.76754C87.8834 6.22155 87.6954 6.84586 87.797 7.45766C87.8986 8.06945 88.2783 8.5995 88.8248 8.89258L89.77 7.13ZM91.78 4.97L92.642 3.16527C91.8533 2.78858 90.9113 2.96768 90.3159 3.60754L91.78 4.97ZM98.29 8.42L99.802 9.72916C100.181 9.29153 100.352 8.71118 100.27 8.13808C100.188 7.56497 99.8625 7.05534 99.3765 6.74086L98.29 8.42ZM96.16 10.88L94.9878 12.5004C95.8279 13.1082 96.9932 12.9731 97.672 12.1892L96.16 10.88ZM90.01 0.529999V-1.47C88.938 -1.47 88.0567 -0.624859 88.0118 0.446156L90.01 0.529999ZM93.25 0.529999L95.2481 0.617826C95.272 0.072681 95.0722 -0.458585 94.6949 -0.852814C94.3177 -1.24704 93.7957 -1.47 93.25 -1.47V0.529999ZM85.72 10.61L83.8084 11.1982C84.1208 12.2133 85.1722 12.8073 86.2029 12.5508L85.72 10.61ZM84.01 7.97L83.5856 6.01555C82.8624 6.17258 82.2851 6.71612 82.0847 7.42852C81.8843 8.14092 82.0937 8.90573 82.6291 9.41671L84.01 7.97ZM86.56 1.76L87.2435 -0.119588C86.7386 -0.303196 86.181 -0.275933 85.6964 -0.0439393C85.2118 0.188054 84.8409 0.605266 84.6673 1.11371L86.56 1.76ZM88.87 2.6L90.7595 3.25554C91.1178 2.22292 90.5807 1.09394 89.5535 0.720412L88.87 2.6ZM86.41 6.5L85.3541 8.19857C86.0758 8.64716 87.0021 8.5908 87.664 8.05802L86.41 6.5ZM84.19 5.12L83.0401 3.48362C82.4909 3.86957 82.1719 4.50534 82.1908 5.17636C82.2097 5.84739 82.564 6.46417 83.1341 6.81857L84.19 5.12ZM82.9929 20.6959L87.0129 21.1759L87.4871 17.2041L83.4671 16.7241L82.9929 20.6959ZM85.4075 18.4121C84.8489 19.7352 84.2977 20.9234 83.895 21.8219L87.545 23.4581C87.9223 22.6166 88.5111 21.3448 89.0925 19.9679L85.4075 18.4121ZM86.0729 20.6714L82.8929 20.1014L82.1871 24.0386L85.3671 24.6086L86.0729 20.6714ZM84.477 22.5681C84.7514 21.501 85.079 20.0766 85.2155 18.9507L81.2445 18.4693C81.141 19.3234 80.8686 20.539 80.603 21.5719L84.477 22.5681ZM78.11 16.37V17.81H82.11V16.37H78.11ZM80.11 19.81H89.56V15.81H80.11V19.81ZM91.56 17.81V16.37H87.56V17.81H91.56ZM89.56 14.37H80.11V18.37H89.56V14.37ZM76.78 16.15H93.13V12.15H76.78V16.15ZM91.13 14.15V20H95.13V14.15H91.13ZM93.13 18H76.78V22H93.13V18ZM78.78 20V14.15H74.78V20H78.78ZM74.68 23.35H96.01V19.35H74.68V23.35ZM94.01 21.35V28.7H98.01V21.35H94.01ZM96.01 26.7H92.44V30.7H96.01V26.7ZM94.44 28.7V23.84H90.44V28.7H94.44ZM92.44 21.84H78.07V25.84H92.44V21.84ZM76.07 23.84V28.7H80.07V23.84H76.07ZM78.07 26.7H74.68V30.7H78.07V26.7ZM76.68 28.7V21.35H72.68V28.7H76.68ZM76.78 27.49H93.94V23.49H76.78V27.49ZM91.94 25.49V28.01H95.94V25.49H91.94ZM93.94 26.01H76.78V30.01H93.94V26.01ZM78.78 28.01V25.49H74.78V28.01H78.78ZM72.1 12.25H97.96V8.25H72.1V12.25ZM95.96 10.25V16.1H99.96V10.25H95.96ZM97.96 14.1H94.33V18.1H97.96V14.1ZM96.33 16.1V12.98H92.33V16.1H96.33ZM94.33 10.98H75.55V14.98H94.33V10.98ZM73.55 12.98V16.1H77.55V12.98H73.55ZM75.55 14.1H72.1V18.1H75.55V14.1ZM74.1 16.1V10.25H70.1V16.1H74.1ZM81.5054 3.72323L84.3854 4.65323L85.6146 0.846769L82.7346 -0.0832318L81.5054 3.72323ZM83.4539 1.48137C82.486 2.66089 81.5857 3.72591 80.9158 4.39578L83.7442 7.22421C84.5743 6.39408 85.594 5.1791 86.5461 4.01863L83.4539 1.48137ZM83.082 3.95677L81.012 3.11677L79.508 6.82322L81.578 7.66322L83.082 3.95677ZM81.8728 6.15273C82.6166 5.13847 83.4618 3.67411 83.9324 2.66577L80.3076 0.974228C79.9382 1.76589 79.2234 3.00153 78.6472 3.78727L81.8728 6.15273ZM78.1514 8.46578L80.2214 6.51578L77.4786 3.60422L75.4086 5.55422L78.1514 8.46578ZM77.9018 6.82094C79.4531 7.65628 81.5657 8.89011 82.5836 9.64011L84.9564 6.41989C83.6943 5.48989 81.3669 4.14372 79.7982 3.29906L77.9018 6.82094ZM82.3461 6.62557L80.1861 8.81557L83.0339 11.6244L85.1939 9.43443L82.3461 6.62557ZM82.8647 8.66249C81.6665 7.69727 79.3982 6.25451 77.8137 5.29787L75.7463 8.72213C77.3418 9.68549 79.3935 11.0027 80.3553 11.7775L82.8647 8.66249ZM77.14 2.53H80.26V-1.47H77.14V2.53ZM78.2624 0.431218C78.1289 3.13173 77.8041 4.80172 77.0492 5.99022C76.3547 7.08376 75.0939 8.06629 72.3181 8.83201L73.3819 12.688C76.6961 11.7737 79.0053 10.3712 80.4258 8.13477C81.7859 5.99328 82.1211 3.38827 82.2576 0.62#ead377;8779L78.2624 0.431218ZM74.74 10.1058C74.5231 9.47922 74.1451 8.8256 73.7816 8.29333C73.413 #ead377;7.7536 72.9525 7.18275 72.4818 6.75693L69.7982 9.72307C69.9575 9.86725 70.217 10.1664 70.4784#ead377; 10.5492C70.7449 10.9394 70.9069 11.2608 70.96 11.4142L74.74 10.1058ZM71.6038 10.1855C74.378#ead377;1 9.52416 76.415 8.50717 77.6565 6.65897C78.8321 4.90884 79.0343 2.75344 79.1376 0.627106L75.#ead377;1424 0.432891C75.0357 2.62656 74.8179 3.71115 74.336 4.42853C73.92 5.04783 73.0619 5.72584 7#ead377;0.6762 6.29451L71.6038 10.1855ZM73.0805 3.6146L75.3605 4.4246L76.6995 0.655394L74.4195 -0.154#ead377;604L73.0805 3.6146ZM74.1288 1.91919C73.68 3.29349 73.1209 4.31566 72.3823 4.86085L74.757#ead377;7 8.07915C76.5391 6.76434 77.42 4.7265 77.9312 3.1608L74.1288 1.91919ZM74.6024 4.75709L72.41#ead377;24 3.43709L70.3476 6.86291L72.5376 8.18291L74.6024 4.75709ZM72.5299 6.78638C74.0972 5.68501#ead377; 75.1404 3.8835 75.6474 2.36245L71.8526 1.09754C71.5196 2.0965 70.8828 3.05499 70.2301 3.51#ead377;361L72.5299 6.78638ZM94.8131 3.6592L97.9031 4.6792L99.1569 0.880796L96.0669 -0.139203L94.#ead377;8131 3.6592ZM97.0415 1.44418C95.9274 2.68564 94.9955 3.78606 94.2658 4.51579L97.0942 7.34421#ead377;C97.9245 6.51394 99.0326 5.21436 100.018 4.11582L97.0415 1.44418ZM96.4184 4.07129L94.22#ead377;84 3.2013L92.7516 6.9187L94.9416 7.7887L96.4184 4.07129ZM95.114 6.22727C95.8523 5.20015 96.7#ead377;767 3.69455 97.2723 2.56164L93.6077 0.958362C93.2633 1.74545 92.5077 2.99984 91.866 3.89273L#ead377;95.114 6.22727ZM91.2341 8.49246L93.2441 6.33246L90.3159 3.60754L88.3059 5.76754L91.234#ead377;1 8.49246ZM90.918 6.77472C92.9353 7.73818 95.7957 9.18818 97.2035 10.0991L99.3765 6.74086C97.7243 5.67182 94.6447 4.12182 92.642 3.16527L90.918 6.77472ZM96.778 7.11084L94.648 9.57084L97.672 12.1892L99.802 9.72916L96.778 7.11084ZM97.3322 9.25955C95.7932 8.14619 92.7579 6.46282 90.7152 5.36742L88.8248 8.89258C90.9221 10.0172 93.7068 11.5738 94.9878 12.5004L97.3322 9.25955ZM90.01 2.53H93.25V-1.47H90.01V2.53ZM91.2519 0.442171C91.1328 3.1517 90.8182 4.79165 90.0699 5.94172C89.3847 6.99474 88.1136 7.95348 85.2371 8.66917L86.2029 12.5508C89.5964 11.7065 91.9703 10.3553 93.4226 8.12328C94.8118 5.98835 95.1272 3.3683 95.2481 0.617826L91.2519 0.442171ZM87.6316 10.0218C87.4328 9.37602 87.058 8.69456 86.6985 8.1424C86.3297 7.57606 85.867 6.97766 85.391 6.52329L82.6291 9.41671C82.813 9.59234 83.0853 9.92394 83.3465 10.3251C83.617 10.7404 83.7672 11.064 83.8084 11.1982L87.6316 10.0218ZM84.4344 9.92445C87.2157 9.32052 89.2933 8.38536 90.5534 6.57292C91.7496 4.8523 91.9206 2.70316 92.0082 0.613842L88.0118 0.446156C87.9194 2.64684 87.7154 3.6477 87.2691 4.28958C86.8867 4.83964 86.0543 5.47948 83.5856 6.01555L84.4344 9.92445ZM85.8765 3.63959L88.1865 4.47959L89.5535 0.720412L87.2435 -0.119588L85.8765 3.63959ZM86.9805 1.94446C86.5148 3.28669 85.9507 4.30234 85.156 4.94198L87.664 8.05802C89.3293 6.71765 90.2052 4.85331 90.7595 3.25554L86.9805 1.94446ZM87.4659 4.80143L85.2459 3.42143L83.1341 6.81857L85.3541 8.19857L87.4659 4.80143ZM85.3399 6.75638C86.8929 5.66508 87.9401 3.90762 88.4527 2.40629L84.6673 1.11371C84.34 2.07238 83.7071 3.01491 83.0401 3.48362L85.3399 6.75638Z" fill="#EAD377" mask="url(#path-1-outside-1_243_291)"/>
</g>
<defs>
<filter id="filter0_d_243_291" x="0.779785" y="0.5" width="101.75" height="36.2" filterUnits="userSpaceOnUse" color-interpolation-filters="sRGB">
<feFlood flood-opacity="0" result="BackgroundImageFix"/>
<feColorMatrix in="SourceAlpha" type="matrix" values="0 0 0 0 0 0 0 0 0 0 0 0 0 0 0 0 0 0 127 0" result="hardAlpha"/>
<feOffset dy="4"/>
<feGaussianBlur stdDeviation="2"/>
<feComposite in2="hardAlpha" operator="out"/>
<feColorMatrix type="matrix" values="0 0 0 0 0 0 0 0 0 0 0 0 0 0 0 0 0 0 0.65 0"/>
<feBlend mode="normal" in2="BackgroundImageFix" result="effect1_dropShadow_243_291"/>
<feBlend mode="normal" in="SourceGraphic" in2="effect1_dropShadow_243_291" result="shape"/>
</filter>
</defs>
</svg>
