<svg width="30" height="30" viewBox="0 0 30 30" fill="none" xmlns="http://www.w3.org/2000/svg">
<circle cx="14.8752" cy="15.0444" r="14.3224" fill="url(#paint0_linear_471_360)"/>
<path d="M14.6295 10.6474C15.5454 9.98959 16.6047 9.49882 17.7885 9.49603C18.3674 9.4944 18.941 9.60464 19.4761 9.82039C20.0113 10.0361 20.4974 10.3531 20.9065 10.7531C21.2961 11.1316 21.6257 11.551 21.8528 12.0779C22.0789 12.6049 22.1834 13.1968 22.1825 13.9038C22.1825 15.9383 20.7526 17.8504 19.2554 19.3422C17.8341 20.7579 16.2028 21.9362 15.2186 22.6478L15.0095 22.799C14.8866 22.8882 14.7376 22.9364 14.5844 22.9364C14.4312 22.9364 14.2822 22.8882 14.1592 22.799L13.9493 22.6478C12.965 21.9362 11.3338 20.7579 9.91249 19.3422C8.41805 17.8532 6.99012 15.9457 6.98537 13.914C6.96631 13.3292 7.07058 12.7469 7.29171 12.2031C7.51284 11.6594 7.8461 11.1658 8.27079 10.7531C9.95049 9.11102 12.8957 9.06741 14.6295 10.6474ZM13.5341 11.5593C12.3465 10.601 10.379 10.6622 9.27785 11.7365C8.98771 12.0194 8.76082 12.358 8.61152 12.7309C8.46222 13.1037 8.39375 13.5028 8.41045 13.9028C8.41045 15.3464 9.46406 16.9087 10.93 18.3681C12.1736 19.6066 13.5959 20.6587 14.5839 21.3758C14.9193 21.1327 15.3041 20.8516 15.7154 20.5362L14.4557 19.4016C14.3168 19.2763 14.2346 19.1024 14.2271 18.9179C14.2197 18.7335 14.2875 18.5537 14.4158 18.4182C14.544 18.2826 14.7222 18.2023 14.911 18.195C15.0999 18.1877 15.284 18.254 15.4228 18.3792L16.8289 19.6465C17.1405 19.3858 17.455 19.1112 17.7638 18.8236L16.4745 17.662C16.3356 17.5367 16.2533 17.3625 16.2458 17.1779C16.2383 16.9934 16.3063 16.8134 16.4346 16.6777C16.563 16.542 16.7413 16.4617 16.9304 16.4544C17.1194 16.4471 17.3037 16.5134 17.4426 16.6387L18.7575 17.8263C19.0381 17.5207 19.2946 17.213 19.5271 16.9032L19.2582 16.6397L18.1495 15.5561C17.5091 14.9335 16.4584 14.94 15.799 15.5839C15.5432 15.8344 15.2892 16.0809 15.0371 16.3233C14.1887 17.1416 12.8339 17.1054 12.0112 16.2936C11.6831 15.9695 11.3528 15.6457 11.0203 15.3223C10.8938 15.1985 10.8198 15.0329 10.8127 14.8582C10.8057 14.6836 10.8662 14.5127 10.9823 14.3797C11.1368 14.2016 11.3015 14.0089 11.4763 13.8017C12.0653 13.1077 12.7646 12.283 13.5341 11.5593ZM20.2909 15.6804C20.5883 15.0773 20.7574 14.4808 20.7574 13.9028C20.7574 13.3332 20.6738 12.9324 20.5389 12.617C20.403 12.3025 20.1997 12.0297 19.8995 11.7365C19.6236 11.4654 19.2952 11.2507 18.9334 11.1049C18.5716 10.9592 18.1836 10.8853 17.7923 10.8877C16.7548 10.8904 15.7354 11.4693 14.7274 12.3739C13.9455 13.0743 13.251 13.8926 12.6107 14.6469L12.49 14.7897L13.0239 15.3149C13.1558 15.4482 13.3365 15.5251 13.5264 15.5285C13.7162 15.532 13.8997 15.4618 14.0367 15.3334L14.791 14.6005C15.9862 13.4334 17.9376 13.3851 19.1556 14.5708C19.5318 14.9363 19.908 15.3046 20.27 15.659L20.2909 15.6804Z" fill="white"/>
<defs>
<linearGradient id="paint0_linear_471_360" x1="14.8752" y1="0.721924" x2="14.8752" y2="29.3668" gradientUnits="userSpaceOnUse">
<stop stop-color="#FCE483"/>
<stop offset="1" stop-color="#FFA653"/>
</linearGradient>
</defs>
</svg>
