<svg width="351" height="365" viewBox="0 0 351 365" fill="none" xmlns="http://www.w3.org/2000/svg">
<path fill-rule="evenodd" clip-rule="evenodd" d="M76.2411 39.6287C76.2411 39.6287 70.0025 32.5449 66.8403 34.2779C47.5459 44.8548 47.8302 63.0354 60.8275 73.6104L76.2411 39.6287Z" fill="#415040" stroke="white" stroke-width="3.25175" stroke-miterlimit="1.5" stroke-linecap="round" stroke-linejoin="round"/>
<path fill-rule="evenodd" clip-rule="evenodd" d="M127.409 134.251L203.908 63.7421C178.991 48.1843 158.855 30.8021 144.532 9.74361C130.633 6.40424 122.377 11.6518 118.635 23.7631C121.779 33.9623 126.526 45.2656 132.265 57.2542C137.524 57.8578 142.855 57.8383 148.231 57.4489C140.382 57.9182 135.577 57.5813 132.265 57.2542C115.194 56.0742 97.9383 49.6875 80.4704 37.1985C61.9665 46.4845 58.8686 63.6681 61.7777 83.9302C76.8545 103.413 99.6421 119.824 127.409 134.251Z" fill="#A9A9A9"/>
<path d="M132.265 57.2542C126.526 45.2656 121.779 33.9623 118.635 23.7631C122.377 11.6518 130.633 6.40424 144.532 9.74361C158.855 30.8021 178.991 48.1843 203.908 63.7421L127.408 134.251C99.6421 119.824 76.8545 103.413 61.7777 83.9302C58.8686 63.6681 61.9665 46.4845 80.4704 37.1985C97.9383 49.6875 115.194 56.0742 132.265 57.2542ZM132.265 57.2542C137.524 57.8578 142.855 57.8383 148.231 57.4489C140.382 57.9182 135.577 57.5813 132.265 57.2542Z" stroke="white" stroke-width="3.25175" stroke-miterlimit="1.5" stroke-linecap="round" stroke-linejoin="round"/>
<path d="M85.942 107.97C81.0897 86.8977 71.7687 65.183 100.462 48.9184" stroke="white" stroke-width="3.25175" stroke-miterlimit="1.5" stroke-linecap="round" stroke-linejoin="round"/>
<path d="M123.67 37.8469C128.43 29.8695 134.519 22.5851 154.618 22.6279" stroke="white" stroke-width="3.25175" stroke-miterlimit="1.5" stroke-linecap="round" stroke-linejoin="round"/>
<path fill-rule="evenodd" clip-rule="evenodd" d="M129.539 145.655C149.339 105.604 173.64 80.8577 210.346 71.0791L205.672 63.4852C171.591 68.1253 140.883 91.277 123.67 130.726C120.745 135.111 125.524 142.068 129.539 145.655Z" fill="#575757" stroke="white" stroke-width="3.25175" stroke-miterlimit="1.5" stroke-linecap="round" stroke-linejoin="round"/>
<path fill-rule="evenodd" clip-rule="evenodd" d="M210.834 69.3558C179.195 76.7238 123.812 121.401 131.486 152.941C134.342 164.681 148.525 170.139 155.241 180.314" fill="#A9A9A9"/>
<path d="M210.834 69.3558C179.195 76.7238 123.812 121.401 131.486 152.941C134.342 164.681 148.525 170.139 155.241 180.314" stroke="white" stroke-width="3.25175" stroke-miterlimit="1.5" stroke-linecap="round" stroke-linejoin="round"/>
<path fill-rule="evenodd" clip-rule="evenodd" d="M153.489 155.586C158.148 175.947 156.768 202.921 148.426 226.922C166.984 220.591 186.908 227.624 204.829 243.599C204.325 227.813 220.909 189.256 225.366 187.589" fill="#A9A9A9"/>
<path d="M153.489 155.586C158.148 175.947 156.768 202.921 148.426 226.922C166.984 220.591 186.908 227.624 204.829 243.599C204.325 227.813 220.909 189.256 225.366 187.589" stroke="white" stroke-width="3.25175" stroke-miterlimit="1.5" stroke-linecap="round" stroke-linejoin="round"/>
<path fill-rule="evenodd" clip-rule="evenodd" d="M255.909 73.0261L291.542 89.1875C295.352 85.1238 296.215 79.4439 296.799 73.6103C294.422 66.6083 287.192 62.3285 273.044 61.9273C257.65 68.61 253.313 71.8851 255.909 73.0261Z" fill="#A9A9A9" stroke="white" stroke-width="3.25175" stroke-miterlimit="1.5" stroke-linecap="round" stroke-linejoin="round"/>
<path d="M303.143 195.355C329.137 158.4 323.211 109.452 289.908 86.0269C256.604 62.6019 208.535 73.5703 182.541 110.526C156.547 147.481 162.473 196.429 195.776 219.854C229.08 243.279 277.149 232.31 303.143 195.355Z" fill="#6FA385" stroke="white" stroke-width="3.21305" stroke-miterlimit="1.5" stroke-linecap="round" stroke-linejoin="round"/>
<path fill-rule="evenodd" clip-rule="evenodd" d="M312.571 143.124C311.51 185.064 244.844 241.342 221.25 223.541C183.487 153.956 279.83 57.1842 312.571 143.124Z" fill="#EBE1CE"/>
<mask id="mask0_221_588" style="mask-type:luminance" maskUnits="userSpaceOnUse" x="212" y="109" width="101" height="118">
<path d="M312.572 143.124C311.51 185.064 244.844 241.342 221.25 223.541C183.487 153.956 279.83 57.1842 312.572 143.124Z" fill="white"/>
</mask>
<g mask="url(#mask0_221_588)">
<path fill-rule="evenodd" clip-rule="evenodd" d="M221.227 223.498C236.224 192.04 248.693 194.166 259.574 217.386L237.411 231.135L221.227 223.498Z" fill="#E9BAB0" stroke="white" stroke-width="3.61197" stroke-miterlimit="1.5" stroke-linecap="round" stroke-linejoin="round"/>
<path fill-rule="evenodd" clip-rule="evenodd" d="M303.038 172.765C296.848 161.622 295.974 148.673 307.227 131.608L319.803 144.097L303.038 172.765Z" fill="#E9BAB0" stroke="white" stroke-width="3.05509" stroke-miterlimit="1.5" stroke-linecap="round" stroke-linejoin="round"/>
<path fill-rule="evenodd" clip-rule="evenodd" d="M302.81 124.834C297.004 127.099 288.723 126.02 277.328 120.731C280.28 125.874 280.872 131.945 279.859 138.645L258.441 163.374C255.909 156.092 253.378 152.887 250.847 152.941C252.613 159.649 250.911 166.521 246.952 173.499L225.366 198.618L220.666 190.05C222.19 197.714 219.295 204.009 212.614 209.132C192.742 157.19 267.725 65.2803 302.81 124.834Z" fill="#A14C4C" stroke="white" stroke-width="3.05509" stroke-miterlimit="1.5" stroke-linecap="round" stroke-linejoin="round"/>
</g>
<path fill-rule="evenodd" clip-rule="evenodd" d="M312.571 143.124C311.51 185.064 244.844 241.342 221.25 223.541C183.487 153.956 279.83 57.1842 312.571 143.124Z" stroke="white" stroke-width="3.25175" stroke-miterlimit="1.5" stroke-linecap="round" stroke-linejoin="round"/>
<path fill-rule="evenodd" clip-rule="evenodd" d="M215.992 120.731C232.103 91.9428 226.92 66.9355 204.504 44.9871C191.485 83.017 193.012 110.012 215.992 120.731Z" fill="#194D15" stroke="white" stroke-width="3.25175" stroke-miterlimit="1.5" stroke-linecap="round" stroke-linejoin="round"/>
<path fill-rule="evenodd" clip-rule="evenodd" d="M215.992 120.731C186.672 107.582 163.892 108.959 148.426 126.573C171.356 137.701 193.931 137.42 215.992 120.731Z" fill="#194D15" stroke="white" stroke-width="3.25175" stroke-miterlimit="1.5" stroke-linecap="round" stroke-linejoin="round"/>
<path fill-rule="evenodd" clip-rule="evenodd" d="M143.169 244.181C136.229 265.532 132.436 281.405 135.77 284.877L181.139 293.639C180.097 287.614 183.446 277.014 192.432 260.537C184.503 246.905 172.655 237.051 143.169 244.181Z" fill="#A9A9A9" stroke="white" stroke-width="3.25175" stroke-miterlimit="1.5" stroke-linecap="round" stroke-linejoin="round"/>
<path fill-rule="evenodd" clip-rule="evenodd" d="M145.31 228.409C141.658 233.291 139.642 238.758 139.664 244.96C158.744 240.252 179.298 248.698 195.937 262.095C202.864 257.466 205.694 250.836 205.672 244.376C185.632 225.751 165.53 217.441 145.31 228.409Z" fill="#6FA385" stroke="white" stroke-width="3.25175" stroke-miterlimit="1.5" stroke-linecap="round" stroke-linejoin="round"/>
<path d="M164.597 253.303C172.15 255.943 180.442 251.875 183.119 244.216C185.795 236.558 181.842 228.209 174.29 225.569C166.737 222.929 158.444 226.997 155.768 234.656C153.091 242.314 157.044 250.663 164.597 253.303Z" fill="#77B45A" stroke="white" stroke-width="3.24137" stroke-miterlimit="1.5" stroke-linecap="round" stroke-linejoin="round"/>
<path fill-rule="evenodd" clip-rule="evenodd" d="M282.585 55.8912L301.667 65.2726C315.416 61.6626 307.826 58.2375 303.273 58.5569C305.188 48.1396 296.505 26.7988 282.585 55.8912Z" fill="#A9A9A9" stroke="white" stroke-width="3.25175" stroke-miterlimit="1.5" stroke-linecap="round" stroke-linejoin="round"/>
<path fill-rule="evenodd" clip-rule="evenodd" d="M273.044 61.9275L277.912 57.2543C289.174 55.7998 296.525 59.3748 301.667 66.9901C300.331 71.5737 298.665 73.4157 296.799 73.6104C293.006 65.0157 283.747 62.1806 273.044 61.9275Z" fill="#6FA385" stroke="white" stroke-width="3.25175" stroke-miterlimit="1.5" stroke-linecap="round" stroke-linejoin="round"/>
<path d="M167.688 234.875L171.485 244.005" stroke="white" stroke-width="3.25175" stroke-miterlimit="1.5" stroke-linecap="round" stroke-linejoin="round"/>
<path d="M174.308 236.043L164.573 243.518" stroke="white" stroke-width="3.25175" stroke-miterlimit="1.5" stroke-linecap="round" stroke-linejoin="round"/>
<path fill-rule="evenodd" clip-rule="evenodd" d="M140.443 8.75642C140.443 8.75642 138.817 3.58084 135.575 2.3444C129.63 0.0779122 114.781 9.39894 120.387 18.5058C126.402 12.2885 133.081 9.00565 140.443 8.75642Z" fill="#415040" stroke="white" stroke-width="3.25175" stroke-miterlimit="1.5" stroke-linecap="round" stroke-linejoin="round"/>
<path fill-rule="evenodd" clip-rule="evenodd" d="M52.8675 198.119C32.1109 234.161 58.7343 245.934 45.4216 286.723C34.685 319.618 19.0396 340.801 2 362.958C26.061 351.876 40.7055 349.586 58.043 342.953C79.9621 334.564 104.284 321.144 112.014 301.126C117.801 286.142 120.769 267.379 128.302 260.736L52.8675 198.119Z" fill="#77B45A" stroke="white" stroke-width="3.25175" stroke-miterlimit="1.5" stroke-linecap="round" stroke-linejoin="round"/>
<path d="M98.5472 296.852C108.529 291.505 111.39 277.406 104.937 265.362C98.4849 253.318 85.1621 247.89 75.1803 253.238C65.1985 258.585 62.3376 272.684 68.7902 284.728C75.2428 296.772 88.5654 302.2 98.5472 296.852Z" fill="white" stroke="white" stroke-width="3.25043" stroke-miterlimit="1.5" stroke-linecap="round" stroke-linejoin="round"/>
<path fill-rule="evenodd" clip-rule="evenodd" d="M82.2228 263.263C81.4108 263.425 84.1699 273.194 84.1699 273.194C84.1699 273.194 75.5694 275.628 75.7972 276.504C76.025 277.38 85.5329 278.451 85.5329 278.451C85.5329 278.451 90.1419 290.751 90.985 290.718C91.8281 290.685 90.5955 278.256 90.5955 278.256C90.5955 278.256 99.6167 276.052 99.3577 275.047C99.0988 274.041 89.0378 272.22 89.0378 272.22C89.0378 272.22 83.0347 263.102 82.2228 263.263Z" fill="#77B45A"/>
<path fill-rule="evenodd" clip-rule="evenodd" d="M152.128 263.256C161.558 258.746 166.983 259.936 166.361 269.726L158.551 273.194L152.128 263.256Z" stroke="white" stroke-width="3.25175" stroke-miterlimit="1.5" stroke-linecap="round" stroke-linejoin="round"/>
<path fill-rule="evenodd" clip-rule="evenodd" d="M151.931 269.513C157.27 265.707 143.735 258.571 137.927 267.716C126.828 285.192 127.621 298.698 132.849 303.18L139.144 309.021C139.757 284.725 146.391 275.221 151.931 269.513Z" fill="#6FA385" stroke="white" stroke-width="3.25175" stroke-miterlimit="1.5" stroke-linecap="round" stroke-linejoin="round"/>
<path fill-rule="evenodd" clip-rule="evenodd" d="M46.2005 174.473L235.074 332.777C236.539 339.705 234.346 343.434 227.286 342.902L37.0488 184.988C37.152 176.605 39.8118 173.914 46.2005 174.473Z" fill="white" stroke="white" stroke-width="3.25175" stroke-miterlimit="1.5" stroke-linecap="round" stroke-linejoin="round"/>
<path fill-rule="evenodd" clip-rule="evenodd" d="M166.361 269.726C146.769 267.699 137.257 280.164 139.144 309.021C149.955 337.718 202.915 314.401 176.854 276.699C173.891 273.059 170.425 270.655 166.361 269.726Z" fill="#A9A9A9" stroke="white" stroke-width="3.25175" stroke-miterlimit="1.5" stroke-linecap="round" stroke-linejoin="round"/>
<path fill-rule="evenodd" clip-rule="evenodd" d="M39.1652 191.385L50.8734 175.576C58.6445 173.662 58.738 176.086 57.375 181.074L45.2948 196.474C39.2879 199.81 37.2745 198.075 39.1652 191.385Z" fill="#194D15" stroke="white" stroke-width="3.25175" stroke-miterlimit="1.5" stroke-linecap="round" stroke-linejoin="round"/>
<path fill-rule="evenodd" clip-rule="evenodd" d="M283.947 153.034C288.212 151.622 290.926 166.96 286.673 168.204C282.882 169.312 280.633 154.13 283.947 153.034Z" fill="#5F5B5B"/>
<path fill-rule="evenodd" clip-rule="evenodd" d="M259.886 178.373C263.902 176.36 268.805 191.145 264.776 192.99C261.185 194.634 256.765 179.936 259.886 178.373Z" fill="#5F5B5B"/>
<path d="M63.4835 244.869C63.4386 243.537 63.6715 242.243 64.1778 241.068C64.6829 239.889 65.448 238.859 66.4224 238.033C66.4224 238.033 70.2869 241.802 70.5517 246.144C70.8165 250.486 67.454 253.831 67.454 253.831C66.8533 252.454 66.1873 251.1 65.454 249.772C64.771 248.466 63.5955 246.478 63.4835 244.869Z" fill="white"/>
<path d="M62.0916 253.847C61.5197 253.899 61.0168 254.068 60.6077 254.341C60.2046 254.619 59.902 254.997 59.7245 255.451C61.0877 256.279 62.5544 256.739 63.8808 256.753C65.118 256.583 66.0687 255.976 66.5715 255.033C66.5715 255.033 65.6393 254.803 64.5324 254.444C63.7076 254.098 62.8747 253.895 62.0916 253.847Z" fill="white"/>
</svg>
