<svg width="241" height="277" viewBox="0 0 241 277" fill="none" xmlns="http://www.w3.org/2000/svg">
<path fill-rule="evenodd" clip-rule="evenodd" d="M190.956 117.67C206.531 96.9246 239.335 66.7274 214.421 53.195C204.845 47.9922 194.782 51.1415 189.51 67.1725C188.893 70.65 192.517 69.8315 193.131 66.9109C195.256 56.7751 205.684 50.7244 213.206 56.0637C230.639 68.4319 208.083 92.2721 187.668 116.357L190.956 117.67Z" fill="white"/>
<path fill-rule="evenodd" clip-rule="evenodd" d="M138.353 187.544C108.861 231.865 89.1584 250.851 78.7145 245.873C70.7765 244.549 78.7437 232.709 84.7108 206.755C81.6543 203.143 76.0775 196.978 60.8225 198.751C43.1437 207.029 28.9487 216.713 22.1679 205.638C17.7458 198.415 37.4534 189.546 40.2177 182.865L138.353 187.544Z" fill="white"/>
<path fill-rule="evenodd" clip-rule="evenodd" d="M123.84 191.218C170.364 184.368 225.873 124.386 216.515 110.754C210.79 107.24 204.121 110.08 196.904 116.615C193.251 119.921 186.293 116.449 183.773 113.168C182.142 111.356 179.458 110.405 177.036 110.102C179.293 110.354 181.999 111.329 183.773 113.168C192.471 106.651 196.153 96.3918 191.589 93.2174C185.9 89.2598 160.723 115.096 139.832 127.522L123.84 191.218Z" fill="white"/>
<path d="M183.773 113.168C186.293 116.449 193.251 119.921 196.904 116.615C204.121 110.08 210.79 107.24 216.515 110.754C225.873 124.386 170.364 184.368 123.84 191.218L139.832 127.522C160.723 115.096 185.9 89.2598 191.589 93.2174C196.153 96.3918 192.471 106.651 183.773 113.168ZM183.773 113.168C182.142 111.356 179.458 110.405 177.036 110.102C179.293 110.354 181.999 111.329 183.773 113.168Z" stroke="white" stroke-width="2.16913" stroke-miterlimit="1.5" stroke-linecap="round" stroke-linejoin="round"/>
<path fill-rule="evenodd" clip-rule="evenodd" d="M133.26 60.2746L100.664 80.7248L104.303 88.6099L87.4523 106.425L127.088 144.149L154.834 130.526L150.149 103.166L171.668 87.3283L133.26 60.2746Z" fill="#B5B5B6" stroke="white" stroke-width="4.33631" stroke-miterlimit="1.5" stroke-linecap="round" stroke-linejoin="round"/>
<path fill-rule="evenodd" clip-rule="evenodd" d="M31.35 144.021C45.1423 82.1441 136.022 71.1735 144.737 147.913C151.568 208.05 14.3433 220.326 31.35 144.021Z" fill="#6FA385"/>
<mask id="mask0_221_744" style="mask-type:luminance" maskUnits="userSpaceOnUse" x="29" y="93" width="116" height="105">
<path d="M31.3497 144.021C45.1421 82.1442 136.021 71.1733 144.736 147.913C151.567 208.05 14.3428 220.327 31.3497 144.021Z" fill="white"/>
</mask>
<g mask="url(#mask0_221_744)">
<path fill-rule="evenodd" clip-rule="evenodd" d="M121.547 144.751L125.919 144.912C136.362 156.723 134.72 167.697 125.41 187.008C117.473 191.303 110.85 196.275 110.836 192.454L121.547 144.751Z" fill="#77B45A" stroke="white" stroke-width="11.1105" stroke-miterlimit="1.5" stroke-linecap="round" stroke-linejoin="round"/>
<path fill-rule="evenodd" clip-rule="evenodd" d="M73.6399 119.066C77.1789 120.631 76.1196 128.489 76.1959 134C83.7289 133.719 90.6154 135.333 97.2029 137.823C101.878 131.823 110.791 123.261 114.893 125.015C119.076 126.806 120.653 137.132 121.547 144.751C133.255 190.232 112.855 203.877 72.3564 193.487C21.2906 180.387 34.1238 147.808 56.7684 131.759C56.7684 131.759 67.8301 117.231 73.6399 119.066Z" fill="white"/>
<path fill-rule="evenodd" clip-rule="evenodd" d="M58.625 153.496C61.5193 155.085 56.2366 163.387 53.4221 161.728C50.9135 160.249 56.3761 152.26 58.625 153.496Z" fill="#3E3E3E"/>
<path fill-rule="evenodd" clip-rule="evenodd" d="M84.9016 161.201C88.0423 162.254 83.9809 171.663 80.9098 170.525C78.1725 169.51 82.461 160.382 84.9016 161.201Z" fill="#3E3E3E"/>
<path fill-rule="evenodd" clip-rule="evenodd" d="M59.2504 170.669C60.6727 166.9 69.6123 169.804 68.1251 173.514C67.3575 175.43 63.8973 176.048 61.75 175.352C59.4888 174.617 58.5715 172.467 59.2504 170.669Z" fill="#3E3E3E"/>
</g>
<path fill-rule="evenodd" clip-rule="evenodd" d="M31.35 144.021C45.1423 82.1441 136.022 71.1735 144.737 147.913C151.568 208.05 14.3433 220.326 31.35 144.021Z" stroke="white" stroke-width="3.25175" stroke-miterlimit="1.5" stroke-linecap="round" stroke-linejoin="round"/>
<path fill-rule="evenodd" clip-rule="evenodd" d="M177.036 110.102C182.167 110.954 192.066 104.718 192.637 104.627C190.935 107.891 186.247 113.224 185.435 113.237C180.322 110.352 180.03 110.791 177.036 110.102Z" fill="#C5C5C5"/>
<path d="M112.45 92.9023C108.011 96.2771 105.35 99.4002 105.334 102.153" stroke="white" stroke-width="4.33631" stroke-miterlimit="1.5" stroke-linecap="round" stroke-linejoin="round"/>
<path d="M139.271 110.396C135.694 116.035 133.529 118.317 128.211 119.034" stroke="white" stroke-width="4.33631" stroke-miterlimit="1.5" stroke-linecap="round" stroke-linejoin="round"/>
<path d="M128.882 84.0028C126.587 90.1488 134.896 92.5241 136.743 86.9099" stroke="white" stroke-width="3.25175" stroke-miterlimit="1.5" stroke-linecap="round" stroke-linejoin="round"/>
<path d="M124.324 79.5353C125.562 80.0596 126.99 79.4812 127.514 78.2435C128.039 77.0057 127.46 75.5773 126.223 75.053C124.985 74.5287 123.556 75.1071 123.032 76.3449C122.508 77.5826 123.086 79.0111 124.324 79.5353Z" fill="white" stroke="white" stroke-width="0.194715" stroke-miterlimit="1.5" stroke-linecap="round" stroke-linejoin="round"/>
<path d="M144.584 88.1172C145.822 88.6415 147.25 88.0631 147.774 86.8253C148.299 85.5875 147.72 84.1591 146.483 83.6348C145.245 83.1105 143.816 83.6889 143.292 84.9267C142.768 86.1645 143.346 87.5929 144.584 88.1172Z" fill="white" stroke="white" stroke-width="0.194715" stroke-miterlimit="1.5" stroke-linecap="round" stroke-linejoin="round"/>
<path fill-rule="evenodd" clip-rule="evenodd" d="M148.371 56.0978C149.579 51.6041 152.997 48.0485 159.99 46.0055C158.997 55.9783 153.976 56.924 148.371 56.0978Z" fill="white"/>
<path fill-rule="evenodd" clip-rule="evenodd" d="M142.15 53.4625C143.932 50.481 144.063 46.8018 141.527 41.991C136.695 47.7029 138.796 50.8863 142.15 53.4625Z" fill="white"/>
</svg>
