<svg width="232" height="201" viewBox="0 0 232 201" fill="none" xmlns="http://www.w3.org/2000/svg">
<path fill-rule="evenodd" clip-rule="evenodd" d="M91.687 134.66C102.997 134.66 112.179 143.842 112.179 155.152C112.179 166.462 102.997 175.645 91.687 175.645C80.3764 175.645 71.1946 166.462 71.1946 155.152C71.1946 143.842 80.3764 134.66 91.687 134.66ZM98.6333 167.577C98.0028 167.651 96.9589 167.669 95.501 167.632C94.4773 167.596 93.837 167.229 93.5807 166.532C93.206 165.469 93.8561 164.982 95.531 165.074C96.1021 165.092 96.7424 165.101 97.4514 165.101C98.0622 165.101 98.5149 164.964 98.8105 164.689C99.2839 164.267 99.6777 163.112 99.9924 161.223C100.308 159.26 100.593 156.289 100.85 152.31C100.869 151.815 100.83 151.476 100.731 151.292C100.633 151.127 100.456 151.044 100.2 151.044H91.7486C91.4923 154.18 90.7931 156.922 89.6505 159.269C88.1533 162.332 85.8387 164.9 82.7064 166.972C82.2341 167.247 81.7809 167.412 81.3473 167.467C80.8155 167.522 80.3923 167.394 80.0765 167.082C79.6631 166.679 79.5845 166.247 79.8403 165.789C80.0372 165.386 80.4408 165.001 81.0522 164.634C85.7399 161.406 88.3404 156.876 88.8526 151.044H81.17C80.2445 151.044 79.7814 150.605 79.7814 149.724C79.7814 148.862 80.2445 148.431 81.17 148.431H89.0004V143.975C89.0004 143.094 89.483 142.654 90.4484 142.654C91.3941 142.654 91.8665 143.094 91.8665 143.975V148.431H101.884C102.534 148.431 103.007 148.67 103.302 149.146C103.617 149.697 103.736 150.641 103.657 151.98C103.342 156.803 103.016 160.237 102.682 162.282C102.347 164.326 101.894 165.67 101.322 166.312C100.948 166.733 100.544 167.045 100.111 167.247C99.717 167.412 99.2245 167.522 98.6333 167.577Z" fill="white"/>
<path fill-rule="evenodd" clip-rule="evenodd" d="M230.075 24.2527C230.075 23.6304 229.828 23.0334 229.388 22.5932C228.948 22.1535 228.351 21.9061 227.729 21.9061H89.2852C73.3477 21.8766 61.1032 34.9518 61.1271 50.0643V153.311C61.1426 158.961 59.1204 163.852 56.4341 167.39C49.8381 175.626 40.2198 185.319 31.242 194.703C30.7831 195.184 30.5362 195.829 30.5569 196.493C30.577 197.158 30.8633 197.787 31.3514 198.238C31.3584 198.245 31.3659 198.252 31.3734 198.259C32.2876 199.105 33.7115 199.061 34.5713 198.16C43.3847 188.941 52.3488 179.982 60.5719 169.752C64.0063 164.709 65.8065 159.244 65.8201 153.311V50.0643C65.8159 37.1833 76.3235 26.5973 89.2852 26.5992H227.729C228.351 26.5992 228.948 26.3518 229.388 25.9121C229.828 25.4719 230.075 24.8749 230.075 24.2527Z" fill="white" stroke="white" stroke-width="3.60893" stroke-miterlimit="2" stroke-linejoin="round"/>
<path fill-rule="evenodd" clip-rule="evenodd" d="M129.144 111.02H124.451V186.108C124.42 190.463 120.899 193.078 117.372 193.148C115.366 193.188 113.641 192.434 112.269 191.091C111.827 191.271 108.706 194.117 110.985 196.029C111.909 196.805 114.647 198.007 117.372 197.915C125.194 197.653 129.171 191.504 129.144 186.108V111.02Z" fill="white" stroke="white" stroke-width="3.60893" stroke-miterlimit="2" stroke-linejoin="round"/>
<path fill-rule="evenodd" clip-rule="evenodd" d="M114.222 195.786C114.631 195.316 114.836 194.704 114.793 194.083C114.75 193.462 114.462 192.884 113.993 192.475L103.944 183.729C103.475 183.32 102.863 183.115 102.242 183.158C101.621 183.201 101.043 183.489 100.634 183.959C100.225 184.428 100.02 185.041 100.063 185.661C100.106 186.282 100.394 186.86 100.863 187.269L110.912 196.015C111.381 196.424 111.994 196.629 112.614 196.586C113.235 196.543 113.814 196.255 114.222 195.786Z" fill="white" stroke="white" stroke-width="3.06794" stroke-miterlimit="2" stroke-linejoin="round"/>
<path fill-rule="evenodd" clip-rule="evenodd" d="M44.4181 49.2427C44.6144 48.3673 44.4547 47.4501 43.9748 46.692C43.4944 45.9345 42.7327 45.3982 41.8578 45.2019L6.14608 37.1922C5.27115 36.996 4.35346 37.1556 3.59556 37.6353C2.83799 38.1159 2.30191 38.877 2.10559 39.7525L2.1053 39.7538C1.90898 40.6293 2.06871 41.5465 2.54854 42.3046C3.02899 43.0621 3.79063 43.5984 4.66556 43.7946L40.3773 51.8044C41.2522 52.0006 42.1699 51.841 42.9278 51.3612C43.6854 50.8807 44.2215 50.1195 44.4178 49.2441L44.4181 49.2427Z" fill="white" stroke="white" stroke-width="3.51152" stroke-miterlimit="2" stroke-linejoin="round"/>
<path fill-rule="evenodd" clip-rule="evenodd" d="M44.7012 86.306C44.7024 84.4338 43.1861 82.9158 41.3141 82.9146L5.8556 82.8914C3.98356 82.8902 2.46532 84.4062 2.4641 86.2785C2.46288 88.1507 3.97913 89.6687 5.85118 89.6699L41.3097 89.6931C43.1817 89.6943 44.6999 88.1782 44.7012 86.306Z" fill="white" stroke="white" stroke-width="3.49127" stroke-miterlimit="2" stroke-linejoin="round"/>
<path fill-rule="evenodd" clip-rule="evenodd" d="M172.073 80.5709C172.074 79.2747 171.024 78.2237 169.728 78.2229L83.8609 78.1668C82.5649 78.166 81.5137 79.2156 81.5129 80.5118C81.512 81.808 82.5618 82.859 83.8579 82.8599L169.725 82.9159C171.021 82.9167 172.072 81.8671 172.073 80.5709Z" fill="white" stroke="white" stroke-width="3.16106" stroke-miterlimit="2" stroke-linejoin="round"/>
<path fill-rule="evenodd" clip-rule="evenodd" d="M156.844 37.6356C156.786 37.016 156.485 36.4447 156.006 36.0473C155.527 35.6503 154.91 35.4595 154.29 35.5173L98.858 40.6911C98.2383 40.7489 97.6676 41.0506 97.2703 41.5293C96.8732 42.0085 96.6822 42.6259 96.74 43.2455C96.7979 43.8651 97.0998 44.4365 97.5788 44.8339C98.0577 45.2308 98.6744 45.4217 99.2941 45.3638L154.726 40.19C155.346 40.1322 155.917 39.8305 156.314 39.3518C156.711 38.8726 156.902 38.2552 156.844 37.6356Z" fill="white" stroke="white" stroke-width="3.50093" stroke-miterlimit="2" stroke-linejoin="round"/>
<path fill-rule="evenodd" clip-rule="evenodd" d="M22.4687 104.247C21.5691 104.248 20.7074 104.607 20.0721 105.244C19.4375 105.882 19.0814 106.745 19.083 107.644L19.2073 180.221C19.2089 181.121 19.5679 181.982 20.2047 182.618C20.8421 183.253 21.7051 183.608 22.6047 183.607L22.606 183.607C23.5056 183.605 24.3673 183.246 25.0026 182.61C25.6372 181.972 25.9933 181.109 25.9918 180.21L25.8674 107.632C25.8659 106.733 25.5068 105.871 24.8701 105.236C24.2326 104.601 23.3697 104.245 22.4701 104.247L22.4687 104.247Z" fill="white" stroke="white" stroke-width="3.55017" stroke-miterlimit="2" stroke-linejoin="round"/>
<path fill-rule="evenodd" clip-rule="evenodd" d="M144.421 146.045C143.735 147.145 144.071 148.592 145.171 149.278L217.67 194.469C218.77 195.154 220.217 194.818 220.902 193.718C221.588 192.618 221.252 191.171 220.153 190.486L147.653 145.295C146.554 144.61 145.107 144.945 144.421 146.045Z" fill="white" stroke="white" stroke-width="3.16712" stroke-miterlimit="2" stroke-linejoin="round"/>
<path fill-rule="evenodd" clip-rule="evenodd" d="M214.811 21.9039C214.811 16.72 210.608 12.5183 205.424 12.519C200.24 12.5196 196.039 16.7222 196.039 21.9061L214.811 21.9039Z" fill="white"/>
<path fill-rule="evenodd" clip-rule="evenodd" d="M173.759 57.1117V104.027C173.759 107.916 170.602 111.074 166.712 111.074H86.9462C83.0566 111.074 79.8992 107.916 79.8992 104.027V57.1117C79.8992 53.2221 83.0566 50.0646 86.9462 50.0646H166.712C170.602 50.0646 173.759 53.2221 173.759 57.1117ZM169.066 61.7911C169.066 57.909 165.915 54.7576 162.033 54.7576H91.6256C87.7435 54.7576 84.5922 57.909 84.5922 61.7911V99.3475C84.5922 103.23 87.7435 106.381 91.6256 106.381H162.033C165.915 106.381 169.066 103.23 169.066 99.3475V61.7911Z" fill="white" stroke="white" stroke-width="3.60893" stroke-miterlimit="2" stroke-linejoin="round"/>
<path d="M195.468 92.0779C195.171 92.6173 194.766 92.7453 194.252 92.4623C193.738 92.1788 193.63 91.7544 193.927 91.1879C195.306 88.4368 196.265 85.0116 196.806 80.9118C197.184 78.1337 197.373 74.7896 197.373 70.8786V61.9782C197.373 61.4659 197.522 61.0612 197.819 60.7647C198.116 60.4677 198.522 60.3195 199.035 60.3195H208.196V57.1237C208.196 56.5302 208.507 56.2337 209.128 56.2337C209.723 56.2337 210.02 56.5302 210.02 57.1237V60.3195H219.789C220.33 60.3195 220.6 60.5894 220.6 61.1288C220.6 61.6953 220.33 61.9782 219.789 61.9782H215.614V64.9317H219.749C220.262 64.9317 220.519 65.1881 220.519 65.7005C220.519 66.2399 220.262 66.5093 219.749 66.5093H215.614V69.9886C215.614 70.5009 215.465 70.9056 215.168 71.2026C214.871 71.4991 214.466 71.6474 213.952 71.6474H205.926C205.412 71.6474 205.008 71.4991 204.71 71.2026C204.413 70.9056 204.264 70.5009 204.264 69.9886V66.5093H199.157V70.8786C199.157 72.0115 199.143 72.8744 199.116 73.4679H219.83C220.343 73.4679 220.6 73.7243 220.6 74.2367C220.6 74.749 220.343 75.0055 219.83 75.0055H210.75V77.5136H217.316C217.83 77.5136 218.235 77.6619 218.532 77.9584C218.83 78.2554 218.978 78.6601 218.978 79.1724V85.8475C218.978 86.3599 218.83 86.7646 218.532 87.061C218.235 87.3581 217.83 87.5063 217.316 87.5063H202.845C202.332 87.5063 201.926 87.3581 201.629 87.061C201.332 86.7646 201.184 86.3599 201.184 85.8475V79.1724C201.184 78.6601 201.332 78.2554 201.629 77.9584C201.926 77.6619 202.332 77.5136 202.845 77.5136H209.088V75.0055H199.076C198.751 82.2065 197.549 87.8975 195.468 92.0779ZM187.158 92.8467C186.321 92.8467 185.807 92.6038 185.618 92.1185C185.375 91.4168 185.821 91.0662 186.956 91.0662C188.253 91.0662 189.009 91.0527 189.226 91.0262C189.739 91.0262 189.996 90.7968 189.996 90.338V77.5136C189.428 77.7295 188.564 78.0395 187.401 78.4442C186.564 78.7407 185.956 78.9565 185.577 79.0913C184.983 79.2801 184.585 79.0507 184.382 78.4036C184.179 77.7565 184.348 77.3519 184.888 77.1901C185.185 77.0819 185.672 76.9201 186.348 76.7043C187.942 76.1919 189.158 75.7873 189.996 75.4908V66.4692H185.497C184.902 66.4692 184.604 66.1587 184.604 65.5387C184.604 64.9452 184.902 64.6487 185.497 64.6487H189.996V57.0831C189.996 56.4896 190.306 56.1931 190.928 56.1931C191.523 56.1931 191.82 56.4896 191.82 57.0831V64.6487H194.941C195.536 64.6487 195.833 64.9452 195.833 65.5387C195.833 66.1587 195.536 66.4692 194.941 66.4692H191.82V74.8837L195.306 73.6702C195.954 73.4814 196.333 73.7243 196.441 74.3984C196.522 74.9378 196.306 75.302 195.792 75.4908L191.82 76.9066V90.338C191.82 91.4439 191.401 92.1721 190.563 92.5226C190.104 92.6849 188.969 92.7926 187.158 92.8467ZM220.032 92.4015C219.573 92.6444 219.195 92.6579 218.897 92.442C217.411 91.4168 215.627 90.3786 213.547 89.3268C212.844 88.9492 212.79 88.558 213.385 88.1534C213.682 87.938 213.992 87.8975 214.317 88.0322C215.425 88.5175 216.6 89.0974 217.843 89.7721C218.195 89.9604 218.681 90.2303 219.303 90.5809C219.708 90.8238 220.005 90.9991 220.194 91.1068C220.789 91.5385 220.735 91.9697 220.032 92.4015ZM199.967 92.5226C199.589 92.6579 199.265 92.5903 198.995 92.3208C198.454 91.7809 198.562 91.3632 199.319 91.0662C201.616 90.2303 203.508 89.2863 204.994 88.2345C205.264 88.0186 205.629 88.0186 206.088 88.2345C206.791 88.5851 206.845 88.9898 206.25 89.448C205.277 90.0956 204.359 90.635 203.494 91.0662C202.386 91.6327 201.21 92.1185 199.967 92.5226ZM203.453 86.0499H209.088V83.1776H202.886V85.4834C202.886 85.8611 203.075 86.0499 203.453 86.0499ZM210.75 86.0499H216.708C217.087 86.0499 217.276 85.8611 217.276 85.4834V83.1776H210.75V86.0499ZM202.886 81.7617H209.088V78.9295H203.453C203.075 78.9295 202.886 79.1183 202.886 79.4959V81.7617ZM210.75 81.7617H217.276V79.4959C217.276 79.1183 217.087 78.9295 216.708 78.9295H210.75V81.7617ZM206.493 70.1504H213.263C213.641 70.1504 213.83 69.9615 213.83 69.5839V66.5093H205.926V69.5839C205.926 69.9615 206.116 70.1504 206.493 70.1504ZM199.157 64.9317H204.264V61.9782H199.724C199.346 61.9782 199.157 62.1671 199.157 62.5447V64.9317ZM205.926 64.9317H213.83V61.9782H205.926V64.9317Z" fill="white"/>
<path d="M227.729 150.076C227.392 150.765 226.84 150.989 226.072 150.75C222.455 149.65 219.197 147.675 216.296 144.824C213.484 142.092 211.117 138.686 209.192 134.608L203.368 135.573L205.827 150.407C206.582 150.149 207.742 149.724 209.309 149.131C212.02 148.115 214.08 147.357 215.488 146.857C216.238 146.566 216.711 146.804 216.908 147.572C217.044 148.182 216.787 148.624 216.139 148.898C211.963 150.49 206.981 152.349 201.194 154.473C200.573 154.71 200.103 154.488 199.782 153.808C199.451 153.063 199.68 152.559 200.468 152.295C200.862 152.163 201.468 151.946 202.285 151.644C202.843 151.452 203.269 151.298 203.562 151.182L201.039 135.959L197.646 136.521C196.903 136.645 196.473 136.349 196.355 135.636C196.236 134.923 196.548 134.505 197.291 134.381L200.633 133.828L197.465 114.713C197.363 114.097 197.469 113.58 197.781 113.162C198.093 112.743 198.57 112.481 199.211 112.375L218.151 109.236C218.894 109.113 219.324 109.408 219.442 110.121C219.56 110.835 219.248 111.253 218.506 111.376L200.579 114.347C200.106 114.425 199.908 114.691 199.983 115.145L200.692 119.426L217.454 116.648C218.129 116.536 218.521 116.804 218.628 117.452C218.736 118.101 218.452 118.481 217.776 118.593L201.015 121.371L201.845 126.381L218.607 123.603C219.282 123.491 219.673 123.759 219.781 124.407C219.888 125.056 219.604 125.436 218.929 125.548L202.167 128.326L203.014 133.433L223.574 130.026C224.317 129.903 224.747 130.198 224.865 130.911C224.983 131.624 224.671 132.043 223.928 132.166L211.319 134.255C212.659 136.898 214.248 139.267 216.087 141.361C218.751 139.02 220.917 136.912 222.583 135.037C222.929 134.613 223.419 134.532 224.052 134.794C224.914 135.184 225.034 135.697 224.411 136.333C222.055 138.656 219.662 140.752 217.232 142.62C220.099 145.476 223.298 147.412 226.831 148.425C227.846 148.69 228.146 149.241 227.729 150.076ZM193.119 156.611C191.914 156.878 190.392 157.113 188.553 157.318C187.732 157.387 187.172 157.147 186.872 156.597C186.452 155.734 186.927 155.255 188.299 155.161C189.424 155.042 190.662 154.869 192.012 154.645C192.856 154.506 193.421 154.246 193.704 153.866C194.669 152.573 194.796 147.688 194.085 139.211C194.033 138.686 193.95 138.341 193.836 138.177C193.722 138.013 193.53 137.953 193.26 137.998L182.878 139.719C182.832 140.848 180.522 141.338 180.569 139.911C180.685 136.401 180.55 132.911 180.343 129.444C180.32 128.882 180.475 128.406 180.809 128.018C181.144 127.629 181.615 127.384 182.222 127.283L190.73 125.874C191.203 125.795 191.402 125.529 191.326 125.075L190.077 117.537C190.002 117.083 189.728 116.895 189.255 116.973L178.368 118.777C177.591 118.906 177.141 118.598 177.017 117.852C176.894 117.106 177.22 116.669 177.997 116.54L189.745 114.593C190.387 114.487 190.922 114.581 191.353 114.876C191.784 115.171 192.05 115.627 192.152 116.243L193.708 125.63C193.81 126.246 193.705 126.763 193.393 127.182C193.08 127.6 192.604 127.862 191.962 127.968L182.644 129.513C182.672 130.308 182.699 131.519 182.726 133.147C182.806 135.099 182.855 136.541 182.87 137.471L193.96 135.633C194.669 135.516 195.219 135.691 195.609 136.159C196.048 136.719 196.322 137.74 196.428 139.222C196.822 144.32 196.988 148.041 196.925 150.384C196.852 152.661 196.527 154.206 195.95 155.018C195.374 155.83 194.43 156.361 193.119 156.611Z" fill="white"/>
<path fill-rule="evenodd" clip-rule="evenodd" d="M205.947 9.43292H205.421C205.282 9.43292 205.148 9.4883 205.05 9.58685C204.951 9.68541 204.896 9.81869 204.896 9.95807V15.8183H205.947V9.43292Z" fill="white"/>
<path fill-rule="evenodd" clip-rule="evenodd" d="M205.469 10.0535C205.469 10.0535 205.47 5.24154 208.654 3.22914C211.682 1.31551 215.853 0.876322 215.853 0.876322C215.853 0.876322 216.81 5.08618 213.778 7.93946C211.917 9.69074 205.469 10.0535 205.469 10.0535Z" fill="white"/>
<path fill-rule="evenodd" clip-rule="evenodd" d="M206.002 10.0536C206.002 10.0536 205.962 6.56778 203.475 5.08429C201.11 3.67362 197.87 3.32183 197.87 3.32183C197.87 3.32183 197.161 6.36377 199.537 8.45516C200.995 9.73881 206.002 10.0536 206.002 10.0536Z" fill="white"/>
</svg>
