<?xml version="1.0" encoding="UTF-8"?>
<!DOCTYPE svg PUBLIC "-//W3C//DTD SVG 1.1//EN" "http://www.w3.org/Graphics/SVG/1.1/DTD/svg11.dtd">
<svg xmlns="http://www.w3.org/2000/svg" version="1.1" width="1204px" height="535px" style="shape-rendering:geometricPrecision; text-rendering:geometricPrecision; image-rendering:optimizeQuality; fill-rule:evenodd; clip-rule:evenodd" xmlns:xlink="http://www.w3.org/1999/xlink">
<g><path style="opacity:1" fill="#f8f9f9" d="M 889.5,4.5 C 895.878,4.2946 902.211,4.62794 908.5,5.5C 900.233,44.9012 875.9,62.7345 835.5,59C 843.207,45.7507 851.041,32.5841 859,19.5C 867.71,11.3947 877.876,6.3947 889.5,4.5 Z"/></g>
<g><path style="opacity:1" fill="#f3f3f4" d="M 801.5,31.5 C 807.725,31.5296 812.891,33.8629 817,38.5C 820.423,45.0146 823.59,51.6813 826.5,58.5C 818.966,60.0455 812.466,58.0455 807,52.5C 803.406,47.3131 800.906,41.6464 799.5,35.5C 799.803,33.8857 800.47,32.5523 801.5,31.5 Z"/></g>
<g><path style="opacity:1" fill="#fafafb" d="M 80.5,77.5 C 109.303,74.8692 135.97,81.0359 160.5,96C 165.533,99.9 166.7,104.733 164,110.5C 158.743,118.214 151.576,121.047 142.5,119C 120.78,106.991 97.7804,103.657 73.5,109C 56.9686,113.493 50.4686,123.993 54,140.5C 56.4499,145.284 59.9499,149.117 64.5,152C 92.8333,163 121.167,174 149.5,185C 175.315,199.432 184.149,220.932 176,249.5C 167.157,266.998 153.324,278.832 134.5,285C 120.069,289.871 105.236,292.038 90,291.5C 65.0745,292.06 41.5745,286.56 19.5,275C 0.983077,265.049 0.983077,255.049 19.5,245C 24.2574,244.19 28.9241,244.524 33.5,246C 59.6386,262.361 87.6386,266.694 117.5,259C 135.42,252.335 141.253,240.169 135,222.5C 130.357,216.532 124.524,212.032 117.5,209C 99.3962,201.743 81.0629,195.076 62.5,189C 47.4972,184.089 34.3305,176.255 23,165.5C 9.65262,148.268 7.98596,129.935 18,110.5C 28.3945,96.2021 42.2279,86.7021 59.5,82C 66.5695,80.1547 73.5695,78.6547 80.5,77.5 Z"/></g>
<g><path style="opacity:1" fill="#fafafa" d="M 614.5,77.5 C 640.922,75.023 665.255,80.8564 687.5,95C 695.325,101.42 695.325,107.92 687.5,114.5C 682.71,119.119 677.043,120.619 670.5,119C 648.765,105.504 625.765,102.837 601.5,111C 571.154,125.904 556.821,150.404 558.5,184.5C 559.669,241.843 588.669,267.343 645.5,261C 656.046,258.559 665.713,254.226 674.5,248C 686.473,244.986 694.473,249.32 698.5,261C 696.331,267.838 691.998,272.838 685.5,276C 659.633,290.7 631.966,295.367 602.5,290C 547.156,277.025 518.823,242.025 517.5,185C 518.678,134.572 542.678,100.572 589.5,83C 597.869,80.6955 606.202,78.8622 614.5,77.5 Z"/></g>
<g><path style="opacity:1" fill="#fcfcfd" d="M 819.5,77.5 C 848.955,74.8213 876.288,80.988 901.5,96C 930.472,117.948 944.806,147.282 944.5,184C 944.897,222.583 929.564,252.917 898.5,275C 870.714,290.519 841.047,295.519 809.5,290C 753.531,277.014 725.197,241.68 724.5,184C 726.464,121.875 758.131,86.375 819.5,77.5 Z M 783.5,143.5 C 783.833,143.5 784.167,143.5 784.5,143.5C 801.15,152.492 817.816,161.492 834.5,170.5C 850.984,161.758 867.317,152.758 883.5,143.5C 884.167,143.5 884.5,143.833 884.5,144.5C 874.008,156.802 863.508,169.136 853,181.5C 852.362,182.609 851.862,183.775 851.5,185C 862.443,198.947 873.776,212.614 885.5,226C 884.092,226.315 882.759,225.982 881.5,225C 865.731,216.033 849.898,207.199 834,198.5C 817.102,207.699 800.269,217.033 783.5,226.5C 794.113,212.488 805.446,198.488 817.5,184.5C 806.144,170.814 794.81,157.147 783.5,143.5 Z"/></g>
<g><path style="opacity:1" fill="#fdfdfd" d="M 237.5,85.5 C 243.925,85.1304 250.258,85.6304 256.5,87C 261.099,88.5981 263.932,91.7647 265,96.5C 265.667,155.5 265.667,214.5 265,273.5C 260.989,281.355 254.489,285.022 245.5,284.5C 236.511,285.022 230.011,281.355 226,273.5C 225.333,214.167 225.333,154.833 226,95.5C 228.194,90.1709 232.027,86.8375 237.5,85.5 Z"/></g>
<g><path style="opacity:1" fill="#fbfbfb" d="M 321.5,85.5 C 377.168,85.3333 432.834,85.5 488.5,86C 497.891,89.478 500.725,95.978 497,105.5C 495.039,108.135 492.539,109.969 489.5,111C 467.927,111.173 446.427,111.673 425,112.5C 424.667,166.5 424.333,220.5 424,274.5C 419.648,281.408 413.314,284.742 405,284.5C 397.704,284.521 391.704,281.854 387,276.5C 385.908,273.956 385.241,271.289 385,268.5C 384.5,216.168 384.333,163.834 384.5,111.5C 363.164,111.667 341.831,111.5 320.5,111C 311.724,106.338 309.558,99.5042 314,90.5C 316.17,88.1769 318.67,86.5103 321.5,85.5 Z"/></g>
<g><path style="opacity:1" fill="#fbfbfb" d="M 1013.5,85.5 C 1022.96,84.4831 1031.96,85.9831 1040.5,90C 1078.92,139.673 1115.25,190.84 1149.5,243.5C 1149.83,243 1150.17,242.5 1150.5,242C 1148.46,227.234 1146.96,212.4 1146,197.5C 1145.33,163.5 1145.33,129.5 1146,95.5C 1148.02,90.1527 1151.85,86.986 1157.5,86C 1163.57,85.1955 1169.57,85.5288 1175.5,87C 1177.96,88.4578 1180.13,90.2911 1182,92.5C 1183.66,152.442 1183.99,212.442 1183,272.5C 1181.21,275.295 1179.04,277.795 1176.5,280C 1164.14,285.6 1151.81,285.267 1139.5,279C 1101.49,229.149 1065.32,177.983 1031,125.5C 1032.27,143.808 1033.6,162.141 1035,180.5C 1035.67,211.167 1035.67,241.833 1035,272.5C 1034.3,276.066 1032.47,278.9 1029.5,281C 1021.28,284.961 1012.94,285.294 1004.5,282C 999.617,279.736 997.117,275.902 997,270.5C 996.333,213.833 996.333,157.167 997,100.5C 999.495,92.1704 1005,87.1704 1013.5,85.5 Z"/></g>
<g><path style="opacity:1" fill="#444652" d="M 784.5,143.5 C 784.167,143.5 783.833,143.5 783.5,143.5C 781.934,143.024 781.6,142.357 782.5,141.5C 783.522,141.855 784.189,142.522 784.5,143.5 Z"/></g>
<g><path style="opacity:1" fill="#6e7079" d="M 884.5,144.5 C 884.5,143.833 884.167,143.5 883.5,143.5C 884.875,141.93 886.541,141.097 888.5,141C 887.295,142.376 885.962,143.542 884.5,144.5 Z"/></g>
<g><path style="opacity:0.008" fill="#0c0c0c" d="M 694.5,404.5 C 678.259,400.693 663.592,403.693 650.5,413.5C 651.203,411.284 652.536,409.451 654.5,408C 665.838,399.483 678.504,395.316 692.5,395.5C 692.477,398.018 692.144,400.684 691.5,403.5C 692.791,403.263 693.791,403.596 694.5,404.5 Z"/></g>
<g><path style="opacity:1" fill="#f4f4f4" d="M 1179.5,405.5 C 1179.43,407.027 1180.09,408.027 1181.5,408.5C 1182.49,431.425 1182.82,454.425 1182.5,477.5C 1187.25,477.275 1191.91,477.775 1196.5,479C 1198.95,480.863 1199.95,483.363 1199.5,486.5C 1199.95,489.637 1198.95,492.137 1196.5,494C 1191.98,495.586 1187.32,496.42 1182.5,496.5C 1182.67,503.175 1182.5,509.842 1182,516.5C 1180.25,520.756 1177.08,522.756 1172.5,522.5C 1167.95,522.793 1164.78,520.793 1163,516.5C 1162.5,509.842 1162.33,503.175 1162.5,496.5C 1146.79,496.901 1131.12,496.401 1115.5,495C 1108.05,491.916 1105.55,486.416 1108,478.5C 1124.93,454.083 1142.76,430.416 1161.5,407.5C 1162.83,406.833 1163.83,405.833 1164.5,404.5C 1166.16,402.657 1168.33,401.657 1171,401.5C 1174.43,401.798 1177.26,403.131 1179.5,405.5 Z M 1162.5,477.5 C 1151.32,477.828 1140.32,477.495 1129.5,476.5C 1140.31,462.235 1151.15,447.902 1162,433.5C 1162.5,448.163 1162.67,462.83 1162.5,477.5 Z"/></g>
<g><path style="opacity:1" fill="#f7f7f7" d="M 71.5,402.5 C 81.7936,402.725 91.7936,404.559 101.5,408C 107.3,409.886 111.967,413.22 115.5,418C 113.559,423.104 109.892,426.271 104.5,427.5C 98.4619,425.432 92.4619,423.265 86.5,421C 66.8866,416.759 50.7199,422.259 38,437.5C 27.8047,457.08 28.8047,476.08 41,494.5C 52.9757,505.707 67.1423,509.873 83.5,507C 91.6993,505.149 99.5326,502.316 107,498.5C 112.449,499.117 115.949,501.95 117.5,507C 117.385,508.895 116.718,510.562 115.5,512C 89.6242,527.067 62.9575,528.4 35.5,516C 11.2935,500.754 1.7935,478.92 7,450.5C 12.0366,429.794 24.5366,415.627 44.5,408C 53.3945,404.922 62.3945,403.088 71.5,402.5 Z"/></g>
<g><path style="opacity:1" fill="#f7f7f8" d="M 188.5,402.5 C 194.744,402.485 200.744,403.651 206.5,406C 207.667,407.167 208.833,408.333 210,409.5C 226.419,445.098 242.253,480.931 257.5,517C 257.385,518.895 256.718,520.562 255.5,522C 247.959,525.645 240.625,525.311 233.5,521C 228.505,511.506 224.172,501.673 220.5,491.5C 201.509,490.334 182.509,490.167 163.5,491C 159.614,499.322 156.114,507.822 153,516.5C 149.868,522.151 145.035,524.818 138.5,524.5C 134.665,524.61 131.165,523.61 128,521.5C 126.15,518.537 126.15,515.537 128,512.5C 143.275,478.951 158.275,445.285 173,411.5C 176.66,405.791 181.827,402.791 188.5,402.5 Z M 190.5,419.5 C 191.75,419.577 192.583,420.244 193,421.5C 199.642,439.096 206.475,456.596 213.5,474C 198.833,474.667 184.167,474.667 169.5,474C 177.584,456.246 184.584,438.079 190.5,419.5 Z"/></g>
<g><path style="opacity:1" fill="#f7f7f7" d="M 288.5,402.5 C 295.49,402.057 301.323,404.391 306,409.5C 318.055,435.667 329.722,462 341,488.5C 352.176,461.146 364.176,434.146 377,407.5C 384.193,403.062 392.026,401.562 400.5,403C 402.421,403.36 404.088,404.194 405.5,405.5C 406.66,442.792 406.827,480.125 406,517.5C 405.193,520.973 403.027,523.14 399.5,524C 394.889,525.007 390.555,524.34 386.5,522C 385.107,520.829 384.273,519.329 384,517.5C 382.99,487.759 383.657,458.092 386,428.5C 374.388,455.334 362.388,482.001 350,508.5C 345.909,512.305 341.076,513.472 335.5,512C 334.069,511.535 332.903,510.701 332,509.5C 319.347,483.034 307.18,456.367 295.5,429.5C 295.167,429.833 294.833,430.167 294.5,430.5C 295.714,438.772 296.547,447.105 297,455.5C 297.667,476.167 297.667,496.833 297,517.5C 296.167,521 294,523.167 290.5,524C 285.243,525.426 280.743,524.259 277,520.5C 275.347,484.251 275.013,447.918 276,411.5C 276.346,409.152 277.513,407.319 279.5,406C 282.459,404.396 285.459,403.229 288.5,402.5 Z"/></g>
<g><path style="opacity:1" fill="#f6f6f7" d="M 456.5,402.5 C 472.854,402.324 489.187,402.824 505.5,404C 518.563,404.618 529.729,409.452 539,418.5C 546.021,429.799 547.354,441.799 543,454.5C 536.611,466.199 526.778,473.366 513.5,476C 509.853,476.774 506.186,477.441 502.5,478C 490.838,478.5 479.171,478.667 467.5,478.5C 467.927,492.226 467.427,505.893 466,519.5C 461.854,524.089 456.688,525.589 450.5,524C 445.758,522.592 443.258,519.426 443,514.5C 442.333,480.833 442.333,447.167 443,413.5C 444.702,406.399 449.202,402.732 456.5,402.5 Z M 467.5,418.5 C 479.194,418.349 490.861,418.849 502.5,420C 519.845,423.52 525.678,433.687 520,450.5C 514.164,458.182 506.331,462.182 496.5,462.5C 486.833,462.5 477.167,462.5 467.5,462.5C 467.5,447.833 467.5,433.167 467.5,418.5 Z"/></g>
<g><path style="opacity:1" fill="#f3f3f3" d="M 694.5,404.5 C 708.405,407.238 716.905,415.571 720,429.5C 721.954,442.969 718.288,454.635 709,464.5C 698.112,474.356 686.945,483.856 675.5,493C 673.666,495.663 671.666,498.163 669.5,500.5C 668.957,500.56 668.624,500.893 668.5,501.5C 684.152,502.499 699.819,502.833 715.5,502.5C 721.858,504.548 724.025,508.881 722,515.5C 720.833,517.333 719.333,518.833 717.5,520C 694.167,520.667 670.833,520.667 647.5,520C 646.584,519.722 645.918,519.222 645.5,518.5C 645.027,517.094 644.027,516.427 642.5,516.5C 639.67,510.089 640.17,503.756 644,497.5C 644.708,496.619 645.542,495.953 646.5,495.5C 647.906,495.027 648.573,494.027 648.5,492.5C 650.833,489.5 653.5,486.833 656.5,484.5C 659.764,482.906 662.431,480.573 664.5,477.5C 666.962,474.536 669.629,471.703 672.5,469C 679.231,464.304 685.565,459.137 691.5,453.5C 692.906,453.027 693.573,452.027 693.5,450.5C 698.722,442.105 698.722,433.771 693.5,425.5C 693.5,423.5 692.5,422.5 690.5,422.5C 680.802,417.939 672.302,419.606 665,427.5C 663,432.167 661,436.833 659,441.5C 653.631,447.698 647.964,448.032 642,442.5C 639.165,432.504 641.332,423.838 648.5,416.5C 649.906,416.027 650.573,415.027 650.5,413.5C 663.592,403.693 678.259,400.693 694.5,404.5 Z"/></g>
<g><path style="opacity:1" fill="#f0f0f0" d="M 804.5,421.5 C 805.906,421.027 806.573,420.027 806.5,418.5C 810.609,410.906 816.943,406.073 825.5,404C 853.632,399.132 870.799,410.632 877,438.5C 880.223,455.171 880.223,471.838 877,488.5C 869.967,515.432 852.8,526.265 825.5,521C 810.794,514.96 801.96,504.127 799,488.5C 795.727,471.175 795.727,453.841 799,436.5C 799.78,431.002 801.613,426.002 804.5,421.5 Z M 851.5,497.5 C 850.094,497.973 849.427,498.973 849.5,500.5C 837.906,508.927 829.072,506.594 823,493.5C 818.744,474.243 818.41,454.91 822,435.5C 825.019,421.41 833.186,416.91 846.5,422C 851.442,427.142 854.275,433.309 855,440.5C 857.749,459.791 856.582,478.791 851.5,497.5 Z"/></g>
<g><path style="opacity:1" fill="#f2f2f2" d="M 985.5,500.5 C 984.957,500.56 984.624,500.893 984.5,501.5C 1000.15,502.499 1015.82,502.833 1031.5,502.5C 1037.86,504.548 1040.02,508.881 1038,515.5C 1036.83,517.333 1035.33,518.833 1033.5,520C 1010.17,520.667 986.833,520.667 963.5,520C 962.584,519.722 961.918,519.222 961.5,518.5C 961.027,517.094 960.027,516.427 958.5,516.5C 955.67,510.089 956.17,503.756 960,497.5C 960.708,496.619 961.542,495.953 962.5,495.5C 963.906,495.027 964.573,494.027 964.5,492.5C 966.833,489.5 969.5,486.833 972.5,484.5C 975.764,482.906 978.431,480.573 980.5,477.5C 982.962,474.536 985.629,471.703 988.5,469C 995.231,464.304 1001.56,459.137 1007.5,453.5C 1008.91,453.027 1009.57,452.027 1009.5,450.5C 1014.72,442.105 1014.72,433.771 1009.5,425.5C 1009.5,423.5 1008.5,422.5 1006.5,422.5C 996.802,417.939 988.302,419.606 981,427.5C 979,432.167 977,436.833 975,441.5C 969.631,447.698 963.964,448.032 958,442.5C 955.165,432.504 957.332,423.838 964.5,416.5C 965.906,416.027 966.573,415.027 966.5,413.5C 969.358,409.99 973.024,407.657 977.5,406.5C 980.152,406.59 982.485,405.924 984.5,404.5C 997.631,400.938 1010.3,402.438 1022.5,409C 1035.86,420.08 1039.69,433.913 1034,450.5C 1031.39,455.435 1028.39,460.102 1025,464.5C 1014.11,474.356 1002.95,483.856 991.5,493C 989.666,495.663 987.666,498.163 985.5,500.5 Z"/></g>
<g><path style="opacity:0.937" fill="#959595" d="M 984.5,404.5 C 982.485,405.924 980.152,406.59 977.5,406.5C 979.515,405.076 981.848,404.41 984.5,404.5 Z"/></g>
<g><path style="opacity:0.635" fill="#686868" d="M 1164.5,404.5 C 1163.83,405.833 1162.83,406.833 1161.5,407.5C 1161.5,405.5 1162.5,404.5 1164.5,404.5 Z"/></g>
<g><path style="opacity:0.376" fill="#585858" d="M 1179.5,405.5 C 1180.91,405.973 1181.57,406.973 1181.5,408.5C 1180.09,408.027 1179.43,407.027 1179.5,405.5 Z"/></g>
<g><path style="opacity:0.741" fill="#696969" d="M 650.5,413.5 C 650.573,415.027 649.906,416.027 648.5,416.5C 648.427,414.973 649.094,413.973 650.5,413.5 Z"/></g>
<g><path style="opacity:0.741" fill="#696969" d="M 966.5,413.5 C 966.573,415.027 965.906,416.027 964.5,416.5C 964.427,414.973 965.094,413.973 966.5,413.5 Z"/></g>
<g><path style="opacity:0.451" fill="#626262" d="M 806.5,418.5 C 806.573,420.027 805.906,421.027 804.5,421.5C 804.427,419.973 805.094,418.973 806.5,418.5 Z"/></g>
<g><path style="opacity:0.851" fill="#696969" d="M 690.5,422.5 C 692.5,422.5 693.5,423.5 693.5,425.5C 692.167,424.833 691.167,423.833 690.5,422.5 Z"/></g>
<g><path style="opacity:0.851" fill="#696969" d="M 1006.5,422.5 C 1008.5,422.5 1009.5,423.5 1009.5,425.5C 1008.17,424.833 1007.17,423.833 1006.5,422.5 Z"/></g>
<g><path style="opacity:0.761" fill="#6c6c6c" d="M 693.5,450.5 C 693.573,452.027 692.906,453.027 691.5,453.5C 691.427,451.973 692.094,450.973 693.5,450.5 Z"/></g>
<g><path style="opacity:0.761" fill="#6c6c6c" d="M 1009.5,450.5 C 1009.57,452.027 1008.91,453.027 1007.5,453.5C 1007.43,451.973 1008.09,450.973 1009.5,450.5 Z"/></g>
<g><path style="opacity:1" fill="#82848b" d="M 467.5,418.5 C 467.5,433.167 467.5,447.833 467.5,462.5C 477.167,462.5 486.833,462.5 496.5,462.5C 486.681,463.494 476.681,463.827 466.5,463.5C 466.171,448.324 466.504,433.324 467.5,418.5 Z"/></g>
<g><path style="opacity:0.745" fill="#bbbbbb" d="M 1129.5,476.5 C 1140.32,477.495 1151.32,477.828 1162.5,477.5C 1151.33,478.824 1139.99,478.824 1128.5,477.5C 1128.62,476.893 1128.96,476.56 1129.5,476.5 Z"/></g>
<g><path style="opacity:0.714" fill="#767676" d="M 664.5,477.5 C 662.431,480.573 659.764,482.906 656.5,484.5C 658.569,481.427 661.236,479.094 664.5,477.5 Z"/></g>
<g><path style="opacity:0.714" fill="#767676" d="M 980.5,477.5 C 978.431,480.573 975.764,482.906 972.5,484.5C 974.569,481.427 977.236,479.094 980.5,477.5 Z"/></g>
<g><path style="opacity:0.737" fill="#696969" d="M 648.5,492.5 C 648.573,494.027 647.906,495.027 646.5,495.5C 646.427,493.973 647.094,492.973 648.5,492.5 Z"/></g>
<g><path style="opacity:0.737" fill="#696969" d="M 964.5,492.5 C 964.573,494.027 963.906,495.027 962.5,495.5C 962.427,493.973 963.094,492.973 964.5,492.5 Z"/></g>
<g><path style="opacity:0.412" fill="#595959" d="M 851.5,497.5 C 851.573,499.027 850.906,500.027 849.5,500.5C 849.427,498.973 850.094,497.973 851.5,497.5 Z"/></g>
<g><path style="opacity:0.784" fill="#b7b7b7" d="M 669.5,500.5 C 684.833,501.167 700.167,501.833 715.5,502.5C 699.819,502.833 684.152,502.499 668.5,501.5C 668.624,500.893 668.957,500.56 669.5,500.5 Z"/></g>
<g><path style="opacity:0.784" fill="#b7b7b7" d="M 985.5,500.5 C 1000.83,501.167 1016.17,501.833 1031.5,502.5C 1015.82,502.833 1000.15,502.499 984.5,501.5C 984.624,500.893 984.957,500.56 985.5,500.5 Z"/></g>
<g><path style="opacity:0.773" fill="#6b6b6b" d="M 642.5,516.5 C 644.027,516.427 645.027,517.094 645.5,518.5C 643.973,518.573 642.973,517.906 642.5,516.5 Z"/></g>
<g><path style="opacity:0.773" fill="#6b6b6b" d="M 958.5,516.5 C 960.027,516.427 961.027,517.094 961.5,518.5C 959.973,518.573 958.973,517.906 958.5,516.5 Z"/></g>
</svg>
