<svg width="24" height="25" viewBox="0 0 24 25" fill="none" xmlns="http://www.w3.org/2000/svg">
  <g id="speech">
    <path id="Vector"
      d="M4.82074 13.5221C4.82074 13.6547 4.8742 13.7818 4.96937 13.8756C5.06453 13.9694 5.1936 14.0221 5.32819 14.0221H18.5218C18.6564 14.0221 18.7855 13.9694 18.8806 13.8756C18.9758 13.7818 19.0293 13.6547 19.0293 13.5221C18.9974 12.6548 18.7831 11.8035 18.4 11.0221C17.9433 10.1221 16.4717 9.58206 14.4318 8.84206L14.036 8.70206C13.986 8.68389 13.9428 8.65124 13.912 8.60841C13.8812 8.56557 13.8642 8.51455 13.8634 8.46206V7.61206C13.8652 7.57746 13.8742 7.54359 13.8899 7.5126C13.9056 7.48162 13.9277 7.45419 13.9548 7.43206C14.3674 7.02294 14.6344 6.49319 14.716 5.92206C14.7041 5.88291 14.7041 5.84121 14.716 5.80206C14.8363 5.64056 14.9225 5.45695 14.9697 5.26206C15.0699 4.87573 15.023 4.46659 14.8377 4.11206C14.8207 4.07782 14.8119 4.04019 14.8119 4.00206C14.8119 3.96393 14.8207 3.9263 14.8377 3.89206C15.1952 3.15457 15.3459 2.33627 15.2741 1.52206C15.0712 0.462059 13.6909 0.0220585 12.4629 0.0220585C12.0042 -0.0303851 11.5394 0.0109252 11.0976 0.14341C10.6558 0.275894 10.2465 0.496707 9.89521 0.792059C9.88001 0.8167 9.85932 0.83761 9.8347 0.853203C9.81008 0.868797 9.78218 0.878664 9.75312 0.882059C9.45675 0.945635 9.19366 1.11254 9.01225 1.35206C8.83193 1.74836 8.73872 2.17775 8.73872 2.61206C8.73872 3.04636 8.83193 3.47576 9.01225 3.87206C9.02707 3.90514 9.03473 3.9409 9.03473 3.97706C9.03473 4.01322 9.02707 4.04898 9.01225 4.08206C8.81633 4.44417 8.76909 4.86661 8.88031 5.26206C8.92744 5.45695 9.01371 5.64056 9.13404 5.80206C9.14588 5.84121 9.14588 5.88291 9.13404 5.92206C9.21558 6.49319 9.48263 7.02294 9.89521 7.43206C9.92041 7.45508 9.9406 7.48291 9.95455 7.51385C9.96851 7.54479 9.97594 7.5782 9.9764 7.61206V8.44206C9.97559 8.49455 9.95868 8.54557 9.92788 8.58841C9.89709 8.63124 9.85385 8.66389 9.80387 8.68206L9.40806 8.82206C7.37827 9.56206 5.89653 10.1021 5.43983 11.0021C5.05753 11.7904 4.84666 12.6487 4.82074 13.5221Z"
      fill="#1E3D6C" />
    <path id="Vector_2"
      d="M23.85 16.2721C23.8474 16.0739 23.7663 15.8847 23.6242 15.7446C23.482 15.6045 23.2899 15.5246 23.0888 15.5221H0.76117C0.559295 15.5221 0.365689 15.6011 0.222942 15.7417C0.0801945 15.8824 0 16.0731 0 16.2721C0 16.471 0.0801945 16.6617 0.222942 16.8024C0.365689 16.943 0.559295 17.0221 0.76117 17.0221H1.99934C2.05512 17.0243 2.10875 17.0439 2.15251 17.078C2.19628 17.1121 2.22793 17.1591 2.24292 17.2121L3.57243 23.4521C3.61492 23.6142 3.71058 23.758 3.84456 23.8611C3.97854 23.9642 4.14332 24.0208 4.3133 24.0221H19.5367C19.7067 24.0208 19.8715 23.9642 20.0054 23.8611C20.1394 23.758 20.2351 23.6142 20.2776 23.4521L21.6071 17.2121C21.6221 17.1591 21.6537 17.1121 21.6975 17.078C21.7413 17.0439 21.7949 17.0243 21.8507 17.0221H23.0888C23.2899 17.0195 23.482 16.9396 23.6242 16.7995C23.7663 16.6594 23.8474 16.4702 23.85 16.2721Z"
      fill="#1E3D6C" />
  </g>
</svg>