<svg width="22" height="22" viewBox="0 0 22 22" fill="none" xmlns="http://www.w3.org/2000/svg">
<circle cx="11" cy="11" r="11" fill="url(#paint0_linear_256_391)"/>
<path fill-rule="evenodd" clip-rule="evenodd" d="M5.95037 7.18267C5.95037 7.10128 5.9902 6.97517 6.16724 6.81092C6.34427 6.64667 6.62679 6.47729 7.01331 6.32551C7.78489 6.02341 8.88103 5.82617 10.1158 5.82617C11.3507 5.82617 12.4468 6.02341 13.2184 6.32551C13.6056 6.47729 13.8874 6.64667 14.0645 6.81092C14.2415 6.97517 14.2821 7.10128 14.2821 7.18267C14.2821 7.26406 14.2415 7.39018 14.0645 7.5537C13.8874 7.71868 13.6056 7.88732 13.2184 8.0391C12.4475 8.34193 11.3507 8.53918 10.1158 8.53918C8.88103 8.53918 7.78489 8.3412 7.01331 8.0391C6.62679 7.88732 6.34501 7.71868 6.16724 7.5537C5.9902 7.39018 5.95037 7.26406 5.95037 7.18267ZM14.3757 8.47318C14.1375 8.6345 13.8594 8.77381 13.557 8.89187C12.6533 9.24602 11.437 9.45573 10.1158 9.45573C8.79546 9.45573 7.57835 9.24602 6.67547 8.89187C6.38809 8.78251 6.11355 8.64237 5.85669 8.47392V10.3686C5.88546 10.4368 5.94373 10.5211 6.0529 10.6201C6.23584 10.7858 6.52647 10.9559 6.92554 11.1085C7.71924 11.412 8.8471 11.6093 10.1158 11.6093C10.3157 11.6093 10.512 11.6041 10.7037 11.5946C11.0971 11.0144 11.6602 10.5682 12.317 10.3166C12.9737 10.0649 13.6924 10.0199 14.3757 10.1875V8.47318ZM10.1158 12.5266L10.2597 12.5258C10.1636 12.8446 10.1149 13.1756 10.1151 13.5084C10.1151 13.9667 10.2058 14.4029 10.3703 14.8018C10.2862 14.804 10.2007 14.8055 10.1158 14.8055C7.76276 14.8055 5.85669 13.9916 5.85669 12.9907V11.6093C6.07651 11.7435 6.32583 11.8608 6.59433 11.9634C7.51786 12.3169 8.76301 12.5258 10.1158 12.5258V12.5266ZM13.554 16.0095C14.2215 16.0095 14.8617 15.7459 15.3337 15.2767C15.8057 14.8075 16.0708 14.1712 16.0708 13.5076C16.0708 12.8441 15.8057 12.2078 15.3337 11.7386C14.8617 11.2694 14.2215 11.0058 13.554 11.0058C12.8865 11.0058 12.2463 11.2694 11.7743 11.7386C11.3023 12.2078 11.0372 12.8441 11.0372 13.5076C11.0372 14.1712 11.3023 14.8075 11.7743 15.2767C12.2463 15.7459 12.8865 16.0095 13.554 16.0095ZM11.9931 13.5076C11.9931 13.2547 12.1997 13.0494 12.4542 13.0494H14.6538C14.7761 13.0494 14.8934 13.0976 14.9798 13.1836C15.0663 13.2695 15.1149 13.3861 15.1149 13.5076C15.1149 13.6292 15.0663 13.7457 14.9798 13.8317C14.8934 13.9176 14.7761 13.9659 14.6538 13.9659H12.4542C12.3319 13.9659 12.2146 13.9176 12.1282 13.8317C12.0417 13.7457 11.9931 13.6292 11.9931 13.5076Z" fill="white"/>
<defs>
<linearGradient id="paint0_linear_256_391" x1="11" y1="0" x2="11" y2="22" gradientUnits="userSpaceOnUse">
<stop stop-color="#C8AAF7"/>
<stop offset="1" stop-color="#6554BC"/>
</linearGradient>
</defs>
</svg>
