<svg width="23" height="24" viewBox="0 0 23 24" fill="none" xmlns="http://www.w3.org/2000/svg">
<ellipse cx="11.5" cy="11.5348" rx="11.5" ry="11.5348" fill="url(#paint0_linear_256_369)"/>
<path d="M13.9947 11.9491L13.9518 11.9622C13.8644 11.9879 13.7738 12.0015 13.6827 12.0024C13.2862 12.0024 13.0626 11.7347 13.1822 11.4038C13.2706 11.162 13.5014 10.9579 13.7835 10.8636C14.2203 10.7044 14.5257 10.341 14.5257 9.9179C14.5257 9.34785 13.9713 8.88635 13.2875 8.88635C12.6037 8.88635 12.0493 9.34785 12.0493 9.9179V13.0821C12.0493 13.8426 11.6086 14.5101 10.9488 14.8878C10.5718 15.1026 10.1451 15.2151 9.7112 15.2141C8.4216 15.2141 7.3725 14.2579 7.3725 13.0821C7.3725 12.7077 7.4791 12.3561 7.66565 12.0505C7.95425 11.576 8.43525 11.214 9.01115 11.0489C9.10995 11.0177 9.2107 11.0014 9.31015 11.0014C9.70795 11.0014 9.93285 11.2705 9.8126 11.602C9.7307 11.8276 9.5097 12.0213 9.25295 12.124C9.22247 12.1343 9.19233 12.1455 9.1626 12.1578C8.7544 12.3268 8.47295 12.6765 8.47295 13.0821C8.47295 13.6521 9.0274 14.1136 9.7112 14.1136C10.395 14.1136 10.9488 13.6521 10.9488 13.0821V9.9179C10.9488 9.1574 11.3901 8.48985 12.0499 8.1122C12.4269 7.89743 12.8536 7.78495 13.2875 7.7859C14.5771 7.7859 15.6262 8.74205 15.6262 9.9179C15.6254 10.2822 15.524 10.6392 15.333 10.9494C15.0457 11.4213 14.5667 11.7827 13.9947 11.9491ZM5 11.5C5 15.0899 7.91005 18 11.5 18C15.0899 18 18 15.0899 18 11.5C18 7.91005 15.0899 5 11.5 5C7.91005 5 5 7.91005 5 11.5Z" fill="white"/>
<defs>
<linearGradient id="paint0_linear_256_369" x1="11.5" y1="0" x2="11.5" y2="23.0697" gradientUnits="userSpaceOnUse">
<stop stop-color="#97EEEE"/>
<stop offset="1" stop-color="#4BC0C0"/>
</linearGradient>
</defs>
</svg>
