<svg width="23" height="23" viewBox="0 0 23 23" fill="none" xmlns="http://www.w3.org/2000/svg">
<path fill-rule="evenodd" clip-rule="evenodd" d="M19.8115 22.3823C19.8109 16.8674 15.3758 12.3975 9.90516 12.3982C4.43452 12.3988 0.000489328 16.8699 0.00113678 22.3848L9.90633 22.3836L19.8115 22.3823Z" fill="white"/>
<path fill-rule="evenodd" clip-rule="evenodd" d="M10.4606 9.11475H9.90556C9.75836 9.11475 9.61745 9.17366 9.5135 9.27851C9.40956 9.38335 9.3512 9.52515 9.3512 9.67343C9.3512 11.2986 9.3512 15.9078 9.3512 15.9078H10.4606V9.11475Z" fill="white"/>
<path fill-rule="evenodd" clip-rule="evenodd" d="M9.94751 9.77471C9.94751 9.77471 9.95382 4.66203 13.3187 2.51979C16.5182 0.482687 20.9224 0.0106777 20.9224 0.0106777C20.9224 0.0106777 21.9275 4.48235 18.7229 7.51782C16.7561 9.38093 9.94751 9.77471 9.94751 9.77471Z" fill="white"/>
<path fill-rule="evenodd" clip-rule="evenodd" d="M10.5244 9.77494C10.5244 9.77494 10.4786 6.07151 7.85056 4.49216C5.35163 2.99033 1.93034 2.61229 1.93034 2.61229C1.93034 2.61229 1.18613 5.84311 3.69704 8.06815C5.23806 9.43384 10.5244 9.77494 10.5244 9.77494Z" fill="white"/>
</svg>
