<svg width="62" height="26" viewBox="0 0 62 26" fill="none" xmlns="http://www.w3.org/2000/svg">
<rect x="1" y="1" width="60" height="24" rx="12" stroke="url(#paint0_linear_328_1040)" stroke-width="2"/>
<path d="M28.04 8.9H34.676V9.692H28.04V8.9ZM27.884 13.916H34.844V14.696H27.884V13.916ZM29 15.044L29.9 14.612C30.224 14.912 30.608 15.356 30.776 15.656L29.816 16.136C29.66 15.836 29.312 15.38 29 15.044ZM29.468 11.54V11.912H33.224V11.54H29.468ZM29.468 10.628V10.976H33.224V10.628H29.468ZM28.376 10.04H34.364V12.5H28.376V10.04ZM32.108 13.568H33.296V15.452C33.296 15.92 33.2 16.064 32.852 16.172C32.528 16.28 32.048 16.28 31.376 16.28C31.328 16.016 31.196 15.752 31.088 15.548C31.424 15.56 31.832 15.56 31.952 15.548C32.06 15.548 32.108 15.512 32.108 15.404V13.568ZM28.076 12.896C29.552 12.908 31.772 12.896 33.932 12.872L33.896 13.508C31.82 13.58 29.672 13.64 28.124 13.664L28.076 12.896ZM32.768 12.776L33.488 12.296C33.956 12.62 34.496 13.112 34.76 13.436L34.004 14C33.74 13.64 33.2 13.112 32.768 12.776ZM30.752 8.468H31.928V13.148L30.752 13.196V8.468ZM26.348 7.208H36.476V18.056H35.108V8.3H27.656V18.08H26.348V7.208ZM26.984 16.4H35.66V17.492H26.984V16.4ZM44.372 11.972H50.132V12.944H44.372V11.972ZM44.108 16.928H50.252V17.936H44.108V16.928ZM45.956 6.812H46.964V8.456H45.956V6.812ZM47.48 6.812H48.488V8.456H47.48V6.812ZM45.944 14.156V14.828H48.512V14.156H45.944ZM44.792 13.316H49.724V15.668H44.792V13.316ZM45.668 10.112V10.652H48.788V10.112H45.668ZM45.668 8.72V9.26H48.788V8.72H45.668ZM44.624 7.82H49.892V11.564H44.624V7.82ZM45.212 15.932L46.184 15.584C46.472 15.992 46.712 16.556 46.796 16.952L45.764 17.348C45.692 16.964 45.476 16.364 45.212 15.932ZM48.128 15.56L49.316 15.836C49.004 16.376 48.692 16.916 48.464 17.288L47.564 17.012C47.768 16.592 48.008 15.98 48.128 15.56ZM40.58 13.568H43.208V14.516H40.58V13.568ZM40.58 15.056H43.208V16.028H40.58V15.056ZM39.896 12.08H43.136V13.04H41.096V18.092H39.896V12.08ZM42.392 12.08H43.604V16.88C43.604 17.396 43.532 17.696 43.208 17.876C42.896 18.068 42.488 18.08 41.912 18.08C41.876 17.756 41.732 17.288 41.588 16.988C41.864 17 42.152 17 42.248 17C42.356 17 42.392 16.964 42.392 16.856V12.08ZM39.86 7.184H43.652V11.06H42.572V8.204H40.892V11.06H39.86V7.184ZM39.164 10.616H44.384V12.5H43.304V11.588H40.196V12.5H39.164V10.616ZM41.3 8.696H43.292V9.5H42.08V10.94H41.3V8.696ZM46.184 8.228H46.964V11.12H46.184V8.228ZM47.48 8.228H48.26V11.12H47.48V8.228Z" fill="#1E3D6C"/>
<path d="M18.4129 14.845C18.9448 14.5574 18.8759 13.4492 18.2595 12.368C17.9951 11.9025 17.6699 11.5255 17.3448 11.2619C16.9561 11.5426 16.4851 11.6948 16.001 11.6963C15.5162 11.6952 15.0444 11.543 14.655 11.2619C14.3299 11.5255 14.0057 11.9029 13.7404 12.368C13.1235 13.4488 13.0555 14.5574 13.5887 14.845C13.8262 14.9765 14.0768 14.8779 14.3351 14.6358C14.2868 14.8966 14.2625 15.1611 14.2627 15.426C14.2627 16.6649 14.7569 17.666 15.3651 17.666C15.7318 17.666 15.9135 17.3013 16.0006 16.7434C16.0873 17.2975 16.2693 17.666 16.6335 17.666C17.2391 17.666 17.7371 16.6645 17.7371 15.426C17.7371 15.1477 17.7103 14.8821 17.6643 14.6362C17.9244 14.8787 18.1741 14.9791 18.4125 14.8458L18.4129 14.845ZM16.0002 11.2746C16.2461 11.2781 16.4903 11.2341 16.7186 11.145C16.9469 11.0559 17.1547 10.9235 17.3299 10.7556C17.5051 10.5876 17.6442 10.3874 17.7391 10.1667C17.834 9.94594 17.8828 9.70904 17.8827 9.46976C17.8827 9.23049 17.8337 8.99362 17.7386 8.77294C17.6435 8.55226 17.5042 8.35219 17.3289 8.18435C17.1536 8.01651 16.9457 7.88427 16.7174 7.79533C16.489 7.70638 16.2448 7.6625 15.9988 7.66624C15.5119 7.67364 15.0474 7.86707 14.7058 8.20474C14.3642 8.54242 14.1728 8.99725 14.173 9.47103C14.1731 9.9448 14.3648 10.3995 14.7067 10.7369C15.0486 11.0744 15.5132 11.2675 16.0002 11.2746ZM19.7256 12.419C20.1217 12.4078 20.4977 12.2468 20.7738 11.9702C21.0499 11.6937 21.2043 11.3234 21.2043 10.9379C21.2043 10.5524 21.0499 10.182 20.7738 9.90549C20.4977 9.62895 20.1217 9.46796 19.7256 9.4567C19.3216 9.45676 18.9342 9.6129 18.6486 9.89079C18.3631 10.1687 18.2026 10.5456 18.2027 10.9385C18.2028 11.3314 18.3633 11.7083 18.649 11.9861C18.9346 12.2639 19.322 12.4199 19.726 12.4199L19.7256 12.419ZM21.5809 13.3172C21.3633 12.9343 21.0971 12.6248 20.8301 12.4085C20.5107 12.6387 20.124 12.7635 19.7264 12.7648C19.3987 12.7648 19.0935 12.6775 18.8265 12.5329C19.0415 12.9938 19.1746 13.4606 19.1993 13.878C19.24 14.5173 19.0346 14.9913 18.6236 15.2127C18.5355 15.2597 18.4398 15.2917 18.3406 15.3071C18.3158 15.4724 18.2989 15.6445 18.2989 15.8258C18.2989 16.8433 18.7043 17.6652 19.2041 17.6652C19.5049 17.6652 19.6549 17.3658 19.726 16.9078C19.7966 17.3632 19.9462 17.6652 20.2462 17.6652C20.7425 17.6652 21.1522 16.8429 21.1522 15.8266C21.1522 15.5977 21.1292 15.3797 21.0915 15.1772C21.3048 15.3767 21.5102 15.4589 21.7062 15.3493C22.1427 15.1132 22.0863 14.2032 21.5805 13.3168L21.5809 13.3172ZM12.2747 12.419C12.5758 12.4189 12.8701 12.3319 13.1203 12.169C13.3706 12.0062 13.5656 11.7748 13.6807 11.5042C13.7958 11.2336 13.8258 10.9359 13.7669 10.6486C13.7081 10.3614 13.563 10.0976 13.3501 9.89058C13.1371 9.68355 12.8659 9.54259 12.5706 9.48552C12.2753 9.42844 11.9692 9.45782 11.6911 9.56993C11.4129 9.68205 11.1752 9.87186 11.008 10.1154C10.8407 10.3589 10.7515 10.6452 10.7515 10.9381C10.7516 11.331 10.9121 11.7079 11.1978 11.9857C11.4834 12.2636 11.8708 12.4198 12.2747 12.4199V12.419ZM13.3736 15.2114C12.6835 14.8382 12.6202 13.7254 13.176 12.532C12.9013 12.6837 12.5911 12.764 12.2752 12.7652C11.8608 12.7652 11.481 12.6303 11.1698 12.4085C10.9032 12.6244 10.6375 12.9339 10.419 13.3164C9.9131 14.2036 9.85762 15.1136 10.2946 15.3489C10.4896 15.4577 10.6955 15.3763 10.9075 15.1777C10.8686 15.3918 10.849 15.6088 10.849 15.8262C10.849 16.8433 11.2543 17.6648 11.7541 17.6648C12.055 17.6648 12.205 17.3654 12.276 16.9078C12.3476 17.3632 12.4971 17.6652 12.7962 17.6652C13.2934 17.6652 13.7022 16.8429 13.7022 15.8266C13.7022 15.644 13.6849 15.4716 13.6602 15.3063C13.5599 15.2909 13.463 15.2586 13.3741 15.211L13.3736 15.2114Z" fill="#1E3D6C"/>
<defs>
<linearGradient id="paint0_linear_328_1040" x1="0" y1="13" x2="62" y2="13" gradientUnits="userSpaceOnUse">
<stop stop-color="#6CB1F3"/>
<stop offset="1" stop-color="#7770CF"/>
</linearGradient>
</defs>
</svg>
