<svg width="54" height="26" viewBox="0 0 54 26" fill="none" xmlns="http://www.w3.org/2000/svg">
<rect x="1" y="1" width="51.4444" height="24" rx="12" stroke="url(#paint0_linear_328_1026)" stroke-width="2"/>
<path d="M23.1902 7.75701H30.4022V18.305H29.0342V9.00501H24.4982V18.401H23.1902V7.75701ZM24.8102 10.481H28.7582V11.525H24.8102V10.481ZM23.8622 16.445H29.6942V17.705H23.8622V16.445ZM26.1902 9.25701H27.3062V13.109H26.1902V9.25701ZM26.1542 13.565V14.813H27.3782V13.565H26.1542ZM25.1222 12.569H28.4702V15.809H25.1222V12.569ZM21.7022 7.18101L23.0222 7.57701C22.3262 9.65301 21.1742 11.873 19.9262 13.289C19.8182 12.941 19.4582 12.101 19.2302 11.729C20.2382 10.625 21.1622 8.89701 21.7022 7.18101ZM20.7182 10.469L22.0742 9.11301L22.0862 9.12501V18.425H20.7182V10.469ZM37.3142 7.43301H38.9582C38.8502 9.44901 38.6942 15.305 33.7862 18.317C33.5342 17.945 33.0662 17.501 32.5742 17.165C37.3982 14.489 37.2302 9.00501 37.3142 7.43301ZM38.9102 7.74501C38.9462 8.78901 39.1982 14.777 44.1182 17.081C43.6622 17.429 43.2302 17.909 43.0142 18.305C37.8422 15.737 37.6142 9.12501 37.5182 7.88901L38.9102 7.74501Z" fill="#1E3D6C"/>
<path d="M14.7354 13.5986C15.0709 13.5989 15.3926 13.7294 15.6297 13.9615C15.8668 14.1936 16 14.5082 16 14.8363V15.3413C16 15.6565 15.8993 15.9639 15.712 16.2204C14.8423 17.4108 13.4225 18 11.4986 18C9.5736 18 8.15432 17.4103 7.28689 16.2198C7.1002 15.9635 6.99992 15.6566 7 15.3419V14.8358C7.00015 14.5077 7.13349 14.1931 7.37072 13.9611C7.60794 13.7291 7.92965 13.5987 8.26514 13.5986H14.7354ZM11.498 7C11.8674 7 12.2331 7.07114 12.5744 7.20937C12.9156 7.3476 13.2257 7.55021 13.4869 7.80562C13.7481 8.06103 13.9553 8.36425 14.0966 8.69796C14.238 9.03167 14.3107 9.38934 14.3107 9.75055C14.3107 10.1118 14.238 10.4694 14.0966 10.8031C13.9553 11.1369 13.7481 11.4401 13.4869 11.6955C13.2257 11.9509 12.9156 12.1535 12.5744 12.2917C12.2331 12.43 11.8674 12.5011 11.498 12.5011C10.7521 12.5011 10.0366 12.2113 9.50917 11.6955C8.98169 11.1797 8.68536 10.48 8.68536 9.75055C8.68536 9.02106 8.98169 8.32145 9.50917 7.80562C10.0366 7.28979 10.7521 7 11.498 7Z" fill="#1E3D6C"/>
<defs>
<linearGradient id="paint0_linear_328_1026" x1="0" y1="13" x2="53.4444" y2="13" gradientUnits="userSpaceOnUse">
<stop stop-color="#6CB1F3"/>
<stop offset="1" stop-color="#7770CF"/>
</linearGradient>
</defs>
</svg>
