<svg width="88" height="110" viewBox="0 0 88 110" fill="none" xmlns="http://www.w3.org/2000/svg">
<path d="M75.6352 65.9857C78.9156 65.9886 82.0606 67.294 84.3791 69.6149C86.6976 71.9358 88 75.0824 88 78.3632V83.4132C87.9999 86.5653 87.0153 89.6387 85.1838 92.204C76.6803 104.108 62.7974 110 43.9863 110C25.1641 110 11.2867 104.103 2.80517 92.1984C0.979754 89.6349 -0.000829747 86.5659 5.26818e-07 83.4187V78.3577C0.00145814 75.0769 1.30522 71.9309 3.62478 69.611C5.94434 67.2911 9.08992 65.9872 12.3703 65.9857H75.6352ZM43.9807 0C47.5923 -5.38241e-08 51.1685 0.71145 54.5052 2.09373C57.8419 3.47601 60.8736 5.50205 63.4274 8.05617C65.9812 10.6103 68.0069 13.6425 69.389 16.9796C70.7711 20.3167 71.4825 23.8934 71.4825 27.5055C71.4825 31.1176 70.7711 34.6943 69.389 38.0314C68.0069 41.3685 65.9812 44.4007 63.4274 46.9548C60.8736 49.509 57.8419 51.535 54.5052 52.9173C51.1685 54.2996 47.5923 55.011 43.9807 55.011C36.6868 55.011 29.6917 52.1131 24.5341 46.9548C19.3765 41.7965 16.479 34.8004 16.479 27.5055C16.479 20.2106 19.3765 13.2145 24.5341 8.05618C29.6917 2.89789 36.6868 0 43.9807 0Z" fill="#6D96FF"/>
</svg>
